<?xml version="1.0" encoding="UTF-8"?>
<svg height="346pt" width="461pt" viewBox="0 0 461 346" xmlns="http://www.w3.org/2000/svg" xmlns:xlink="http://www.w3.org/1999/xlink">

  <defs>
    <circle id="b" cx="0" cy="0" r="3"/> <!-- Data point marker -->
    <path id="c" d="m0 0v4" stroke="#000"/> <!-- vertical ticks -->
    <path id="d" d="m0 0h-4" stroke="#000"/> <!-- horizontal ticks -->
  </defs>

  <!-- data points -->
  <g fill="#1f77b4" stroke="#1f77b4">
    <use x="74"  y="68"  xlink:href="#b"/>
    <use x="84"  y="54"  xlink:href="#b"/>
    <use x="104" y="105" xlink:href="#b"/>
    <use x="84"  y="146" xlink:href="#b"/>
    <use x="88"  y="65"  xlink:href="#b"/>
    <use x="95"  y="207" xlink:href="#b"/>
    <use x="123" y="280" xlink:href="#b"/>
    <use x="102" y="296" xlink:href="#b"/>
    <use x="82"  y="276" xlink:href="#b"/>
    <use x="118" y="261" xlink:href="#b"/>
    <use x="222" y="273" xlink:href="#b"/>
    <use x="399" y="241" xlink:href="#b"/>
  </g>

  <!-- ticks -->
  <g stroke="#000">
    <use x="58"  y="308" xlink:href="#c"/>
    <use x="110" y="308" xlink:href="#c"/>
    <use x="163" y="308" xlink:href="#c"/>
    <use x="216" y="308" xlink:href="#c"/>
    <use x="269" y="308" xlink:href="#c"/>
    <use x="322" y="308" xlink:href="#c"/>
    <use x="375" y="308" xlink:href="#c"/>
    <use x="58"  y="262" xlink:href="#d"/>
    <use x="58"  y="205" xlink:href="#d"/>
    <use x="58"  y="149" xlink:href="#d"/>
    <use x="58"  y="92"  xlink:href="#d"/>
  </g>

  <!-- LABELS -->
  <g font-size="12">
    <!-- X axis -->
    <g text-anchor="middle">
      <text x="236" y="336">min</text>
      <text x="0"   y="0" transform="matrix(0 -1 1 0 6 175)">max</text>
      <text x="57"  y="322">300</text>
      <text x="110" y="322">400</text>
      <text x="163" y="322">500</text>
      <text x="216" y="322">600</text>
      <text x="269" y="322">700</text>
      <text x="322" y="322">800</text>
      <text x="375" y="322">900</text>
    </g>

    <!-- Y axis -->
    <g text-anchor="end">
      <text x="51" y="266">40000</text>
      <text x="51" y="209">60000</text>
      <text x="51" y="152">80000</text>
      <text x="51" y="96">100000</text>
    </g>
  </g>

  <!-- rectangle -->
  <rect x="58" y="42" width="357" height="266" fill="none" stroke="#000"/>
</svg>
