<?xml version="1.0" encoding="UTF-8"?>
<!DOCTYPE svg  PUBLIC '-//W3C//DTD SVG 1.1//EN'  'http://www.w3.org/Graphics/SVG/1.1/DTD/svg11.dtd'>
<svg width="461pt" height="346pt" version="1.1" viewBox="0 0 461 346" xmlns="http://www.w3.org/2000/svg" xmlns:xlink="http://www.w3.org/1999/xlink">
  <path d="m0 346h461v-346h-461z" fill="#ffffff"/>
  <path d="m58 308h357v-266h-357z" fill="#ffffff"/>
  <defs>
    <path id="a" d="m0 2c0.6 0 1-0.2 2-0.7s0.7-1 0.7-2-0.2-1-0.7-2-1-0.7-2-0.7-1 0.2-2 0.7-0.7 1-0.7 2 0.2 1 0.7 2 1 0.7 2 0.7z" stroke="#1f77b4"/>
  </defs>
  <g clip-path="url(#d)" fill="#1f77b4" stroke="#1f77b4">
    <use x="73.835115" y="68.129947" xlink:href="#a"/>
    <use x="83.897669" y="53.568017" xlink:href="#a"/>
    <use x="104.022777" y="104.739547" xlink:href="#a"/>
    <use x="83.368061" y="145.991792" xlink:href="#a"/>
    <use x="87.604926" y="65.395003" xlink:href="#a"/>
    <use x="95.019439" y="207.259907" xlink:href="#a"/>
    <use x="123.088669" y="279.696789" xlink:href="#a"/>
    <use x="102.433953" y="295.487983" xlink:href="#a"/>
    <use x="82.308845" y="276.185052" xlink:href="#a"/>
    <use x="118.322196" y="260.98034" xlink:href="#a"/>
    <use x="222.125385" y="273.096958" xlink:href="#a"/>
    <use x="398.484885" y="241.133883" xlink:href="#a"/>
  </g>
  <defs>
    <path id="b" d="m0 0v4" stroke="#000000" stroke-width=".8"/>
  </defs>
  <use x="57.417264" y="307.584" stroke="#000000" stroke-width=".8" xlink:href="#b"/>
  <text transform="rotate(-0 57 322)" x="57.417264" y="322.182437" font-family="DejaVu Sans" font-size="10px" text-anchor="middle">300</text>
  <use x="110.378074" y="307.584" stroke="#000000" stroke-width=".8" xlink:href="#b"/>
  <text transform="rotate(-0 110 322)" x="110.378074" y="322.182437" font-family="DejaVu Sans" font-size="10px" text-anchor="middle">400</text>
  <use x="163.338885" y="307.584" stroke="#000000" stroke-width=".8" xlink:href="#b"/>
  <text transform="rotate(-0 163 322)" x="163.338885" y="322.182437" font-family="DejaVu Sans" font-size="10px" text-anchor="middle">500</text>
  <use x="216.299696" y="307.584" stroke="#000000" stroke-width=".8" xlink:href="#b"/>
  <text transform="rotate(-0 216 322)" x="216.299696" y="322.182437" font-family="DejaVu Sans" font-size="10px" text-anchor="middle">600</text>
  <use x="269.260507" y="307.584" stroke="#000000" stroke-width=".8" xlink:href="#b"/>
  <text transform="rotate(-0 269 322)" x="269.260507" y="322.182437" font-family="DejaVu Sans" font-size="10px" text-anchor="middle">700</text>
  <use x="322.221318" y="307.584" stroke="#000000" stroke-width=".8" xlink:href="#b"/>
  <text transform="rotate(-0 322 322)" x="322.221318" y="322.182437" font-family="DejaVu Sans" font-size="10px" text-anchor="middle">800</text>
  <use x="375.182128" y="307.584" stroke="#000000" stroke-width=".8" xlink:href="#b"/>
  <text transform="rotate(-0 375 322)" x="375.182128" y="322.182437" font-family="DejaVu Sans" font-size="10px" text-anchor="middle">900</text>
  <text transform="rotate(-0 236 336)" x="236.16" y="335.860562" font-family="DejaVu Sans" font-size="10px" text-anchor="middle">min</text>
  <defs>
    <path id="c" d="m0 0h-4" stroke="#000000" stroke-width=".8"/>
  </defs>
  <use x="57.6" y="261.831885" stroke="#000000" stroke-width=".8" xlink:href="#c"/>
  <text transform="rotate(-0 51 266)" x="50.6" y="265.631104" font-family="DejaVu Sans" font-size="10px" text-anchor="end">40000</text>
  <use x="57.6" y="205.179275" stroke="#000000" stroke-width=".8" xlink:href="#c"/>
  <text transform="rotate(-0 51 209)" x="50.6" y="208.978494" font-family="DejaVu Sans" font-size="10px" text-anchor="end">60000</text>
  <use x="57.6" y="148.526666" stroke="#000000" stroke-width=".8" xlink:href="#c"/>
  <text transform="rotate(-0 51 152)" x="50.6" y="152.325884" font-family="DejaVu Sans" font-size="10px" text-anchor="end">80000</text>
  <use x="57.6" y="91.874056" stroke="#000000" stroke-width=".8" xlink:href="#c"/>
  <text transform="rotate(-0 51 96)" x="50.6" y="95.673274" font-family="DejaVu Sans" font-size="10px" text-anchor="end">100000</text>
  <text transform="rotate(-90 6 175)" x="6.345312" y="174.528" font-family="DejaVu Sans" font-size="10px" text-anchor="middle">max</text>
  <path d="m58 308v-266" fill="none" stroke="#000000" stroke-linecap="square" stroke-width=".8"/>
  <path d="m415 308v-266" fill="none" stroke="#000000" stroke-linecap="square" stroke-width=".8"/>
  <path d="m58 308h357" fill="none" stroke="#000000" stroke-linecap="square" stroke-width=".8"/>
  <path d="m58 41h357" fill="none" stroke="#000000" stroke-linecap="square" stroke-width=".8"/>
  <defs>
    <clipPath id="d">
      <rect x="58" y="41" width="357" height="266"/>
    </clipPath>
  </defs>
</svg>
