<?xml version="1.0" encoding="UTF-8"?>
<!DOCTYPE svg  PUBLIC '-//W3C//DTD SVG 1.1//EN'  'http://www.w3.org/Graphics/SVG/1.1/DTD/svg11.dtd'>
<svg width="461pt" height="346pt" version="1.1" viewBox="0 0 461 346" xmlns="http://www.w3.org/2000/svg" xmlns:xlink="http://www.w3.org/1999/xlink">
  <path d="m0 346h461v-346h-461z" fill="#fff"/>
  <path d="m58 308h357v-266h-357z" fill="#e5e5e5"/>
  <path d="m72 308v-266" clip-path="url(#a)" fill="none" stroke="#fff" stroke-linecap="square"/>
  <defs>
    <path id="b" d="m0 0v4" stroke="#555"/>
    <path id="c" d="m0 0h-4" stroke="#555"/>
    <clipPath id="a">
      <rect x="58" y="41" width="357" height="266"/>
    </clipPath>
  </defs>
  <use x="72" y="308" fill="#555" stroke="#555" xlink:href="#b"/>
  <text transform="translate(75 340) rotate(-90)" fill="#555" font-size="10px">1952</text>
  <path d="m102 308v-266" clip-path="url(#a)" fill="none" stroke="#fff" stroke-linecap="square"/>
  <use x="102" y="308" fill="#555" stroke="#555" xlink:href="#b"/>
  <text transform="translate(105 340) rotate(-90)" fill="#555" font-size="10px">1957</text>
  <path d="m132 308v-266" clip-path="url(#a)" fill="none" stroke="#fff" stroke-linecap="square"/>
  <use x="132" y="308" fill="#555" stroke="#555" xlink:href="#b"/>
  <text transform="translate(135 340) rotate(-90)" fill="#555" font-size="10px">1962</text>
  <path d="m162 308v-266" clip-path="url(#a)" fill="none" stroke="#fff" stroke-linecap="square"/>
  <use x="162" y="308" fill="#555" stroke="#555" xlink:href="#b"/>
  <text transform="translate(165 340) rotate(-90)" fill="#555" font-size="10px">1967</text>
  <path d="m192 308v-266" clip-path="url(#a)" fill="none" stroke="#fff" stroke-linecap="square"/>
  <use x="192" y="308" fill="#555" stroke="#555" xlink:href="#b"/>
  <text transform="translate(194 340) rotate(-90)" fill="#555" font-size="10px">1972</text>
  <path d="m221 308v-266" clip-path="url(#a)" fill="none" stroke="#fff" stroke-linecap="square"/>
  <use x="221" y="308" fill="#555" stroke="#555" xlink:href="#b"/>
  <text transform="translate(224 340) rotate(-90)" fill="#555" font-size="10px">1977</text>
  <path d="m251 308v-266" clip-path="url(#a)" fill="none" stroke="#fff" stroke-linecap="square"/>
  <use x="251" y="308" fill="#555" stroke="#555" xlink:href="#b"/>
  <text transform="translate(254 340) rotate(-90)" fill="#555" font-size="10px">1982</text>
  <path d="m281 308v-266" clip-path="url(#a)" fill="none" stroke="#fff" stroke-linecap="square"/>
  <use x="281" y="308" fill="#555" stroke="#555" xlink:href="#b"/>
  <text transform="translate(284 340) rotate(-90)" fill="#555" font-size="10px">1987</text>
  <path d="m311 308v-266" clip-path="url(#a)" fill="none" stroke="#fff" stroke-linecap="square"/>
  <use x="311" y="308" fill="#555" stroke="#555" xlink:href="#b"/>
  <text transform="translate(313 340) rotate(-90)" fill="#555" font-size="10px">1992</text>
  <path d="m340 308v-266" clip-path="url(#a)" fill="none" stroke="#fff" stroke-linecap="square"/>
  <use x="340" y="308" fill="#555" stroke="#555" xlink:href="#b"/>
  <text transform="translate(343 340) rotate(-90)" fill="#555" font-size="10px">1997</text>
  <path d="m370 308v-266" clip-path="url(#a)" fill="none" stroke="#fff" stroke-linecap="square"/>
  <use x="370" y="308" fill="#555" stroke="#555" xlink:href="#b"/>
  <text transform="translate(373 340) rotate(-90)" fill="#555" font-size="10px">2002</text>
  <path d="m400 308v-266" clip-path="url(#a)" fill="none" stroke="#fff" stroke-linecap="square"/>
  <use x="400" y="308" fill="#555" stroke="#555" xlink:href="#b"/>
  <text transform="translate(403 340) rotate(-90)" fill="#555" font-size="10px">2007</text>
  <path d="m58 308h357" clip-path="url(#a)" fill="none" stroke="#fff" stroke-linecap="square"/>
  <use x="58" y="308" fill="#555" stroke="#555" xlink:href="#c"/>
  <text x="51" y="311" fill="#555" font-size="10px" text-anchor="end">0</text>
  <path d="m58 271h357" clip-path="url(#a)" fill="none" stroke="#fff" stroke-linecap="square"/>
  <use x="58" y="271" fill="#555" stroke="#555" xlink:href="#c"/>
  <text x="51" y="275" fill="#555" font-size="10px" text-anchor="end">5000</text>
  <path d="m58 234h357" clip-path="url(#a)" fill="none" stroke="#fff" stroke-linecap="square"/>
  <use x="58" y="234" fill="#555" stroke="#555" xlink:href="#c"/>
  <text x="51" y="238" fill="#555" font-size="10px" text-anchor="end">10000</text>
  <path d="m58 197h357" clip-path="url(#a)" fill="none" stroke="#fff" stroke-linecap="square"/>
  <use x="58" y="197" fill="#555" stroke="#555" xlink:href="#c"/>
  <text x="51" y="201" fill="#555" font-size="10px" text-anchor="end">15000</text>
  <path d="m58 160h357" clip-path="url(#a)" fill="none" stroke="#fff" stroke-linecap="square"/>
  <use x="58" y="160" fill="#555" stroke="#555" xlink:href="#c"/>
  <text x="51" y="164" fill="#555" font-size="10px" text-anchor="end">20000</text>
  <path d="m58 124h357" clip-path="url(#a)" fill="none" stroke="#fff" stroke-linecap="square"/>
  <use x="58" y="124" fill="#555" stroke="#555" xlink:href="#c"/>
  <text x="51" y="127" fill="#555" font-size="10px" text-anchor="end">25000</text>
  <path d="m58 87h357" clip-path="url(#a)" fill="none" stroke="#fff" stroke-linecap="square"/>
  <use x="58" y="87" fill="#555" stroke="#555" xlink:href="#c"/>
  <text x="51" y="91" fill="#555" font-size="10px" text-anchor="end">30000</text>
  <path d="m58 50h357" clip-path="url(#a)" fill="none" stroke="#fff" stroke-linecap="square"/>
  <use x="58" y="50" fill="#555" stroke="#555" xlink:href="#c"/>
  <text x="51" y="54" fill="#555" font-size="10px" text-anchor="end">35000</text>
  <text transform="rotate(-90 12 175)" x="12" y="175" fill="#555" font-size="12px" text-anchor="middle">GDP per capita</text>
  <path d="m65 308h7v-74h-7z" clip-path="url(#a)" fill="#e24a33"/>
  <path d="m95 308h7v-81h-7z" clip-path="url(#a)" fill="#e24a33"/>
  <path d="m125 308h7v-90h-7z" clip-path="url(#a)" fill="#e24a33"/>
  <path d="m154 308h7v-107h-7z" clip-path="url(#a)" fill="#e24a33"/>
  <path d="m184 308h7v-124h-7z" clip-path="url(#a)" fill="#e24a33"/>
  <path d="m214 308h7v-135h-7z" clip-path="url(#a)" fill="#e24a33"/>
  <path d="m244 308h7v-143h-7z" clip-path="url(#a)" fill="#e24a33"/>
  <path d="m273 308h7v-161h-7z" clip-path="url(#a)" fill="#e24a33"/>
  <path d="m303 308h7v-172h-7z" clip-path="url(#a)" fill="#e24a33"/>
  <path d="m333 308h7v-199h-7z" clip-path="url(#a)" fill="#e24a33"/>
  <path d="m363 308h7v-226h-7z" clip-path="url(#a)" fill="#e24a33"/>
  <path d="m392 308h7v-253h-7z" clip-path="url(#a)" fill="#e24a33"/>
  <path d="m72 308h7v-78h-7z" clip-path="url(#a)" fill="#348abd"/>
  <path d="m102 308h7v-90h-7z" clip-path="url(#a)" fill="#348abd"/>
  <path d="m132 308h7v-97h-7z" clip-path="url(#a)" fill="#348abd"/>
  <path d="m162 308h7v-106h-7z" clip-path="url(#a)" fill="#348abd"/>
  <path d="m192 308h7v-118h-7z" clip-path="url(#a)" fill="#348abd"/>
  <path d="m221 308h7v-119h-7z" clip-path="url(#a)" fill="#348abd"/>
  <path d="m251 308h7v-130h-7z" clip-path="url(#a)" fill="#348abd"/>
  <path d="m281 308h7v-140h-7z" clip-path="url(#a)" fill="#348abd"/>
  <path d="m311 308h7v-135h-7z" clip-path="url(#a)" fill="#348abd"/>
  <path d="m340 308h7v-155h-7z" clip-path="url(#a)" fill="#348abd"/>
  <path d="m370 308h7v-171h-7z" clip-path="url(#a)" fill="#348abd"/>
  <path d="m400 308h7v-185h-7z" clip-path="url(#a)" fill="#348abd"/>
  <path d="m58 308v-266" fill="none" stroke="#fff" stroke-linecap="square"/>
  <path d="m415 308v-266" fill="none" stroke="#fff" stroke-linecap="square"/>
  <path d="m58 308h357" fill="none" stroke="#fff" stroke-linecap="square"/>
  <path d="m58 41h357" fill="none" stroke="#fff" stroke-linecap="square"/>
  <path d="m65 94h98q2 0 2-2v-43q0-2-2-2h-98q-2 0-2 2v43q0 2 2 2z" fill="#e5e5e5" opacity=".8" stroke="#ccc" stroke-width=".5"/>
  <text x="94" y="58" font-size="10px">country</text>
  <path d="m67 73h20v-7h-20z" fill="#e24a33"/>
  <text x="95" y="73" font-size="10px">Australia</text>
  <path d="m67 87h20v-7h-20z" fill="#348abd"/>
  <text x="95" y="87" font-size="10px">New Zealand</text>
</svg>
