<?xml version="1.0" encoding="UTF-8"?>
<!DOCTYPE svg  PUBLIC '-//W3C//DTD SVG 1.1//EN'  'http://www.w3.org/Graphics/SVG/1.1/DTD/svg11.dtd'>
<svg width="461pt" height="346pt" version="1.1" viewBox="0 0 461 346" xmlns="http://www.w3.org/2000/svg" xmlns:xlink="http://www.w3.org/1999/xlink">
  <path d="m0 346h461v-346h-461z" fill="#ffffff"/>
  <path d="m58 308h357v-266h-357z" fill="#e5e5e5"/>
  <path d="m73 308v-266" clip-path="url(#a)" fill="none" stroke="#ffffff" stroke-linecap="square" stroke-width=".8"/>
  <defs>
    <path id="d" d="m0 0v4" stroke="#555555" stroke-width=".8"/>
    <path id="c" d="m0 0h-4" stroke="#555555" stroke-width=".8"/>
    <path id="b" d="m0 3c0.8 0 2-0.3 2-0.9 0.6-0.6 0.9-1 0.9-2s-0.3-2-0.9-2c-0.6-0.6-1-0.9-2-0.9s-2 0.3-2 0.9c-0.6 0.6-0.9 1-0.9 2s0.3 2 0.9 2c0.6 0.6 1 0.9 2 0.9z" stroke="#e24a33" stroke-width=".5"/>
    <clipPath id="a">
      <rect x="58" y="41" width="357" height="266"/>
    </clipPath>
  </defs>
  <use x="73.305876" y="307.584" fill="#555555" stroke="#555555" stroke-width=".8" xlink:href="#d"/>
  <text transform="rotate(-0 73 322)" x="73.305876" y="322.182437" fill="#555555" font-family="DejaVu Sans" font-size="10px" text-anchor="middle">10000</text>
  <path d="m140 308v-266" clip-path="url(#a)" fill="none" stroke="#ffffff" stroke-linecap="square" stroke-width=".8"/>
  <use x="139.844945" y="307.584" fill="#555555" stroke="#555555" stroke-width=".8" xlink:href="#d"/>
  <text transform="rotate(-0 140 322)" x="139.844945" y="322.182437" fill="#555555" font-family="DejaVu Sans" font-size="10px" text-anchor="middle">15000</text>
  <path d="m206 308v-266" clip-path="url(#a)" fill="none" stroke="#ffffff" stroke-linecap="square" stroke-width=".8"/>
  <use x="206.384013" y="307.584" fill="#555555" stroke="#555555" stroke-width=".8" xlink:href="#d"/>
  <text transform="rotate(-0 206 322)" x="206.384013" y="322.182437" fill="#555555" font-family="DejaVu Sans" font-size="10px" text-anchor="middle">20000</text>
  <path d="m273 308v-266" clip-path="url(#a)" fill="none" stroke="#ffffff" stroke-linecap="square" stroke-width=".8"/>
  <use x="272.923081" y="307.584" fill="#555555" stroke="#555555" stroke-width=".8" xlink:href="#d"/>
  <text transform="rotate(-0 273 322)" x="272.923081" y="322.182437" fill="#555555" font-family="DejaVu Sans" font-size="10px" text-anchor="middle">25000</text>
  <path d="m339 308v-266" clip-path="url(#a)" fill="none" stroke="#ffffff" stroke-linecap="square" stroke-width=".8"/>
  <use x="339.462149" y="307.584" fill="#555555" stroke="#555555" stroke-width=".8" xlink:href="#d"/>
  <text transform="rotate(-0 339 322)" x="339.462149" y="322.182437" fill="#555555" font-family="DejaVu Sans" font-size="10px" text-anchor="middle">30000</text>
  <path d="m406 308v-266" clip-path="url(#a)" fill="none" stroke="#ffffff" stroke-linecap="square" stroke-width=".8"/>
  <use x="406.001217" y="307.584" fill="#555555" stroke="#555555" stroke-width=".8" xlink:href="#d"/>
  <text transform="rotate(-0 406 322)" x="406.001217" y="322.182437" fill="#555555" font-family="DejaVu Sans" font-size="10px" text-anchor="middle">35000</text>
  <path d="m58 305h357" clip-path="url(#a)" fill="none" stroke="#ffffff" stroke-linecap="square" stroke-width=".8"/>
  <use x="57.6" y="304.692312" fill="#555555" stroke="#555555" stroke-width=".8" xlink:href="#c"/>
  <text transform="rotate(-0 51 308)" x="50.6" y="308.491531" fill="#555555" font-family="DejaVu Sans" font-size="10px" text-anchor="end">10000</text>
  <path d="m58 272h357" clip-path="url(#a)" fill="none" stroke="#ffffff" stroke-linecap="square" stroke-width=".8"/>
  <use x="57.6" y="271.617037" fill="#555555" stroke="#555555" stroke-width=".8" xlink:href="#c"/>
  <text transform="rotate(-0 51 275)" x="50.6" y="275.416256" fill="#555555" font-family="DejaVu Sans" font-size="10px" text-anchor="end">12000</text>
  <path d="m58 239h357" clip-path="url(#a)" fill="none" stroke="#ffffff" stroke-linecap="square" stroke-width=".8"/>
  <use x="57.6" y="238.541762" fill="#555555" stroke="#555555" stroke-width=".8" xlink:href="#c"/>
  <text transform="rotate(-0 51 242)" x="50.6" y="242.340981" fill="#555555" font-family="DejaVu Sans" font-size="10px" text-anchor="end">14000</text>
  <path d="m58 205h357" clip-path="url(#a)" fill="none" stroke="#ffffff" stroke-linecap="square" stroke-width=".8"/>
  <use x="57.6" y="205.466487" fill="#555555" stroke="#555555" stroke-width=".8" xlink:href="#c"/>
  <text transform="rotate(-0 51 209)" x="50.6" y="209.265705" fill="#555555" font-family="DejaVu Sans" font-size="10px" text-anchor="end">16000</text>
  <path d="m58 172h357" clip-path="url(#a)" fill="none" stroke="#ffffff" stroke-linecap="square" stroke-width=".8"/>
  <use x="57.6" y="172.391211" fill="#555555" stroke="#555555" stroke-width=".8" xlink:href="#c"/>
  <text transform="rotate(-0 51 176)" x="50.6" y="176.19043" fill="#555555" font-family="DejaVu Sans" font-size="10px" text-anchor="end">18000</text>
  <path d="m58 139h357" clip-path="url(#a)" fill="none" stroke="#ffffff" stroke-linecap="square" stroke-width=".8"/>
  <use x="57.6" y="139.315936" fill="#555555" stroke="#555555" stroke-width=".8" xlink:href="#c"/>
  <text transform="rotate(-0 51 143)" x="50.6" y="143.115155" fill="#555555" font-family="DejaVu Sans" font-size="10px" text-anchor="end">20000</text>
  <path d="m58 106h357" clip-path="url(#a)" fill="none" stroke="#ffffff" stroke-linecap="square" stroke-width=".8"/>
  <use x="57.6" y="106.240661" fill="#555555" stroke="#555555" stroke-width=".8" xlink:href="#c"/>
  <text transform="rotate(-0 51 110)" x="50.6" y="110.03988" fill="#555555" font-family="DejaVu Sans" font-size="10px" text-anchor="end">22000</text>
  <path d="m58 73h357" clip-path="url(#a)" fill="none" stroke="#ffffff" stroke-linecap="square" stroke-width=".8"/>
  <use x="57.6" y="73.165385" fill="#555555" stroke="#555555" stroke-width=".8" xlink:href="#c"/>
  <text transform="rotate(-0 51 77)" x="50.6" y="76.964604" fill="#555555" font-family="DejaVu Sans" font-size="10px" text-anchor="end">24000</text>
  <g clip-path="url(#a)" fill="#e24a33" stroke="#e24a33" stroke-width=".5">
    <use x="73.832808" y="295.487866" xlink:href="#b"/>
    <use x="85.943636" y="267.525703" xlink:href="#b"/>
    <use x="102.812318" y="252.1741" xlink:href="#b"/>
    <use x="133.5387" y="230.869639" xlink:href="#b"/>
    <use x="163.647692" y="204.705139" xlink:href="#b"/>
    <use x="184.215824" y="201.601348" xlink:href="#b"/>
    <use x="199.42415" y="178.470275" xlink:href="#b"/>
    <use x="231.520996" y="155.734647" xlink:href="#b"/>
    <use x="251.960171" y="166.382675" xlink:href="#b"/>
    <use x="299.511248" y="121.944574" xlink:href="#b"/>
    <use x="348.614661" y="86.564157" xlink:href="#b"/>
    <use x="398.487192" y="53.568134" xlink:href="#b"/>
  </g>
  <path d="m58 308v-266" fill="none" stroke="#ffffff" stroke-linecap="square"/>
  <path d="m415 308v-266" fill="none" stroke="#ffffff" stroke-linecap="square"/>
  <path d="m58 308h357" fill="none" stroke="#ffffff" stroke-linecap="square"/>
  <path d="m58 41h357" fill="none" stroke="#ffffff" stroke-linecap="square"/>
</svg>
