<?xml version="1.0" encoding="UTF-8"?>
<!DOCTYPE svg  PUBLIC '-//W3C//DTD SVG 1.1//EN'  'http://www.w3.org/Graphics/SVG/1.1/DTD/svg11.dtd'>
<svg width="461pt" height="346pt" version="1.1" viewBox="0 0 461 346" xmlns="http://www.w3.org/2000/svg" xmlns:xlink="http://www.w3.org/1999/xlink">
  <path d="m0 346h461v-346h-461z" fill="#ffffff"/>
  <path d="m58 308h357v-266h-357z" fill="#e5e5e5"/>
  <path d="m62 308v-266" clip-path="url(#a)" fill="none" stroke="#ffffff" stroke-linecap="square" stroke-width=".8"/>
  <defs>
    <path id="c" d="m0 0v4" stroke="#555555" stroke-width=".8"/>
    <path id="b" d="m0 0h-4" stroke="#555555" stroke-width=".8"/>
    <clipPath id="a">
      <rect x="58" y="41" width="357" height="266"/>
    </clipPath>
  </defs>
  <use x="62.027107" y="307.584" fill="#555555" stroke="#555555" stroke-width=".8" xlink:href="#c"/>
  <text transform="rotate(-0 62 322)" x="62.027107" y="322.182437" fill="#555555" font-family="DejaVu Sans" font-size="10px" text-anchor="middle">1950</text>
  <path d="m121 308v-266" clip-path="url(#a)" fill="none" stroke="#ffffff" stroke-linecap="square" stroke-width=".8"/>
  <use x="121.055207" y="307.584" fill="#555555" stroke="#555555" stroke-width=".8" xlink:href="#c"/>
  <text transform="rotate(-0 121 322)" x="121.055207" y="322.182437" fill="#555555" font-family="DejaVu Sans" font-size="10px" text-anchor="middle">1960</text>
  <path d="m180 308v-266" clip-path="url(#a)" fill="none" stroke="#ffffff" stroke-linecap="square" stroke-width=".8"/>
  <use x="180.083306" y="307.584" fill="#555555" stroke="#555555" stroke-width=".8" xlink:href="#c"/>
  <text transform="rotate(-0 180 322)" x="180.083306" y="322.182437" fill="#555555" font-family="DejaVu Sans" font-size="10px" text-anchor="middle">1970</text>
  <path d="m239 308v-266" clip-path="url(#a)" fill="none" stroke="#ffffff" stroke-linecap="square" stroke-width=".8"/>
  <use x="239.111405" y="307.584" fill="#555555" stroke="#555555" stroke-width=".8" xlink:href="#c"/>
  <text transform="rotate(-0 239 322)" x="239.111405" y="322.182437" fill="#555555" font-family="DejaVu Sans" font-size="10px" text-anchor="middle">1980</text>
  <path d="m298 308v-266" clip-path="url(#a)" fill="none" stroke="#ffffff" stroke-linecap="square" stroke-width=".8"/>
  <use x="298.139504" y="307.584" fill="#555555" stroke="#555555" stroke-width=".8" xlink:href="#c"/>
  <text transform="rotate(-0 298 322)" x="298.139504" y="322.182437" fill="#555555" font-family="DejaVu Sans" font-size="10px" text-anchor="middle">1990</text>
  <path d="m357 308v-266" clip-path="url(#a)" fill="none" stroke="#ffffff" stroke-linecap="square" stroke-width=".8"/>
  <use x="357.167603" y="307.584" fill="#555555" stroke="#555555" stroke-width=".8" xlink:href="#c"/>
  <text transform="rotate(-0 357 322)" x="357.167603" y="322.182437" fill="#555555" font-family="DejaVu Sans" font-size="10px" text-anchor="middle">2000</text>
  <path d="m58 296h357" clip-path="url(#a)" fill="none" stroke="#ffffff" stroke-linecap="square" stroke-width=".8"/>
  <use x="57.6" y="295.880649" fill="#555555" stroke="#555555" stroke-width=".8" xlink:href="#b"/>
  <text transform="rotate(-0 51 300)" x="50.6" y="299.679868" fill="#555555" font-family="DejaVu Sans" font-size="10px" text-anchor="end">10000</text>
  <path d="m58 246h357" clip-path="url(#a)" fill="none" stroke="#ffffff" stroke-linecap="square" stroke-width=".8"/>
  <use x="57.6" y="246.298287" fill="#555555" stroke="#555555" stroke-width=".8" xlink:href="#b"/>
  <text transform="rotate(-0 51 250)" x="50.6" y="250.097505" fill="#555555" font-family="DejaVu Sans" font-size="10px" text-anchor="end">15000</text>
  <path d="m58 197h357" clip-path="url(#a)" fill="none" stroke="#ffffff" stroke-linecap="square" stroke-width=".8"/>
  <use x="57.6" y="196.715924" fill="#555555" stroke="#555555" stroke-width=".8" xlink:href="#b"/>
  <text transform="rotate(-0 51 201)" x="50.6" y="200.515143" fill="#555555" font-family="DejaVu Sans" font-size="10px" text-anchor="end">20000</text>
  <path d="m58 147h357" clip-path="url(#a)" fill="none" stroke="#ffffff" stroke-linecap="square" stroke-width=".8"/>
  <use x="57.6" y="147.133562" fill="#555555" stroke="#555555" stroke-width=".8" xlink:href="#b"/>
  <text transform="rotate(-0 51 151)" x="50.6" y="150.93278" fill="#555555" font-family="DejaVu Sans" font-size="10px" text-anchor="end">25000</text>
  <path d="m58 98h357" clip-path="url(#a)" fill="none" stroke="#ffffff" stroke-linecap="square" stroke-width=".8"/>
  <use x="57.6" y="97.551199" fill="#555555" stroke="#555555" stroke-width=".8" xlink:href="#b"/>
  <text transform="rotate(-0 51 101)" x="50.6" y="101.350418" fill="#555555" font-family="DejaVu Sans" font-size="10px" text-anchor="end">30000</text>
  <path d="m58 48h357" clip-path="url(#a)" fill="none" stroke="#ffffff" stroke-linecap="square" stroke-width=".8"/>
  <use x="57.6" y="47.968837" fill="#555555" stroke="#555555" stroke-width=".8" xlink:href="#b"/>
  <text transform="rotate(-0 51 52)" x="50.6" y="51.768056" fill="#555555" font-family="DejaVu Sans" font-size="10px" text-anchor="end">35000</text>
  <path d="m74 295 148-82 59-35 30-15 89-109" clip-path="url(#a)" fill="none" stroke="#008000" stroke-dasharray="5.55,2.4" stroke-width="2"/>
  <path d="m58 308v-266" fill="none" stroke="#ffffff" stroke-linecap="square"/>
  <path d="m415 308v-266" fill="none" stroke="#ffffff" stroke-linecap="square"/>
  <path d="m58 308h357" fill="none" stroke="#ffffff" stroke-linecap="square"/>
  <path d="m58 41h357" fill="none" stroke="#ffffff" stroke-linecap="square"/>
</svg>
