<?xml version="1.0" encoding="UTF-8"?>
<!DOCTYPE svg  PUBLIC '-//W3C//DTD SVG 1.1//EN'  'http://www.w3.org/Graphics/SVG/1.1/DTD/svg11.dtd'>
<svg width="461pt" height="346pt" version="1.1" viewBox="0 0 461 346" xmlns="http://www.w3.org/2000/svg" xmlns:xlink="http://www.w3.org/1999/xlink">
  <path d="m0 346h461v-346h-461z" fill="#fff"/>
  <path d="m58 308h357v-266h-357z" fill="#e5e5e5"/>
  <path d="m73 308v-266" clip-path="url(#a)" fill="none" stroke="#fff" stroke-linecap="square" stroke-width=".8"/>
  <defs>
    <path id="d" d="m0 0v4" stroke="#555" stroke-width=".8"/>
    <path id="c" d="m0 0h-4" stroke="#555" stroke-width=".8"/>
    <path id="b" d="m0 2c0.6 0 1-0.2 2-0.7s0.7-1 0.7-2-0.2-1-0.7-2-1-0.7-2-0.7-1 0.2-2 0.7-0.7 1-0.7 2 0.2 1 0.7 2 1 0.7 2 0.7z" stroke="#348abd" stroke-width=".5"/>
    <clipPath id="a">
      <rect x="58" y="41" width="357" height="266"/>
    </clipPath>
  </defs>
  <use x="73.305856" y="307.584" fill="#555" stroke="#555" stroke-width=".8" xlink:href="#d"/>
  <text x="73.305856" y="322.182437" fill="#555" font-family="DejaVu Sans" font-size="10px" text-anchor="middle">10000</text>
  <path d="m140 308v-266" clip-path="url(#a)" fill="none" stroke="#fff" stroke-linecap="square" stroke-width=".8"/>
  <use x="139.844932" y="307.584" fill="#555" stroke="#555" stroke-width=".8" xlink:href="#d"/>
  <text x="139.844932" y="322.182437" fill="#555" font-family="DejaVu Sans" font-size="10px" text-anchor="middle">15000</text>
  <path d="m206 308v-266" clip-path="url(#a)" fill="none" stroke="#fff" stroke-linecap="square" stroke-width=".8"/>
  <use x="206.384009" y="307.584" fill="#555" stroke="#555" stroke-width=".8" xlink:href="#d"/>
  <text x="206.384009" y="322.182437" fill="#555" font-family="DejaVu Sans" font-size="10px" text-anchor="middle">20000</text>
  <path d="m273 308v-266" clip-path="url(#a)" fill="none" stroke="#fff" stroke-linecap="square" stroke-width=".8"/>
  <use x="272.923085" y="307.584" fill="#555" stroke="#555" stroke-width=".8" xlink:href="#d"/>
  <text x="272.923085" y="322.182437" fill="#555" font-family="DejaVu Sans" font-size="10px" text-anchor="middle">25000</text>
  <path d="m339 308v-266" clip-path="url(#a)" fill="none" stroke="#fff" stroke-linecap="square" stroke-width=".8"/>
  <use x="339.462162" y="307.584" fill="#555" stroke="#555" stroke-width=".8" xlink:href="#d"/>
  <text x="339.462162" y="322.182437" fill="#555" font-family="DejaVu Sans" font-size="10px" text-anchor="middle">30000</text>
  <path d="m406 308v-266" clip-path="url(#a)" fill="none" stroke="#fff" stroke-linecap="square" stroke-width=".8"/>
  <use x="406.001239" y="307.584" fill="#555" stroke="#555" stroke-width=".8" xlink:href="#d"/>
  <text x="406.001239" y="322.182437" fill="#555" font-family="DejaVu Sans" font-size="10px" text-anchor="middle">35000</text>
  <text x="236.16" y="337.38025" fill="#555" font-family="DejaVu Sans" font-size="12px" text-anchor="middle">Australia</text>
  <path d="m58 305h357" clip-path="url(#a)" fill="none" stroke="#fff" stroke-linecap="square" stroke-width=".8"/>
  <use x="57.6" y="304.692349" fill="#555" stroke="#555" stroke-width=".8" xlink:href="#c"/>
  <text x="50.6" y="308.491568" fill="#555" font-family="DejaVu Sans" font-size="10px" text-anchor="end">10000</text>
  <path d="m58 272h357" clip-path="url(#a)" fill="none" stroke="#fff" stroke-linecap="square" stroke-width=".8"/>
  <use x="57.6" y="271.617065" fill="#555" stroke="#555" stroke-width=".8" xlink:href="#c"/>
  <text x="50.6" y="275.416283" fill="#555" font-family="DejaVu Sans" font-size="10px" text-anchor="end">12000</text>
  <path d="m58 239h357" clip-path="url(#a)" fill="none" stroke="#fff" stroke-linecap="square" stroke-width=".8"/>
  <use x="57.6" y="238.54178" fill="#555" stroke="#555" stroke-width=".8" xlink:href="#c"/>
  <text x="50.6" y="242.340999" fill="#555" font-family="DejaVu Sans" font-size="10px" text-anchor="end">14000</text>
  <path d="m58 205h357" clip-path="url(#a)" fill="none" stroke="#fff" stroke-linecap="square" stroke-width=".8"/>
  <use x="57.6" y="205.466495" fill="#555" stroke="#555" stroke-width=".8" xlink:href="#c"/>
  <text x="50.6" y="209.265714" fill="#555" font-family="DejaVu Sans" font-size="10px" text-anchor="end">16000</text>
  <path d="m58 172h357" clip-path="url(#a)" fill="none" stroke="#fff" stroke-linecap="square" stroke-width=".8"/>
  <use x="57.6" y="172.391211" fill="#555" stroke="#555" stroke-width=".8" xlink:href="#c"/>
  <text x="50.6" y="176.190429" fill="#555" font-family="DejaVu Sans" font-size="10px" text-anchor="end">18000</text>
  <path d="m58 139h357" clip-path="url(#a)" fill="none" stroke="#fff" stroke-linecap="square" stroke-width=".8"/>
  <use x="57.6" y="139.315926" fill="#555" stroke="#555" stroke-width=".8" xlink:href="#c"/>
  <text x="50.6" y="143.115145" fill="#555" font-family="DejaVu Sans" font-size="10px" text-anchor="end">20000</text>
  <path d="m58 106h357" clip-path="url(#a)" fill="none" stroke="#fff" stroke-linecap="square" stroke-width=".8"/>
  <use x="57.6" y="106.240641" fill="#555" stroke="#555" stroke-width=".8" xlink:href="#c"/>
  <text x="50.6" y="110.03986" fill="#555" font-family="DejaVu Sans" font-size="10px" text-anchor="end">22000</text>
  <path d="m58 73h357" clip-path="url(#a)" fill="none" stroke="#fff" stroke-linecap="square" stroke-width=".8"/>
  <use x="57.6" y="73.165357" fill="#555" stroke="#555" stroke-width=".8" xlink:href="#c"/>
  <text x="50.6" y="76.964576" fill="#555" font-family="DejaVu Sans" font-size="10px" text-anchor="end">24000</text>
  <text transform="rotate(-90 12 175)" x="12.291875" y="174.528" fill="#555" font-family="DejaVu Sans" font-size="12px" text-anchor="middle">New Zealand</text>
  <g clip-path="url(#a)" fill="#348abd" stroke="#348abd" stroke-width=".5">
    <use x="73.832787" y="295.4879" xlink:href="#b"/>
    <use x="85.943617" y="267.525729" xlink:href="#b"/>
    <use x="102.812301" y="252.174122" xlink:href="#b"/>
    <use x="133.538687" y="230.869655" xlink:href="#b"/>
    <use x="163.647683" y="204.705147" xlink:href="#b"/>
    <use x="184.215817" y="201.601356" xlink:href="#b"/>
    <use x="199.424145" y="178.470276" xlink:href="#b"/>
    <use x="231.520995" y="155.734641" xlink:href="#b"/>
    <use x="251.960173" y="166.382673" xlink:href="#b"/>
    <use x="299.511256" y="121.944559" xlink:href="#b"/>
    <use x="348.614675" y="86.564132" xlink:href="#b"/>
    <use x="398.487213" y="53.5681" xlink:href="#b"/>
  </g>
  <path d="m58 308v-266" fill="none" stroke="#fff" stroke-linecap="square"/>
  <path d="m415 308v-266" fill="none" stroke="#fff" stroke-linecap="square"/>
  <path d="m58 308h357" fill="none" stroke="#fff" stroke-linecap="square"/>
  <path d="m58 41h357" fill="none" stroke="#fff" stroke-linecap="square"/>
</svg>
