<?xml version="1.0" encoding="UTF-8"?>
<!DOCTYPE svg  PUBLIC '-//W3C//DTD SVG 1.1//EN'  'http://www.w3.org/Graphics/SVG/1.1/DTD/svg11.dtd'>
<svg width="461pt" height="346pt" version="1.1" viewBox="0 0 461 346" xmlns="http://www.w3.org/2000/svg" xmlns:xlink="http://www.w3.org/1999/xlink">
  <path d="m0 346h461v-346h-461z" fill="#fff"/>
  <path d="m58 308h357v-266h-357z" fill="#e5e5e5"/>
  <path d="m73 308v-266" clip-path="url(#a)" fill="none" stroke="#fff" stroke-linecap="square" stroke-width=".8"/>
  <defs>
    <path id="d" d="m0 0v4" stroke="#555" stroke-width=".8"/>
    <path id="c" d="m0 0h-4" stroke="#555" stroke-width=".8"/>
    <path id="b" d="m0 2c0.6 0 1-0.2 2-0.7s0.7-1 0.7-2-0.2-1-0.7-2-1-0.7-2-0.7-1 0.2-2 0.7-0.7 1-0.7 2 0.2 1 0.7 2 1 0.7 2 0.7z" stroke="#348abd" stroke-width=".5"/>
    <clipPath id="a">
      <rect x="58" y="41" width="357" height="266"/>
    </clipPath>
  </defs>
  <use x="73" y="308" fill="#555" stroke="#555" stroke-width=".8" xlink:href="#d"/>
  <text x="73" y="322" fill="#555" font-family="DejaVu Sans" font-size="10px" text-anchor="middle">10000</text>
  <path d="m140 308v-266" clip-path="url(#a)" fill="none" stroke="#fff" stroke-linecap="square" stroke-width=".8"/>
  <use x="140" y="308" fill="#555" stroke="#555" stroke-width=".8" xlink:href="#d"/>
  <text x="140" y="322" fill="#555" font-family="DejaVu Sans" font-size="10px" text-anchor="middle">15000</text>
  <path d="m206 308v-266" clip-path="url(#a)" fill="none" stroke="#fff" stroke-linecap="square" stroke-width=".8"/>
  <use x="206" y="308" fill="#555" stroke="#555" stroke-width=".8" xlink:href="#d"/>
  <text x="206" y="322" fill="#555" font-family="DejaVu Sans" font-size="10px" text-anchor="middle">20000</text>
  <path d="m273 308v-266" clip-path="url(#a)" fill="none" stroke="#fff" stroke-linecap="square" stroke-width=".8"/>
  <use x="273" y="308" fill="#555" stroke="#555" stroke-width=".8" xlink:href="#d"/>
  <text x="273" y="322" fill="#555" font-family="DejaVu Sans" font-size="10px" text-anchor="middle">25000</text>
  <path d="m339 308v-266" clip-path="url(#a)" fill="none" stroke="#fff" stroke-linecap="square" stroke-width=".8"/>
  <use x="339" y="308" fill="#555" stroke="#555" stroke-width=".8" xlink:href="#d"/>
  <text x="339" y="322" fill="#555" font-family="DejaVu Sans" font-size="10px" text-anchor="middle">30000</text>
  <path d="m406 308v-266" clip-path="url(#a)" fill="none" stroke="#fff" stroke-linecap="square" stroke-width=".8"/>
  <use x="406" y="308" fill="#555" stroke="#555" stroke-width=".8" xlink:href="#d"/>
  <text x="406" y="322" fill="#555" font-family="DejaVu Sans" font-size="10px" text-anchor="middle">35000</text>
  <text x="236" y="337" fill="#555" font-family="DejaVu Sans" font-size="12px" text-anchor="middle">Australia</text>
  <path d="m58 305h357" clip-path="url(#a)" fill="none" stroke="#fff" stroke-linecap="square" stroke-width=".8"/>
  <use x="58" y="305" fill="#555" stroke="#555" stroke-width=".8" xlink:href="#c"/>
  <text x="51" y="308" fill="#555" font-family="DejaVu Sans" font-size="10px" text-anchor="end">10000</text>
  <path d="m58 272h357" clip-path="url(#a)" fill="none" stroke="#fff" stroke-linecap="square" stroke-width=".8"/>
  <use x="58" y="272" fill="#555" stroke="#555" stroke-width=".8" xlink:href="#c"/>
  <text x="51" y="275" fill="#555" font-family="DejaVu Sans" font-size="10px" text-anchor="end">12000</text>
  <path d="m58 239h357" clip-path="url(#a)" fill="none" stroke="#fff" stroke-linecap="square" stroke-width=".8"/>
  <use x="58" y="239" fill="#555" stroke="#555" stroke-width=".8" xlink:href="#c"/>
  <text x="51" y="242" fill="#555" font-family="DejaVu Sans" font-size="10px" text-anchor="end">14000</text>
  <path d="m58 205h357" clip-path="url(#a)" fill="none" stroke="#fff" stroke-linecap="square" stroke-width=".8"/>
  <use x="58" y="205" fill="#555" stroke="#555" stroke-width=".8" xlink:href="#c"/>
  <text x="51" y="209" fill="#555" font-family="DejaVu Sans" font-size="10px" text-anchor="end">16000</text>
  <path d="m58 172h357" clip-path="url(#a)" fill="none" stroke="#fff" stroke-linecap="square" stroke-width=".8"/>
  <use x="58" y="172" fill="#555" stroke="#555" stroke-width=".8" xlink:href="#c"/>
  <text x="51" y="176" fill="#555" font-family="DejaVu Sans" font-size="10px" text-anchor="end">18000</text>
  <path d="m58 139h357" clip-path="url(#a)" fill="none" stroke="#fff" stroke-linecap="square" stroke-width=".8"/>
  <use x="58" y="139" fill="#555" stroke="#555" stroke-width=".8" xlink:href="#c"/>
  <text x="51" y="143" fill="#555" font-family="DejaVu Sans" font-size="10px" text-anchor="end">20000</text>
  <path d="m58 106h357" clip-path="url(#a)" fill="none" stroke="#fff" stroke-linecap="square" stroke-width=".8"/>
  <use x="58" y="106" fill="#555" stroke="#555" stroke-width=".8" xlink:href="#c"/>
  <text x="51" y="110" fill="#555" font-family="DejaVu Sans" font-size="10px" text-anchor="end">22000</text>
  <path d="m58 73h357" clip-path="url(#a)" fill="none" stroke="#fff" stroke-linecap="square" stroke-width=".8"/>
  <use x="58" y="73" fill="#555" stroke="#555" stroke-width=".8" xlink:href="#c"/>
  <text x="51" y="77" fill="#555" font-family="DejaVu Sans" font-size="10px" text-anchor="end">24000</text>
  <text transform="rotate(-90 12 175)" x="12.291875" y="174.528" fill="#555" font-family="DejaVu Sans" font-size="12px" text-anchor="middle">New Zealand</text>
  <g clip-path="url(#a)" fill="#348abd" stroke="#348abd" stroke-width=".5">
    <use x="74" y="295" xlink:href="#b"/>
    <use x="86" y="268" xlink:href="#b"/>
    <use x="103" y="252" xlink:href="#b"/>
    <use x="134" y="231" xlink:href="#b"/>
    <use x="164" y="205" xlink:href="#b"/>
    <use x="184" y="202" xlink:href="#b"/>
    <use x="199" y="178" xlink:href="#b"/>
    <use x="232" y="156" xlink:href="#b"/>
    <use x="252" y="166" xlink:href="#b"/>
    <use x="300" y="122" xlink:href="#b"/>
    <use x="349" y="87" xlink:href="#b"/>
    <use x="398" y="54" xlink:href="#b"/>
  </g>
  <path d="m58 308v-266" fill="none" stroke="#fff" stroke-linecap="square"/>
  <path d="m415 308v-266" fill="none" stroke="#fff" stroke-linecap="square"/>
  <path d="m58 308h357" fill="none" stroke="#fff" stroke-linecap="square"/>
  <path d="m58 41h357" fill="none" stroke="#fff" stroke-linecap="square"/>
</svg>
