<?xml version="1.0" encoding="UTF-8"?>
<!DOCTYPE svg  PUBLIC '-//W3C//DTD SVG 1.1//EN'  'http://www.w3.org/Graphics/SVG/1.1/DTD/svg11.dtd'>
<svg width="461pt" height="346pt" version="1.1" viewBox="0 0 461 346" xmlns="http://www.w3.org/2000/svg" xmlns:xlink="http://www.w3.org/1999/xlink">
  <path d="m0 346h461v-346h-461z" fill="#fff"/>
  <path d="m58 308h357v-266h-357z" fill="#fff"/>
  <defs>
    <path id="b" d="m0 0v4" stroke="#000"/>
    <path id="a" d="m0 0h-4" stroke="#000"/>
    <clipPath id="c">
      <rect x="58" y="41" width="357" height="266"/>
    </clipPath>
  </defs>
  <use x="62" y="308" stroke="#000" xlink:href="#b"/>
  <text x="62" y="322" font-size="10px" text-anchor="middle">1950</text>
  <use x="121" y="308" stroke="#000" xlink:href="#b"/>
  <text x="121" y="322" font-size="10px" text-anchor="middle">1960</text>
  <use x="180" y="308" stroke="#000" xlink:href="#b"/>
  <text x="180" y="322" font-size="10px" text-anchor="middle">1970</text>
  <use x="239" y="308" stroke="#000" xlink:href="#b"/>
  <text x="239" y="322" font-size="10px" text-anchor="middle">1980</text>
  <use x="298" y="308" stroke="#000" xlink:href="#b"/>
  <text x="298" y="322" font-size="10px" text-anchor="middle">1990</text>
  <use x="357" y="308" stroke="#000" xlink:href="#b"/>
  <text x="357" y="322" font-size="10px" text-anchor="middle">2000</text>
  <use x="58" y="296" stroke="#000" xlink:href="#a"/>
  <text x="51" y="300" font-size="10px" text-anchor="end">10000</text>
  <use x="58" y="246" stroke="#000" xlink:href="#a"/>
  <text x="51" y="250" font-size="10px" text-anchor="end">15000</text>
  <use x="58" y="197" stroke="#000" xlink:href="#a"/>
  <text x="51" y="201" font-size="10px" text-anchor="end">20000</text>
  <use x="58" y="147" stroke="#000" xlink:href="#a"/>
  <text x="51" y="151" font-size="10px" text-anchor="end">25000</text>
  <use x="58" y="98" stroke="#000" xlink:href="#a"/>
  <text x="51" y="101" font-size="10px" text-anchor="end">30000</text>
  <use x="58" y="48" stroke="#000" xlink:href="#a"/>
  <text x="51" y="52" font-size="10px" text-anchor="end">35000</text>
  <text transform="rotate(-90 13 175)" x="13" y="175" font-size="10px" text-anchor="middle">GDP per capita</text>
  <path d="m74 295 148-82 59-35 30-15 89-109" clip-path="url(#c)" fill="none" stroke="#1f77b4" stroke-linecap="square" stroke-width="2"/>
  <path d="m74 290 30-17 89-38 89-29 30 6 30-27 59-41" clip-path="url(#c)" fill="none" stroke="#ff7f0e" stroke-linecap="square" stroke-width="2"/>
  <path d="m58 308v-266" fill="none" stroke="#000" stroke-linecap="square"/>
  <path d="m415 308v-266" fill="none" stroke="#000" stroke-linecap="square"/>
  <path d="m58 308h357" fill="none" stroke="#000" stroke-linecap="square"/>
  <path d="m58 41h357" fill="none" stroke="#000" stroke-linecap="square"/>
  <path d="m65 94h98q2 0 2-2v-43q0-2-2-2h-98q-2 0-2 2v43q0 2 2 2z" fill="#fff" opacity=".8" stroke="#cccccc"/>
  <text x="94" y="58" font-size="10px">country</text>
  <path d="m67 69h20" fill="none" stroke="#1f77b4" stroke-linecap="square" stroke-width="2"/>
  <text x="95" y="73" font-size="10px">Australia</text>
  <path d="m67 84h20" fill="none" stroke="#ff7f0e" stroke-linecap="square" stroke-width="2"/>
  <text x="95" y="87" font-size="10px">New Zealand</text>
</svg>
