<?xml version="1.0" encoding="UTF-8"?>
<!DOCTYPE svg  PUBLIC '-//W3C//DTD SVG 1.1//EN'  'http://www.w3.org/Graphics/SVG/1.1/DTD/svg11.dtd'>
<svg width="461pt" height="346pt" version="1.1" viewBox="0 0 461 346" xmlns="http://www.w3.org/2000/svg" xmlns:xlink="http://www.w3.org/1999/xlink">
  <path d="m0 346h461v-346h-461z" fill="#ffffff"/>
  <path d="m58 308h357v-266h-357z" fill="#e5e5e5"/>
  <path d="m72 308v-266" clip-path="url(#a)" fill="none" stroke="#ffffff" stroke-linecap="square" stroke-width=".8"/>
  <defs>
    <path id="b" d="m0 0v4" stroke="#555555" stroke-width=".8"/>
    <path id="c" d="m0 0h-4" stroke="#555555" stroke-width=".8"/>
    <clipPath id="a">
      <rect x="58" y="41" width="357" height="266"/>
    </clipPath>
  </defs>
  <use x="72.48" y="307.584" fill="#555555" stroke="#555555" stroke-width=".8" xlink:href="#b"/>
  <text transform="translate(75 340) rotate(-90)" fill="#555555" font-family="DejaVu Sans" font-size="10px">1952</text>
  <path d="m102 308v-266" clip-path="url(#a)" fill="none" stroke="#ffffff" stroke-linecap="square" stroke-width=".8"/>
  <use x="102.24" y="307.584" fill="#555555" stroke="#555555" stroke-width=".8" xlink:href="#b"/>
  <text transform="translate(105 340) rotate(-90)" fill="#555555" font-family="DejaVu Sans" font-size="10px">1957</text>
  <path d="m132 308v-266" clip-path="url(#a)" fill="none" stroke="#ffffff" stroke-linecap="square" stroke-width=".8"/>
  <use x="132" y="307.584" fill="#555555" stroke="#555555" stroke-width=".8" xlink:href="#b"/>
  <text transform="translate(135 340) rotate(-90)" fill="#555555" font-family="DejaVu Sans" font-size="10px">1962</text>
  <path d="m162 308v-266" clip-path="url(#a)" fill="none" stroke="#ffffff" stroke-linecap="square" stroke-width=".8"/>
  <use x="161.76" y="307.584" fill="#555555" stroke="#555555" stroke-width=".8" xlink:href="#b"/>
  <text transform="translate(165 340) rotate(-90)" fill="#555555" font-family="DejaVu Sans" font-size="10px">1967</text>
  <path d="m192 308v-266" clip-path="url(#a)" fill="none" stroke="#ffffff" stroke-linecap="square" stroke-width=".8"/>
  <use x="191.52" y="307.584" fill="#555555" stroke="#555555" stroke-width=".8" xlink:href="#b"/>
  <text transform="translate(194 340) rotate(-90)" fill="#555555" font-family="DejaVu Sans" font-size="10px">1972</text>
  <path d="m221 308v-266" clip-path="url(#a)" fill="none" stroke="#ffffff" stroke-linecap="square" stroke-width=".8"/>
  <use x="221.28" y="307.584" fill="#555555" stroke="#555555" stroke-width=".8" xlink:href="#b"/>
  <text transform="translate(224 340) rotate(-90)" fill="#555555" font-family="DejaVu Sans" font-size="10px">1977</text>
  <path d="m251 308v-266" clip-path="url(#a)" fill="none" stroke="#ffffff" stroke-linecap="square" stroke-width=".8"/>
  <use x="251.04" y="307.584" fill="#555555" stroke="#555555" stroke-width=".8" xlink:href="#b"/>
  <text transform="translate(254 340) rotate(-90)" fill="#555555" font-family="DejaVu Sans" font-size="10px">1982</text>
  <path d="m281 308v-266" clip-path="url(#a)" fill="none" stroke="#ffffff" stroke-linecap="square" stroke-width=".8"/>
  <use x="280.8" y="307.584" fill="#555555" stroke="#555555" stroke-width=".8" xlink:href="#b"/>
  <text transform="translate(284 340) rotate(-90)" fill="#555555" font-family="DejaVu Sans" font-size="10px">1987</text>
  <path d="m311 308v-266" clip-path="url(#a)" fill="none" stroke="#ffffff" stroke-linecap="square" stroke-width=".8"/>
  <use x="310.56" y="307.584" fill="#555555" stroke="#555555" stroke-width=".8" xlink:href="#b"/>
  <text transform="translate(313 340) rotate(-90)" fill="#555555" font-family="DejaVu Sans" font-size="10px">1992</text>
  <path d="m340 308v-266" clip-path="url(#a)" fill="none" stroke="#ffffff" stroke-linecap="square" stroke-width=".8"/>
  <use x="340.32" y="307.584" fill="#555555" stroke="#555555" stroke-width=".8" xlink:href="#b"/>
  <text transform="translate(343 340) rotate(-90)" fill="#555555" font-family="DejaVu Sans" font-size="10px">1997</text>
  <path d="m370 308v-266" clip-path="url(#a)" fill="none" stroke="#ffffff" stroke-linecap="square" stroke-width=".8"/>
  <use x="370.08" y="307.584" fill="#555555" stroke="#555555" stroke-width=".8" xlink:href="#b"/>
  <text transform="translate(373 340) rotate(-90)" fill="#555555" font-family="DejaVu Sans" font-size="10px">2002</text>
  <path d="m400 308v-266" clip-path="url(#a)" fill="none" stroke="#ffffff" stroke-linecap="square" stroke-width=".8"/>
  <use x="399.84" y="307.584" fill="#555555" stroke="#555555" stroke-width=".8" xlink:href="#b"/>
  <text transform="translate(403 340) rotate(-90)" fill="#555555" font-family="DejaVu Sans" font-size="10px">2007</text>
  <path d="m58 308h357" clip-path="url(#a)" fill="none" stroke="#ffffff" stroke-linecap="square" stroke-width=".8"/>
  <use x="57.6" y="307.584" fill="#555555" stroke="#555555" stroke-width=".8" xlink:href="#c"/>
  <text transform="rotate(-0 51 311)" x="50.6" y="311.383219" fill="#555555" font-family="DejaVu Sans" font-size="10px" text-anchor="end">0</text>
  <path d="m58 271h357" clip-path="url(#a)" fill="none" stroke="#ffffff" stroke-linecap="square" stroke-width=".8"/>
  <use x="57.6" y="270.784625" fill="#555555" stroke="#555555" stroke-width=".8" xlink:href="#c"/>
  <text transform="rotate(-0 51 275)" x="50.6" y="274.583844" fill="#555555" font-family="DejaVu Sans" font-size="10px" text-anchor="end">5000</text>
  <path d="m58 234h357" clip-path="url(#a)" fill="none" stroke="#ffffff" stroke-linecap="square" stroke-width=".8"/>
  <use x="57.6" y="233.98525" fill="#555555" stroke="#555555" stroke-width=".8" xlink:href="#c"/>
  <text transform="rotate(-0 51 238)" x="50.6" y="237.784469" fill="#555555" font-family="DejaVu Sans" font-size="10px" text-anchor="end">10000</text>
  <path d="m58 197h357" clip-path="url(#a)" fill="none" stroke="#ffffff" stroke-linecap="square" stroke-width=".8"/>
  <use x="57.6" y="197.185875" fill="#555555" stroke="#555555" stroke-width=".8" xlink:href="#c"/>
  <text transform="rotate(-0 51 201)" x="50.6" y="200.985094" fill="#555555" font-family="DejaVu Sans" font-size="10px" text-anchor="end">15000</text>
  <path d="m58 160h357" clip-path="url(#a)" fill="none" stroke="#ffffff" stroke-linecap="square" stroke-width=".8"/>
  <use x="57.6" y="160.3865" fill="#555555" stroke="#555555" stroke-width=".8" xlink:href="#c"/>
  <text transform="rotate(-0 51 164)" x="50.6" y="164.185719" fill="#555555" font-family="DejaVu Sans" font-size="10px" text-anchor="end">20000</text>
  <path d="m58 124h357" clip-path="url(#a)" fill="none" stroke="#ffffff" stroke-linecap="square" stroke-width=".8"/>
  <use x="57.6" y="123.587125" fill="#555555" stroke="#555555" stroke-width=".8" xlink:href="#c"/>
  <text transform="rotate(-0 51 127)" x="50.6" y="127.386344" fill="#555555" font-family="DejaVu Sans" font-size="10px" text-anchor="end">25000</text>
  <path d="m58 87h357" clip-path="url(#a)" fill="none" stroke="#ffffff" stroke-linecap="square" stroke-width=".8"/>
  <use x="57.6" y="86.78775" fill="#555555" stroke="#555555" stroke-width=".8" xlink:href="#c"/>
  <text transform="rotate(-0 51 91)" x="50.6" y="90.586969" fill="#555555" font-family="DejaVu Sans" font-size="10px" text-anchor="end">30000</text>
  <path d="m58 50h357" clip-path="url(#a)" fill="none" stroke="#ffffff" stroke-linecap="square" stroke-width=".8"/>
  <use x="57.6" y="49.988375" fill="#555555" stroke="#555555" stroke-width=".8" xlink:href="#c"/>
  <text transform="rotate(-0 51 54)" x="50.6" y="53.787594" fill="#555555" font-family="DejaVu Sans" font-size="10px" text-anchor="end">35000</text>
  <text transform="rotate(-90 12 175)" x="12.291875" y="174.528" fill="#555555" font-family="DejaVu Sans" font-size="12px" text-anchor="middle">GDP per capita</text>
  <path d="m65 308h7v-74h-7z" clip-path="url(#a)" fill="#e24a33"/>
  <path d="m95 308h7v-81h-7z" clip-path="url(#a)" fill="#e24a33"/>
  <path d="m125 308h7v-90h-7z" clip-path="url(#a)" fill="#e24a33"/>
  <path d="m154 308h7v-107h-7z" clip-path="url(#a)" fill="#e24a33"/>
  <path d="m184 308h7v-124h-7z" clip-path="url(#a)" fill="#e24a33"/>
  <path d="m214 308h7v-135h-7z" clip-path="url(#a)" fill="#e24a33"/>
  <path d="m244 308h7v-143h-7z" clip-path="url(#a)" fill="#e24a33"/>
  <path d="m273 308h7v-161h-7z" clip-path="url(#a)" fill="#e24a33"/>
  <path d="m303 308h7v-172h-7z" clip-path="url(#a)" fill="#e24a33"/>
  <path d="m333 308h7v-199h-7z" clip-path="url(#a)" fill="#e24a33"/>
  <path d="m363 308h7v-226h-7z" clip-path="url(#a)" fill="#e24a33"/>
  <path d="m392 308h7v-253h-7z" clip-path="url(#a)" fill="#e24a33"/>
  <path d="m72 308h7v-78h-7z" clip-path="url(#a)" fill="#348abd"/>
  <path d="m102 308h7v-90h-7z" clip-path="url(#a)" fill="#348abd"/>
  <path d="m132 308h7v-97h-7z" clip-path="url(#a)" fill="#348abd"/>
  <path d="m162 308h7v-106h-7z" clip-path="url(#a)" fill="#348abd"/>
  <path d="m192 308h7v-118h-7z" clip-path="url(#a)" fill="#348abd"/>
  <path d="m221 308h7v-119h-7z" clip-path="url(#a)" fill="#348abd"/>
  <path d="m251 308h7v-130h-7z" clip-path="url(#a)" fill="#348abd"/>
  <path d="m281 308h7v-140h-7z" clip-path="url(#a)" fill="#348abd"/>
  <path d="m311 308h7v-135h-7z" clip-path="url(#a)" fill="#348abd"/>
  <path d="m340 308h7v-155h-7z" clip-path="url(#a)" fill="#348abd"/>
  <path d="m370 308h7v-171h-7z" clip-path="url(#a)" fill="#348abd"/>
  <path d="m400 308h7v-185h-7z" clip-path="url(#a)" fill="#348abd"/>
  <path d="m58 308v-266" fill="none" stroke="#ffffff" stroke-linecap="square"/>
  <path d="m415 308v-266" fill="none" stroke="#ffffff" stroke-linecap="square"/>
  <path d="m58 308h357" fill="none" stroke="#ffffff" stroke-linecap="square"/>
  <path d="m58 41h357" fill="none" stroke="#ffffff" stroke-linecap="square"/>
  <path d="m65 94h98q2 0 2-2v-43q0-2-2-2h-98q-2 0-2 2v43q0 2 2 2z" fill="#e5e5e5" opacity=".8" stroke="#cccccc" stroke-width=".5"/>
  <text transform="rotate(-0 94 58)" x="94.335938" y="58.070438" font-family="DejaVu Sans" font-size="10px">country</text>
  <path d="m67 73h20v-7h-20z" fill="#e24a33"/>
  <text transform="rotate(-0 95 73)" x="94.6" y="72.748563" font-family="DejaVu Sans" font-size="10px">Australia</text>
  <path d="m67 87h20v-7h-20z" fill="#348abd"/>
  <text transform="rotate(-0 95 87)" x="94.6" y="87.426688" font-family="DejaVu Sans" font-size="10px">New Zealand</text>
</svg>
