<?xml version="1.0" encoding="UTF-8"?>
<!DOCTYPE svg  PUBLIC '-//W3C//DTD SVG 1.1//EN'  'http://www.w3.org/Graphics/SVG/1.1/DTD/svg11.dtd'>
<svg width="461pt" height="346pt" version="1.1" viewBox="0 0 461 346" xmlns="http://www.w3.org/2000/svg" xmlns:xlink="http://www.w3.org/1999/xlink">
  <path d="m0 346h461v-346h-461z" fill="#fff"/>
  <path d="m58 308h357v-266h-357z" fill="#fff"/>
  <g fill="#1f77b4" stroke="#1f77b4">
    <path d="m113 114c0.8 0 1-0.3 2-0.8 0.5-0.5 0.8-1 0.8-2 0-0.8-0.3-1-0.8-2-0.5-0.5-1-0.8-2-0.8s-1 0.3-2 0.8c-0.5 0.5-0.8 1-0.8 2 0 0.8 0.3 1 0.8 2 0.5 0.5 1 0.8 2 0.8z"/>
    <path d="m104 280c0.5 0 0.9-0.2 1-0.5 0.3-0.3 0.5-0.8 0.5-1s-0.2-0.9-0.5-1c-0.3-0.3-0.8-0.5-1-0.5-0.5 0-0.9 0.2-1 0.5-0.3 0.3-0.5 0.8-0.5 1s0.2 0.9 0.5 1c0.3 0.3 0.8 0.5 1 0.5z"/>
    <path d="m82 201c0.4 0 0.7-0.1 1-0.4s0.4-0.6 0.4-1-0.1-0.7-0.4-1-0.6-0.4-1-0.4-0.7 0.1-1 0.4-0.4 0.6-0.4 1 0.1 0.7 0.4 1 0.6 0.4 1 0.4z"/>
    <path d="m155 234c0.2 0 0.3-0.07 0.5-0.2s0.2-0.3 0.2-0.5-0.07-0.3-0.2-0.5-0.3-0.2-0.5-0.2-0.3 0.07-0.5 0.2-0.2 0.3-0.2 0.5 0.07 0.3 0.2 0.5 0.3 0.2 0.5 0.2z"/>
    <path d="m80 226c0.5 0 1-0.2 1-0.6 0.4-0.4 0.6-0.8 0.6-1 0-0.5-0.2-1-0.6-1-0.4-0.4-0.8-0.6-1-0.6-0.5 0-1 0.2-1 0.6-0.4 0.4-0.6 0.8-0.6 1 0 0.5 0.2 1 0.6 1 0.4 0.4 0.8 0.6 1 0.6z"/>
    <path d="m75 241c0.4 0 0.8-0.2 1-0.4 0.3-0.3 0.4-0.6 0.4-1s-0.2-0.8-0.4-1-0.6-0.4-1-0.4-0.8 0.2-1 0.4c-0.3 0.3-0.4 0.6-0.4 1s0.2 0.8 0.4 1c0.3 0.3 0.6 0.4 1 0.4z"/>
    <path d="m86 237c0.6 0 1-0.2 1-0.6 0.4-0.4 0.6-0.9 0.6-1 0-0.6-0.2-1-0.6-1-0.4-0.4-0.9-0.6-1-0.6-0.6 0-1 0.2-1 0.6s-0.6 0.9-0.6 1c0 0.6 0.2 1 0.6 1 0.4 0.4 0.9 0.6 1 0.6z"/>
    <path d="m77 268c0.3 0 0.5-0.1 0.7-0.3s0.3-0.5 0.3-0.7-0.1-0.5-0.3-0.7-0.5-0.3-0.7-0.3-0.5 0.1-0.7 0.3-0.3 0.5-0.3 0.7 0.1 0.5 0.3 0.7 0.5 0.3 0.7 0.3z"/>
    <path d="m83 235c0.4 0 0.8-0.2 1-0.5 0.3-0.3 0.5-0.7 0.5-1 0-0.4-0.2-0.8-0.5-1-0.3-0.3-0.7-0.5-1-0.5s-0.8 0.2-1 0.5c-0.3 0.3-0.5 0.7-0.5 1 0 0.4 0.2 0.8 0.5 1 0.3 0.3 0.7 0.5 1 0.5z"/>
    <path d="m79 152c0.1 0 0.2-0.04 0.3-0.1 0.08-0.08 0.1-0.2 0.1-0.3s-0.04-0.2-0.1-0.3c-0.08-0.08-0.2-0.1-0.3-0.1s-0.2 0.04-0.3 0.1-0.1 0.2-0.1 0.3 0.04 0.2 0.1 0.3 0.2 0.1 0.3 0.1z"/>
    <path d="m74 261c1 0 2-0.4 3-1s1-2 1-3-0.4-2-1-3-2-1-3-1-2 0.4-3 1-1 2-1 3 0.4 2 1 3 2 1 3 1z"/>
    <path d="m96 208c0.3 0 0.5-0.1 0.7-0.3s0.3-0.4 0.3-0.7-0.1-0.5-0.3-0.7-0.4-0.3-0.7-0.3-0.5 0.1-0.7 0.3-0.3 0.4-0.3 0.7 0.1 0.5 0.3 0.7 0.4 0.3 0.7 0.3z"/>
    <path d="m82 249c0.6 0 1-0.2 2-0.6 0.4-0.4 0.6-0.9 0.6-2 0-0.6-0.2-1-0.6-2-0.4-0.4-0.9-0.6-2-0.6s-1 0.2-2 0.6c-0.4 0.4-0.6 0.9-0.6 2 0 0.6 0.2 1 0.6 2 0.4 0.4 0.9 0.6 2 0.6z"/>
    <path d="m86 210c0.09 0 0.2-0.04 0.2-0.1s0.1-0.2 0.1-0.2-0.04-0.2-0.1-0.2-0.2-0.1-0.2-0.1-0.2 0.04-0.2 0.1c-0.07 0.07-0.1 0.2-0.1 0.2s0.04 0.2 0.1 0.2c0.07 0.07 0.2 0.1 0.2 0.1z"/>
    <path d="m109 122c1 0 2-0.5 3-1 0.8-0.8 1-2 1-3s-0.5-2-1-3c-0.8-0.8-2-1-3-1s-2 0.5-3 1c-0.8 0.8-1 2-1 3s0.5 2 1 3c0.8 0.8 2 1 3 1z"/>
    <path d="m152 229c0.1 0 0.2-0.04 0.3-0.1 0.07-0.07 0.1-0.2 0.1-0.3s-0.04-0.2-0.1-0.3c-0.07-0.07-0.2-0.1-0.3-0.1s-0.2 0.04-0.3 0.1-0.1 0.2-0.1 0.3 0.04 0.2 0.1 0.3c0.07 0.07 0.2 0.1 0.3 0.1z"/>
    <path d="m76 193c0.3 0 0.6-0.1 0.8-0.3s0.3-0.5 0.3-0.8-0.1-0.6-0.3-0.8-0.5-0.3-0.8-0.3-0.6 0.1-0.8 0.3-0.3 0.5-0.3 0.8 0.1 0.6 0.3 0.8 0.5 0.3 0.8 0.3z"/>
    <path d="m77 225c1 0 2-0.5 3-1s1-2 1-3-0.5-2-1-3-2-1-3-1-2 0.5-3 1-1 2-1 3 0.5 2 1 3 2 1 3 1z"/>
    <path d="m159 200c0.2 0 0.3-0.06 0.4-0.2 0.1-0.1 0.2-0.3 0.2-0.4s-0.06-0.3-0.2-0.4c-0.1-0.1-0.3-0.2-0.4-0.2-0.2 0-0.3 0.06-0.4 0.2-0.1 0.1-0.2 0.3-0.2 0.4s0.06 0.3 0.2 0.4c0.1 0.1 0.3 0.2 0.4 0.2z"/>
    <path d="m77 185c0.2 0 0.3-0.07 0.5-0.2 0.1-0.1 0.2-0.3 0.2-0.5s-0.07-0.3-0.2-0.5-0.3-0.2-0.5-0.2-0.3 0.07-0.5 0.2c-0.1 0.1-0.2 0.3-0.2 0.5s0.07 0.3 0.2 0.5c0.1 0.1 0.3 0.2 0.5 0.2z"/>
    <path d="m81 183c0.6 0 1-0.3 2-0.7s0.7-1 0.7-2c0-0.6-0.3-1-0.7-2-0.4-0.4-1-0.7-2-0.7-0.6 0-1 0.3-2 0.7-0.4 0.4-0.7 1-0.7 2 0 0.6 0.3 1 0.7 2s1 0.7 2 0.7z"/>
    <path d="m78 205c0.4 0 0.8-0.2 1-0.5 0.3-0.3 0.5-0.7 0.5-1 0-0.4-0.2-0.8-0.5-1-0.3-0.3-0.7-0.5-1-0.5-0.4 0-0.8 0.2-1 0.5-0.3 0.3-0.5 0.7-0.5 1 0 0.4 0.2 0.8 0.5 1 0.3 0.3 0.7 0.5 1 0.5z"/>
    <path d="m76 258c0.2 0 0.3-0.06 0.4-0.2s0.2-0.3 0.2-0.4c0-0.2-0.06-0.3-0.2-0.4-0.1-0.1-0.3-0.2-0.4-0.2-0.2 0-0.3 0.06-0.4 0.2-0.1 0.1-0.2 0.3-0.2 0.4 0 0.2 0.06 0.3 0.2 0.4s0.3 0.2 0.4 0.2z"/>
    <path d="m82 217c0.8 0 2-0.3 2-0.9 0.6-0.6 0.9-1 0.9-2s-0.3-2-0.9-2c-0.6-0.6-1-0.9-2-0.9s-2 0.3-2 0.9c-0.6 0.6-0.9 1-0.9 2s0.3 2 0.9 2c0.6 0.6 1 0.9 2 0.9z"/>
    <path d="m82 279c0.2 0 0.4-0.07 0.5-0.2 0.1-0.1 0.2-0.3 0.2-0.5s-0.07-0.4-0.2-0.5c-0.1-0.1-0.3-0.2-0.5-0.2s-0.4 0.07-0.5 0.2-0.2 0.3-0.2 0.5 0.07 0.4 0.2 0.5 0.3 0.2 0.5 0.2z"/>
    <path d="m75 262c0.2 0 0.5-0.09 0.6-0.3 0.2-0.2 0.3-0.4 0.3-0.6s-0.09-0.5-0.3-0.6c-0.2-0.2-0.4-0.3-0.6-0.3s-0.5 0.09-0.6 0.3c-0.2 0.2-0.3 0.4-0.3 0.6s0.09 0.5 0.3 0.6c0.2 0.2 0.4 0.3 0.6 0.3z"/>
    <path d="m152 104c0.3 0 0.6-0.1 0.9-0.4s0.4-0.5 0.4-0.9c0-0.3-0.1-0.6-0.4-0.9s-0.5-0.4-0.9-0.4-0.6 0.1-0.9 0.4-0.4 0.5-0.4 0.9c0 0.3 0.1 0.6 0.4 0.9s0.5 0.4 0.9 0.4z"/>
    <path d="m79 186c0.6 0 1-0.2 2-0.6s0.6-1 0.6-2-0.2-1-0.6-2c-0.4-0.4-1-0.6-2-0.6s-1 0.2-2 0.6c-0.4 0.4-0.6 1-0.6 2s0.2 1 0.6 2c0.4 0.4 1 0.6 2 0.6z"/>
    <path d="m77 248c0.5 0 0.9-0.2 1-0.5 0.3-0.3 0.5-0.8 0.5-1 0-0.5-0.2-0.9-0.5-1-0.3-0.3-0.8-0.5-1-0.5s-0.9 0.2-1 0.5c-0.3 0.3-0.5 0.8-0.5 1 0 0.5 0.2 0.9 0.5 1 0.3 0.3 0.8 0.5 1 0.5z"/>
    <path d="m79 214c0.5 0 0.9-0.2 1-0.5 0.3-0.3 0.5-0.8 0.5-1 0-0.5-0.2-0.9-0.5-1-0.3-0.3-0.8-0.5-1-0.5s-0.9 0.2-1 0.5-0.5 0.8-0.5 1c0 0.5 0.2 0.9 0.5 1 0.3 0.3 0.8 0.5 1 0.5z"/>
    <path d="m84 158c0.2 0 0.5-0.1 0.6-0.3 0.2-0.2 0.3-0.4 0.3-0.6s-0.1-0.5-0.3-0.6c-0.2-0.2-0.4-0.3-0.6-0.3s-0.5 0.1-0.6 0.3c-0.2 0.2-0.3 0.4-0.3 0.6s0.1 0.5 0.3 0.6c0.2 0.2 0.4 0.3 0.6 0.3z"/>
    <path d="m144 109c0.1 0 0.3-0.06 0.4-0.2 0.1-0.1 0.2-0.2 0.2-0.4 0-0.1-0.06-0.3-0.2-0.4-0.1-0.1-0.2-0.2-0.4-0.2-0.1 0-0.3 0.06-0.4 0.2-0.1 0.1-0.2 0.2-0.2 0.4 0 0.1 0.06 0.3 0.2 0.4 0.1 0.1 0.2 0.2 0.4 0.2z"/>
    <path d="m97 121c0.8 0 2-0.3 2-0.9 0.5-0.5 0.9-1 0.9-2s-0.3-2-0.9-2c-0.5-0.5-1-0.9-2-0.9-0.8 0-2 0.3-2 0.9-0.5 0.5-0.9 1-0.9 2s0.3 2 0.9 2c0.5 0.5 1 0.9 2 0.9z"/>
    <path d="m77 284c0.6 0 1-0.2 2-0.7s0.7-1 0.7-2-0.2-1-0.7-2c-0.4-0.4-1-0.7-2-0.7s-1 0.2-2 0.7c-0.4 0.4-0.7 1-0.7 2s0.2 1 0.7 2c0.4 0.4 1 0.7 2 0.7z"/>
    <path d="m104 221c0.2 0 0.4-0.08 0.5-0.2s0.2-0.3 0.2-0.5-0.08-0.4-0.2-0.5-0.3-0.2-0.5-0.2-0.4 0.08-0.5 0.2-0.2 0.3-0.2 0.5 0.08 0.4 0.2 0.5 0.3 0.2 0.5 0.2z"/>
    <path d="m76 200c0.5 0 0.9-0.2 1-0.5 0.3-0.3 0.5-0.8 0.5-1 0-0.5-0.2-0.9-0.5-1-0.3-0.3-0.8-0.5-1-0.5-0.5 0-0.9 0.2-1 0.5s-0.5 0.8-0.5 1c0 0.5 0.2 0.9 0.5 1s0.8 0.5 1 0.5z"/>
    <path d="m85 261c2 0 3-0.6 4-2 1-1 2-3 2-4 0-2-0.6-3-2-4-1-1-3-2-4-2-2 0-3 0.6-4 2-1 1-2 3-2 4 0 2 0.6 3 2 4 1 1 3 2 4 2z"/>
    <path d="m123 89c0.1 0 0.2-0.05 0.3-0.1 0.08-0.08 0.1-0.2 0.1-0.3s-0.05-0.2-0.1-0.3c-0.08-0.08-0.2-0.1-0.3-0.1s-0.2 0.05-0.3 0.1c-0.08 0.08-0.1 0.2-0.1 0.3s0.05 0.2 0.1 0.3c0.08 0.08 0.2 0.1 0.3 0.1z"/>
    <path d="m78 260c0.4 0 0.8-0.2 1-0.4 0.3-0.3 0.4-0.7 0.4-1 0-0.4-0.2-0.8-0.4-1s-0.7-0.4-1-0.4-0.8 0.2-1 0.4-0.4 0.7-0.4 1c0 0.4 0.2 0.8 0.4 1 0.3 0.3 0.7 0.4 1 0.4z"/>
    <path d="m83 150c0.06 0 0.1-0.02 0.2-0.07 0.04-0.04 0.07-0.1 0.07-0.2s-0.02-0.1-0.07-0.2c-0.04-0.04-0.1-0.07-0.2-0.07s-0.1 0.02-0.2 0.07-0.07 0.1-0.07 0.2 0.02 0.1 0.07 0.2c0.04 0.04 0.1 0.07 0.2 0.07z"/>
    <path d="m83 165c0.5 0 0.9-0.2 1-0.5 0.3-0.3 0.5-0.8 0.5-1s-0.2-0.9-0.5-1c-0.3-0.3-0.8-0.5-1-0.5-0.5 0-0.9 0.2-1 0.5s-0.5 0.8-0.5 1 0.2 0.9 0.5 1 0.8 0.5 1 0.5z"/>
    <path d="m78 280c0.3 0 0.6-0.1 0.9-0.4s0.4-0.5 0.4-0.9c0-0.3-0.1-0.6-0.4-0.9s-0.5-0.4-0.9-0.4-0.6 0.1-0.9 0.4-0.4 0.5-0.4 0.9c0 0.3 0.1 0.6 0.4 0.9s0.5 0.4 0.9 0.4z"/>
    <path d="m78 249c0.4 0 0.8-0.2 1-0.4 0.3-0.3 0.4-0.7 0.4-1s-0.2-0.8-0.4-1c-0.3-0.3-0.7-0.4-1-0.4s-0.8 0.2-1 0.4c-0.3 0.3-0.4 0.7-0.4 1s0.2 0.8 0.4 1c0.3 0.3 0.7 0.4 1 0.4z"/>
    <path d="m133 244c0.9 0 2-0.3 2-1s1-1 1-2c0-0.9-0.3-2-1-2s-1-1-2-1c-0.9 0-2 0.3-2 1s-1 1-1 2c0 0.9 0.3 2 1 2s1 1 2 1z"/>
    <path d="m89 192c0.9 0 2-0.3 2-1s1-1 1-2-0.3-2-1-2-1-1-2-1-2 0.3-2 1-1 1-1 2 0.3 2 1 2 1 1 2 1z"/>
    <path d="m102 296c0.1 0 0.3-0.06 0.4-0.2s0.2-0.2 0.2-0.4c0-0.1-0.06-0.3-0.2-0.4s-0.2-0.2-0.4-0.2c-0.1 0-0.3 0.06-0.4 0.2s-0.2 0.2-0.2 0.4c0 0.1 0.06 0.3 0.2 0.4s0.2 0.2 0.4 0.2z"/>
    <path d="m79 226c0.8 0 2-0.3 2-0.9 0.6-0.6 0.9-1 0.9-2 0-0.8-0.3-2-0.9-2s-1-0.9-2-0.9-2 0.3-2 0.9-0.9 1-0.9 2c0 0.8 0.3 2 0.9 2 0.6 0.6 1 0.9 2 0.9z"/>
    <path d="m78 191c0.3 0 0.6-0.1 0.8-0.3s0.3-0.5 0.3-0.8-0.1-0.6-0.3-0.8-0.5-0.3-0.8-0.3-0.6 0.1-0.8 0.3-0.3 0.5-0.3 0.8 0.1 0.6 0.3 0.8 0.5 0.3 0.8 0.3z"/>
    <path d="m119 104c0.4 0 0.8-0.2 1-0.5s0.5-0.7 0.5-1c0-0.4-0.2-0.8-0.5-1s-0.7-0.5-1-0.5c-0.4 0-0.8 0.2-1 0.5-0.3 0.3-0.5 0.7-0.5 1 0 0.4 0.2 0.8 0.5 1 0.3 0.3 0.7 0.5 1 0.5z"/>
    <path d="m79 231c0.7 0 1-0.3 2-0.8s0.8-1 0.8-2-0.3-1-0.8-2-1-0.8-2-0.8c-0.7 0-1 0.3-2 0.8s-0.8 1-0.8 2 0.3 1 0.8 2 1 0.8 2 0.8z"/>
    <path d="m80 282c0.5 0 0.9-0.2 1-0.5s0.5-0.8 0.5-1c0-0.5-0.2-0.9-0.5-1s-0.8-0.5-1-0.5c-0.5 0-0.9 0.2-1 0.5s-0.5 0.8-0.5 1c0 0.5 0.2 0.9 0.5 1s0.8 0.5 1 0.5z"/>
    <path d="m75 275c0.5 0 0.9-0.2 1-0.5s0.5-0.8 0.5-1-0.2-0.9-0.5-1-0.8-0.5-1-0.5c-0.5 0-0.9 0.2-1 0.5s-0.5 0.8-0.5 1 0.2 0.9 0.5 1 0.8 0.5 1 0.5z"/>
    <path d="m157 98c0.8 0 2-0.3 2-0.9s0.9-1 0.9-2-0.3-2-0.9-2-1-0.9-2-0.9-2 0.3-2 0.9-0.9 1-0.9 2 0.3 2 0.9 2 1 0.9 2 0.9z"/>
    <path d="m97 151c0.4 0 0.8-0.2 1-0.4s0.4-0.7 0.4-1c0-0.4-0.2-0.8-0.4-1-0.3-0.3-0.7-0.4-1-0.4-0.4 0-0.8 0.2-1 0.4-0.3 0.3-0.4 0.7-0.4 1 0 0.4 0.2 0.8 0.4 1 0.3 0.3 0.7 0.4 1 0.4z"/>
    <path d="m132 118c2 0 4-0.7 5-2s2-3 2-5-0.7-4-2-5-3-2-5-2-4 0.7-5 2c-1 1-2 3-2 5s0.7 4 2 5c1 1 3 2 5 2z"/>
    <path d="m312 68c0.8 0 2-0.3 2-0.8 0.5-0.5 0.8-1 0.8-2 0-0.8-0.3-2-0.8-2-0.5-0.5-1-0.8-2-0.8-0.8 0-2 0.3-2 0.8s-0.8 1-0.8 2c0 0.8 0.3 2 0.8 2 0.5 0.5 1 0.8 2 0.8z"/>
    <path d="m159 78c0.5 0 1-0.2 1-0.6 0.4-0.4 0.6-0.9 0.6-1 0-0.5-0.2-1-0.6-1-0.4-0.4-0.9-0.6-1-0.6s-1 0.2-1 0.6c-0.4 0.4-0.6 0.9-0.6 1 0 0.5 0.2 1 0.6 1 0.4 0.4 0.9 0.6 1 0.6z"/>
    <path d="m118 112c0.9 0 2-0.4 2-1 0.6-0.6 1-1 1-2 0-0.9-0.4-2-1-2-0.6-0.6-1-1-2-1-0.9 0-2 0.4-2 1-0.6 0.6-1 1-1 2 0 0.9 0.4 2 1 2 0.6 0.6 1 1 2 1z"/>
    <path d="m136 76c0.3 0 0.5-0.1 0.7-0.3s0.3-0.4 0.3-0.7-0.1-0.5-0.3-0.7-0.4-0.3-0.7-0.3-0.5 0.1-0.7 0.3-0.3 0.4-0.3 0.7 0.1 0.5 0.3 0.7 0.4 0.3 0.7 0.3z"/>
    <path d="m131 80c0.4 0 0.9-0.2 1-0.5 0.3-0.3 0.5-0.7 0.5-1 0-0.4-0.2-0.9-0.5-1s-0.7-0.5-1-0.5-0.9 0.2-1 0.5c-0.3 0.3-0.5 0.7-0.5 1 0 0.4 0.2 0.9 0.5 1 0.3 0.3 0.7 0.5 1 0.5z"/>
    <path d="m112 114c0.4 0 0.8-0.2 1-0.4 0.3-0.3 0.4-0.7 0.4-1 0-0.4-0.2-0.8-0.4-1-0.3-0.3-0.7-0.4-1-0.4s-0.8 0.2-1 0.4c-0.3 0.3-0.4 0.7-0.4 1 0 0.4 0.2 0.8 0.4 1 0.3 0.3 0.7 0.4 1 0.4z"/>
    <path d="m117 98c0.5 0 1-0.2 1-0.5s0.5-0.8 0.5-1c0-0.5-0.2-1-0.5-1s-0.8-0.5-1-0.5c-0.5 0-1 0.2-1 0.5s-0.5 0.8-0.5 1c0 0.5 0.2 1 0.5 1s0.8 0.5 1 0.5z"/>
    <path d="m110 115c0.3 0 0.7-0.1 0.9-0.4 0.2-0.2 0.4-0.6 0.4-0.9s-0.1-0.7-0.4-0.9c-0.2-0.2-0.6-0.4-0.9-0.4s-0.7 0.1-0.9 0.4-0.4 0.6-0.4 0.9 0.1 0.7 0.4 0.9c0.2 0.2 0.6 0.4 0.9 0.4z"/>
    <path d="m106 125c0.5 0 0.9-0.2 1-0.5 0.3-0.3 0.5-0.8 0.5-1s-0.2-0.9-0.5-1c-0.3-0.3-0.8-0.5-1-0.5s-0.9 0.2-1 0.5c-0.3 0.3-0.5 0.8-0.5 1s0.2 0.9 0.5 1c0.3 0.3 0.8 0.5 1 0.5z"/>
    <path d="m80 177c0.4 0 0.8-0.2 1-0.4 0.3-0.3 0.4-0.6 0.4-1s-0.2-0.8-0.4-1-0.6-0.4-1-0.4-0.8 0.2-1 0.4-0.4 0.6-0.4 1 0.2 0.8 0.4 1c0.3 0.3 0.6 0.4 1 0.4z"/>
    <path d="m95 125c0.4 0 0.7-0.1 1-0.4s0.4-0.6 0.4-1-0.1-0.7-0.4-1-0.6-0.4-1-0.4-0.7 0.1-1 0.4-0.4 0.6-0.4 1 0.1 0.7 0.4 1 0.6 0.4 1 0.4z"/>
    <path d="m120 111c0.2 0 0.4-0.09 0.6-0.2 0.2-0.2 0.2-0.4 0.2-0.6s-0.09-0.4-0.2-0.6c-0.2-0.2-0.4-0.2-0.6-0.2s-0.4 0.09-0.6 0.2c-0.2 0.2-0.2 0.4-0.2 0.6s0.09 0.4 0.2 0.6 0.4 0.2 0.6 0.2z"/>
    <path d="m151 95c1 0 3-0.5 4-2s2-2 2-4-0.5-3-2-4c-1-1-2-2-4-2s-3 0.5-4 2c-1 1-2 2-2 4s0.5 3 2 4c1 1 2 2 4 2z"/>
    <path d="m90 109c0.3 0 0.6-0.1 0.8-0.3s0.3-0.5 0.3-0.8-0.1-0.6-0.3-0.8-0.5-0.3-0.8-0.3-0.6 0.1-0.8 0.3-0.3 0.5-0.3 0.8 0.1 0.6 0.3 0.8 0.5 0.3 0.8 0.3z"/>
    <path d="m137 94c0.2 0 0.5-0.09 0.6-0.3 0.2-0.2 0.3-0.4 0.3-0.6s-0.09-0.5-0.3-0.6c-0.2-0.2-0.4-0.3-0.6-0.3s-0.5 0.09-0.6 0.3c-0.2 0.2-0.3 0.4-0.3 0.6s0.09 0.5 0.3 0.6c0.2 0.2 0.4 0.3 0.6 0.3z"/>
    <path d="m100 116c0.3 0 0.7-0.1 0.9-0.4s0.4-0.6 0.4-0.9-0.1-0.7-0.4-0.9-0.6-0.4-0.9-0.4-0.7 0.1-0.9 0.4-0.4 0.6-0.4 0.9 0.1 0.7 0.4 0.9 0.6 0.4 0.9 0.4z"/>
    <path d="m121 119c0.7 0 1-0.3 2-0.8s0.8-1 0.8-2c0-0.7-0.3-1-0.8-2s-1-0.8-2-0.8c-0.7 0-1 0.3-2 0.8s-0.8 1-0.8 2c0 0.7 0.3 1 0.8 2s1 0.8 2 0.8z"/>
    <path d="m200 76c0.3 0 0.5-0.1 0.7-0.3s0.3-0.4 0.3-0.7-0.1-0.5-0.3-0.7-0.4-0.3-0.7-0.3-0.5 0.1-0.7 0.3-0.3 0.4-0.3 0.7 0.1 0.5 0.3 0.7 0.4 0.3 0.7 0.3z"/>
    <path d="m191 126c0.1 0 0.3-0.05 0.4-0.2 0.1-0.1 0.2-0.2 0.2-0.4s-0.05-0.3-0.2-0.4c-0.1-0.1-0.2-0.2-0.4-0.2s-0.3 0.05-0.4 0.2c-0.1 0.1-0.2 0.2-0.2 0.4s0.05 0.3 0.2 0.4 0.2 0.2 0.4 0.2z"/>
    <path d="m356 87c2 0 5-0.9 6-3 2-2 3-4 3-6s-0.9-5-3-6-4-3-6-3-5 0.9-6 3c-2 2-3 4-3 6s0.9 5 3 6c2 2 4 3 6 3z"/>
    <path d="m142 90c0.2 0 0.5-0.1 0.7-0.3s0.3-0.4 0.3-0.7-0.1-0.5-0.3-0.7-0.4-0.3-0.7-0.3-0.5 0.1-0.7 0.3-0.3 0.4-0.3 0.7 0.1 0.5 0.3 0.7 0.4 0.3 0.7 0.3z"/>
    <path d="m148 106c0.7 0 1-0.3 2-0.7 0.5-0.5 0.7-1 0.7-2s-0.3-1-0.7-2c-0.5-0.5-1-0.7-2-0.7-0.7 0-1 0.3-2 0.7-0.5 0.5-0.7 1-0.7 2s0.3 1 0.7 2c0.5 0.5 1 0.7 2 0.7z"/>
    <path d="m78 275c0.7 0 1-0.3 2-0.8 0.5-0.5 0.8-1 0.8-2 0-0.7-0.3-1-0.8-2s-1-0.8-2-0.8c-0.7 0-1 0.3-2 0.8s-0.8 1-0.8 2c0 0.7 0.3 1 0.8 2 0.5 0.5 1 0.8 2 0.8z"/>
    <path d="m269 93c0.1 0 0.2-0.04 0.3-0.1s0.1-0.2 0.1-0.3-0.04-0.2-0.1-0.3-0.2-0.1-0.3-0.1-0.2 0.04-0.3 0.1-0.1 0.2-0.1 0.3 0.04 0.2 0.1 0.3 0.2 0.1 0.3 0.1z"/>
    <path d="m81 164c2 0 3-0.6 4-2s2-3 2-4-0.6-3-2-4-3-2-4-2-3 0.6-4 2-2 3-2 4 0.6 3 2 4 3 2 4 2z"/>
    <path d="m83 184c0.5 0 1-0.2 1-0.6s0.6-0.8 0.6-1c0-0.5-0.2-1-0.6-1s-0.8-0.6-1-0.6c-0.5 0-1 0.2-1 0.6s-0.6 0.8-0.6 1c0 0.5 0.2 1 0.6 1s0.8 0.6 1 0.6z"/>
    <path d="m105 126c5 0 9-2 13-5 3-3 5-8 5-13s-2-9-5-13c-3-3-8-5-13-5s-9 2-13 5c-3 3-5 8-5 13s2 9 5 13c3 3 8 5 13 5z"/>
    <path d="m335 57c0.4 0 0.7-0.1 0.9-0.4 0.2-0.2 0.4-0.6 0.4-0.9 0-0.4-0.1-0.7-0.4-0.9-0.2-0.2-0.6-0.4-0.9-0.4-0.4 0-0.7 0.1-0.9 0.4-0.2 0.2-0.4 0.6-0.4 0.9 0 0.4 0.1 0.7 0.4 0.9 0.2 0.2 0.6 0.4 0.9 0.4z"/>
    <path d="m88 171c4 0 9-2 12-5s5-7 5-12-2-9-5-12-7-5-12-5c-4 0-9 2-12 5s-5 7-5 12 2 9 5 12 7 5 12 5z"/>
    <path d="m95 128c2 0 4-0.8 5-2 1-1 2-3 2-5s-0.8-4-2-5c-1-1-3-2-5-2s-4 0.8-5 2-2 3-2 5 0.8 4 2 5c1 1 3 2 5 2z"/>
    <path d="m149 123c1 0 2-0.4 3-1 0.8-0.8 1-2 1-3s-0.4-2-1-3c-0.8-0.8-2-1-3-1s-2 0.4-3 1c-0.8 0.8-1 2-1 3s0.4 2 1 3c0.8 0.8 2 1 3 1z"/>
    <path d="m102 186c0.7 0 1-0.3 2-0.8 0.5-0.5 0.8-1 0.8-2s-0.3-1-0.8-2c-0.5-0.5-1-0.8-2-0.8-0.7 0-1 0.3-2 0.8-0.5 0.5-0.8 1-0.8 2s0.3 1 0.8 2c0.5 0.5 1 0.8 2 0.8z"/>
    <path d="m241 65c0.3 0 0.7-0.1 0.9-0.4 0.2-0.2 0.4-0.6 0.4-0.9s-0.1-0.7-0.4-0.9c-0.2-0.2-0.6-0.4-0.9-0.4s-0.7 0.1-0.9 0.4c-0.2 0.2-0.4 0.6-0.4 0.9s0.1 0.7 0.4 0.9c0.2 0.2 0.6 0.4 0.9 0.4z"/>
    <path d="m281 59c1 0 3-0.6 4-2 1-1 2-2 2-4s-0.6-3-2-4c-1-1-2-2-4-2s-3 0.6-4 2c-1 1-2 2-2 4s0.6 3 2 4c1 1 2 2 4 2z"/>
    <path d="m102 112c0.3 0 0.6-0.1 0.9-0.4 0.2-0.2 0.4-0.5 0.4-0.9s-0.1-0.6-0.4-0.9c-0.2-0.2-0.5-0.4-0.9-0.4-0.3 0-0.6 0.1-0.9 0.4-0.2 0.2-0.4 0.5-0.4 0.9s0.1 0.6 0.4 0.9c0.2 0.2 0.5 0.4 0.9 0.4z"/>
    <path d="m83 142c0.6 0 1-0.3 2-0.7 0.5-0.5 0.7-1 0.7-2 0-0.6-0.3-1-0.7-2-0.5-0.5-1-0.7-2-0.7s-1 0.3-2 0.7c-0.5 0.5-0.7 1-0.7 2 0 0.6 0.3 1 0.7 2 0.5 0.5 1 0.7 2 0.7z"/>
    <path d="m226 80c0.9 0 2-0.4 2-1s1-2 1-2-0.4-2-1-2-2-1-2-1-2 0.4-2 1c-0.7 0.7-1 2-1 2s0.4 2 1 2c0.7 0.7 2 1 2 1z"/>
    <path d="m385 83c0.2 0 0.4-0.08 0.6-0.2s0.2-0.3 0.2-0.6c0-0.2-0.08-0.4-0.2-0.6-0.1-0.1-0.3-0.2-0.6-0.2s-0.4 0.08-0.6 0.2c-0.1 0.1-0.2 0.3-0.2 0.6 0 0.2 0.08 0.4 0.2 0.6s0.3 0.2 0.6 0.2z"/>
    <path d="m141 114c0.3 0 0.5-0.1 0.7-0.3s0.3-0.4 0.3-0.7-0.1-0.5-0.3-0.7-0.4-0.3-0.7-0.3-0.5 0.1-0.7 0.3-0.3 0.4-0.3 0.7 0.1 0.5 0.3 0.7 0.4 0.3 0.7 0.3z"/>
    <path d="m154 103c0.7 0 1-0.3 2-0.7 0.5-0.5 0.7-1 0.7-2s-0.3-1-0.7-2c-0.5-0.5-1-0.7-2-0.7-0.7 0-1 0.3-2 0.7-0.5 0.5-0.7 1-0.7 2s0.3 1 0.7 2c0.5 0.5 1 0.7 2 0.7z"/>
    <path d="m92 143c0.2 0 0.4-0.09 0.6-0.2 0.2-0.2 0.2-0.4 0.2-0.6s-0.09-0.4-0.2-0.6c-0.2-0.2-0.4-0.2-0.6-0.2s-0.4 0.09-0.6 0.2c-0.2 0.2-0.2 0.4-0.2 0.6s0.09 0.4 0.2 0.6c0.2 0.2 0.4 0.2 0.6 0.2z"/>
    <path d="m78 173c0.9 0 2-0.4 2-1 0.6-0.6 1-2 1-2s-0.4-2-1-2c-0.6-0.6-2-1-2-1s-2 0.4-2 1c-0.6 0.6-1 2-1 2s0.4 2 1 2c0.6 0.6 2 1 2 1z"/>
    <path d="m79 162c0.7 0 1-0.3 2-0.8s0.8-1 0.8-2-0.3-1-0.8-2-1-0.8-2-0.8-1 0.3-2 0.8-0.8 1-0.8 2 0.3 1 0.8 2 1 0.8 2 0.8z"/>
    <path d="m220 94c0.2 0 0.5-0.09 0.6-0.3 0.2-0.2 0.3-0.4 0.3-0.6s-0.09-0.5-0.3-0.6c-0.2-0.2-0.4-0.3-0.6-0.3s-0.5 0.09-0.6 0.3c-0.2 0.2-0.3 0.4-0.3 0.6s0.09 0.5 0.3 0.6c0.2 0.2 0.4 0.3 0.6 0.3z"/>
    <path d="m89 156c2 0 3-0.7 5-2 1-1 2-3 2-5s-0.7-3-2-5c-1-1-3-2-5-2s-3 0.7-5 2c-1 1-2 3-2 5s0.7 3 2 5c1 1 3 2 5 2z"/>
    <path d="m93 120c1 0 2-0.5 3-1 0.9-0.9 1-2 1-3s-0.5-2-1-3c-0.9-0.9-2-1-3-1s-2 0.5-3 1-1 2-1 3 0.5 2 1 3 2 1 3 1z"/>
    <path d="m215 112c0.7 0 1-0.3 2-0.8 0.5-0.5 0.8-1 0.8-2 0-0.7-0.3-1-0.8-2-0.5-0.5-1-0.8-2-0.8s-1 0.3-2 0.8c-0.5 0.5-0.8 1-0.8 2 0 0.7 0.3 1 0.8 2 0.5 0.5 1 0.8 2 0.8z"/>
    <path d="m384 70c0.3 0 0.6-0.1 0.8-0.3s0.3-0.5 0.3-0.8-0.1-0.6-0.3-0.8-0.5-0.3-0.8-0.3-0.6 0.1-0.8 0.3-0.3 0.5-0.3 0.8 0.1 0.6 0.3 0.8 0.5 0.3 0.8 0.3z"/>
    <path d="m98 113c0.6 0 1-0.2 2-0.7 0.4-0.4 0.7-1 0.7-2 0-0.6-0.2-1-0.7-2-0.4-0.4-1-0.7-2-0.7s-1 0.2-2 0.7c-0.4 0.4-0.7 1-0.7 2 0 0.6 0.2 1 0.7 2 0.4 0.4 1 0.7 2 0.7z"/>
    <path d="m100 103c0.6 0 1-0.2 2-0.6 0.4-0.4 0.6-1 0.6-2 0-0.6-0.2-1-0.6-2s-1-0.6-2-0.6c-0.6 0-1 0.2-2 0.6-0.4 0.4-0.6 1-0.6 2 0 0.6 0.2 1 0.6 2 0.4 0.4 1 0.6 2 0.6z"/>
    <path d="m262 80c0.6 0 1-0.3 2-0.7s0.7-1 0.7-2c0-0.6-0.3-1-0.7-2-0.5-0.5-1-0.7-2-0.7s-1 0.3-2 0.7c-0.5 0.5-0.7 1-0.7 2 0 0.6 0.3 1 0.7 2s1 0.7 2 0.7z"/>
    <path d="m121 125c1 0 2-0.4 3-1 0.8-0.8 1-2 1-3s-0.4-2-1-3c-0.8-0.8-2-1-3-1s-2 0.4-3 1c-0.8 0.8-1 2-1 3s0.4 2 1 3c0.8 0.8 2 1 3 1z"/>
    <path d="m88 105c1 0 2-0.5 3-1 0.9-0.9 1-2 1-3s-0.5-2-1-3c-0.9-0.9-2-1-3-1s-2 0.5-3 1c-0.9 0.9-1 2-1 3s0.5 2 1 3c0.9 0.9 2 1 3 1z"/>
    <path d="m92 106c0.3 0 0.5-0.1 0.7-0.3s0.3-0.4 0.3-0.7-0.1-0.5-0.3-0.7-0.4-0.3-0.7-0.3-0.5 0.1-0.7 0.3-0.3 0.4-0.3 0.7 0.1 0.5 0.3 0.7 0.4 0.3 0.7 0.3z"/>
    <path d="m87 168c0.6 0 1-0.2 2-0.7s0.7-1 0.7-2c0-0.6-0.2-1-0.7-2s-1-0.7-2-0.7-1 0.2-2 0.7-0.7 1-0.7 2c0 0.6 0.2 1 0.7 2s1 0.7 2 0.7z"/>
    <path d="m111 89c0.3 0 0.5-0.1 0.7-0.3s0.3-0.4 0.3-0.7-0.1-0.5-0.3-0.7-0.4-0.3-0.7-0.3-0.5 0.1-0.7 0.3-0.3 0.4-0.3 0.7 0.1 0.5 0.3 0.7 0.4 0.3 0.7 0.3z"/>
    <path d="m311 71c0.4 0 0.7-0.2 1-0.4s0.4-0.6 0.4-1-0.2-0.7-0.4-1-0.6-0.4-1-0.4-0.7 0.2-1 0.4-0.4 0.6-0.4 1 0.2 0.7 0.4 1 0.6 0.4 1 0.4z"/>
    <path d="m295 73c0.4 0 0.8-0.2 1-0.5s0.5-0.7 0.5-1-0.2-0.8-0.5-1-0.7-0.5-1-0.5c-0.4 0-0.8 0.2-1 0.5s-0.5 0.7-0.5 1 0.2 0.8 0.5 1 0.7 0.5 1 0.5z"/>
    <path d="m121 98c0.3 0 0.6-0.1 0.8-0.3s0.3-0.5 0.3-0.8-0.1-0.6-0.3-0.8-0.5-0.3-0.8-0.3-0.6 0.1-0.8 0.3-0.3 0.5-0.3 0.8 0.1 0.6 0.3 0.8 0.5 0.3 0.8 0.3z"/>
    <path d="m143 109c0.4 0 0.7-0.1 1-0.4s0.4-0.6 0.4-1-0.1-0.7-0.4-1-0.6-0.4-1-0.4-0.7 0.1-1 0.4-0.4 0.6-0.4 1 0.1 0.7 0.4 1 0.6 0.4 1 0.4z"/>
    <path d="m169 93c0.3 0 0.6-0.1 0.7-0.3 0.2-0.2 0.3-0.5 0.3-0.7 0-0.3-0.1-0.6-0.3-0.7-0.2-0.2-0.5-0.3-0.7-0.3-0.3 0-0.6 0.1-0.7 0.3-0.2 0.2-0.3 0.5-0.3 0.7 0 0.3 0.1 0.6 0.3 0.7 0.2 0.2 0.5 0.3 0.7 0.3z"/>
    <path d="m223 90c0.4 0 0.8-0.2 1-0.5s0.5-0.7 0.5-1c0-0.4-0.2-0.8-0.5-1-0.3-0.3-0.7-0.5-1-0.5-0.4 0-0.8 0.2-1 0.5-0.3 0.3-0.5 0.7-0.5 1 0 0.4 0.2 0.8 0.5 1s0.7 0.5 1 0.5z"/>
    <path d="m305 79c0.3 0 0.6-0.1 0.8-0.3s0.3-0.5 0.3-0.8-0.1-0.6-0.3-0.8-0.5-0.3-0.8-0.3-0.6 0.1-0.8 0.3-0.3 0.5-0.3 0.8 0.1 0.6 0.3 0.8 0.5 0.3 0.8 0.3z"/>
    <path d="m292 73c0.3 0 0.6-0.1 0.8-0.3s0.3-0.5 0.3-0.8-0.1-0.6-0.3-0.8-0.5-0.3-0.8-0.3-0.6 0.1-0.8 0.3-0.3 0.5-0.3 0.8 0.1 0.6 0.3 0.8 0.5 0.3 0.8 0.3z"/>
    <path d="m274 69c1 0 2-0.4 3-1 0.7-0.7 1-2 1-3s-0.4-2-1-3c-0.7-0.7-2-1-3-1s-2 0.4-3 1c-0.7 0.7-1 2-1 3s0.4 2 1 3c0.7 0.7 2 1 3 1z"/>
    <path d="m285 76c1 0 2-0.5 3-1 0.9-0.9 1-2 1-3s-0.5-2-1-3c-0.9-0.9-2-1-3-1s-2 0.5-3 1c-0.9 0.9-1 2-1 3s0.5 2 1 3c0.9 0.9 2 1 3 1z"/>
    <path d="m254 73c0.4 0 0.9-0.2 1-0.5 0.3-0.3 0.5-0.7 0.5-1s-0.2-0.9-0.5-1c-0.3-0.3-0.7-0.5-1-0.5-0.4 0-0.9 0.2-1 0.5-0.3 0.3-0.5 0.7-0.5 1s0.2 0.9 0.5 1c0.3 0.3 0.7 0.5 1 0.5z"/>
    <path d="m191 107c0.4 0 0.8-0.2 1-0.5 0.3-0.3 0.5-0.7 0.5-1s-0.2-0.8-0.5-1c-0.3-0.3-0.7-0.5-1-0.5-0.4 0-0.8 0.2-1 0.5-0.3 0.3-0.5 0.7-0.5 1s0.2 0.8 0.5 1c0.3 0.3 0.7 0.5 1 0.5z"/>
    <path d="m311 59c0.07 0 0.1-0.03 0.2-0.08 0.05-0.05 0.08-0.1 0.08-0.2 0-0.07-0.03-0.1-0.08-0.2-0.05-0.05-0.1-0.08-0.2-0.08s-0.1 0.03-0.2 0.08c-0.05 0.05-0.08 0.1-0.08 0.2 0 0.07 0.03 0.1 0.08 0.2 0.05 0.05 0.1 0.08 0.2 0.08z"/>
    <path d="m341 76c0.3 0 0.5-0.1 0.7-0.3s0.3-0.4 0.3-0.7-0.1-0.5-0.3-0.7-0.4-0.3-0.7-0.3-0.5 0.1-0.7 0.3-0.3 0.4-0.3 0.7 0.1 0.5 0.3 0.7 0.4 0.3 0.7 0.3z"/>
    <path d="m261 69c1 0 2-0.4 3-1 0.7-0.7 1-2 1-3s-0.4-2-1-3-2-1-3-1-2 0.4-3 1-1 2-1 3 0.4 2 1 3c0.7 0.7 2 1 3 1z"/>
    <path d="m133 99c0.1 0 0.2-0.04 0.3-0.1 0.08-0.08 0.1-0.2 0.1-0.3s-0.04-0.2-0.1-0.3c-0.08-0.08-0.2-0.1-0.3-0.1s-0.2 0.04-0.3 0.1c-0.08 0.08-0.1 0.2-0.1 0.3s0.04 0.2 0.1 0.3c0.08 0.08 0.2 0.1 0.3 0.1z"/>
    <path d="m315 72c0.5 0 1-0.2 1-0.6 0.4-0.4 0.6-0.9 0.6-1s-0.2-1-0.6-1-0.9-0.6-1-0.6-1 0.2-1 0.6-0.6 0.9-0.6 1 0.2 1 0.6 1c0.4 0.4 0.9 0.6 1 0.6z"/>
    <path d="m398 68c0.3 0 0.6-0.1 0.8-0.3s0.3-0.5 0.3-0.8-0.1-0.6-0.3-0.8-0.5-0.3-0.8-0.3-0.6 0.1-0.8 0.3-0.3 0.5-0.3 0.8 0.1 0.6 0.3 0.8 0.5 0.3 0.8 0.3z"/>
    <path d="m174 96c0.8 0 2-0.3 2-0.9 0.6-0.6 0.9-1 0.9-2 0-0.8-0.3-2-0.9-2s-1-0.9-2-0.9-2 0.3-2 0.9c-0.6 0.6-0.9 1-0.9 2 0 0.8 0.3 2 0.9 2 0.6 0.6 1 0.9 2 0.9z"/>
    <path d="m208 81c0.4 0 0.8-0.2 1-0.5s0.5-0.7 0.5-1-0.2-0.8-0.5-1-0.7-0.5-1-0.5-0.8 0.2-1 0.5-0.5 0.7-0.5 1 0.2 0.8 0.5 1 0.7 0.5 1 0.5z"/>
    <path d="m143 113c0.6 0 1-0.2 2-0.7s0.7-1 0.7-2-0.2-1-0.7-2-1-0.7-2-0.7c-0.6 0-1 0.2-2 0.7-0.4 0.4-0.7 1-0.7 2s0.2 1 0.7 2c0.4 0.4 1 0.7 2 0.7z"/>
    <path d="m137 104c0.4 0 0.8-0.2 1-0.5 0.3-0.3 0.5-0.7 0.5-1 0-0.4-0.2-0.8-0.5-1-0.3-0.3-0.7-0.5-1-0.5-0.4 0-0.8 0.2-1 0.5-0.3 0.3-0.5 0.7-0.5 1 0 0.4 0.2 0.8 0.5 1 0.3 0.3 0.7 0.5 1 0.5z"/>
    <path d="m196 99c0.3 0 0.6-0.1 0.8-0.3s0.3-0.5 0.3-0.8-0.1-0.6-0.3-0.8-0.5-0.3-0.8-0.3-0.6 0.1-0.8 0.3-0.3 0.5-0.3 0.8 0.1 0.6 0.3 0.8 0.5 0.3 0.8 0.3z"/>
    <path d="m242 81c0.2 0 0.4-0.07 0.5-0.2 0.1-0.1 0.2-0.3 0.2-0.5s-0.07-0.4-0.2-0.5c-0.1-0.1-0.3-0.2-0.5-0.2s-0.4 0.07-0.5 0.2c-0.1 0.1-0.2 0.3-0.2 0.5s0.07 0.4 0.2 0.5c0.1 0.1 0.3 0.2 0.5 0.2z"/>
    <path d="m263 66c0.8 0 2-0.3 2-0.9s0.9-1 0.9-2c0-0.8-0.3-2-0.9-2s-1-0.9-2-0.9-2 0.3-2 0.9c-0.6 0.6-0.9 1-0.9 2 0 0.8 0.3 2 0.9 2 0.6 0.6 1 0.9 2 0.9z"/>
    <path d="m296 65c0.4 0 0.8-0.2 1-0.4 0.3-0.3 0.4-0.7 0.4-1s-0.2-0.8-0.4-1c-0.3-0.3-0.7-0.4-1-0.4s-0.8 0.2-1 0.4-0.4 0.7-0.4 1 0.2 0.8 0.4 1c0.3 0.3 0.7 0.4 1 0.4z"/>
    <path d="m320 60c0.4 0 0.7-0.1 1-0.4s0.4-0.6 0.4-1-0.1-0.7-0.4-1-0.6-0.4-1-0.4-0.7 0.1-1 0.4-0.4 0.6-0.4 1 0.1 0.7 0.4 1 0.6 0.4 1 0.4z"/>
    <path d="m128 119c1 0 2-0.4 3-1s1-2 1-3-0.4-2-1-3-2-1-3-1-2 0.4-3 1c-0.8 0.8-1 2-1 3s0.4 2 1 3c0.8 0.8 2 1 3 1z"/>
    <path d="m292 75c1 0 2-0.4 3-1 0.7-0.7 1-2 1-3s-0.4-2-1-3c-0.7-0.7-2-1-3-1s-2 0.4-3 1c-0.7 0.7-1 2-1 3s0.4 2 1 3c0.7 0.7 2 1 3 1z"/>
    <path d="m300 64c0.6 0 1-0.2 2-0.7s0.7-1 0.7-2c0-0.6-0.2-1-0.7-2s-1-0.7-2-0.7c-0.6 0-1 0.2-2 0.7s-0.7 1-0.7 2c0 0.6 0.2 1 0.7 2s1 0.7 2 0.7z"/>
    <path d="m239 68c0.3 0 0.5-0.1 0.7-0.3s0.3-0.4 0.3-0.7-0.1-0.5-0.3-0.7-0.4-0.3-0.7-0.3-0.5 0.1-0.7 0.3-0.3 0.4-0.3 0.7 0.1 0.5 0.3 0.7 0.4 0.3 0.7 0.3z"/>
  </g>
  <path id="b" d="m0 0v4" stroke="#000"/>
  <path id="c" d="m0 0h-4" stroke="#000"/>
  <g stroke="#000">
    <use x="72" y="308" xlink:href="#b"/>
    <use x="138" y="308" xlink:href="#b"/>
    <use x="204" y="308" xlink:href="#b"/>
    <use x="270" y="308" xlink:href="#b"/>
    <use x="337" y="308" xlink:href="#b"/>
    <use x="403" y="308" xlink:href="#b"/>
    <use x="58" y="293" xlink:href="#c"/>
    <use x="58" y="237" xlink:href="#c"/>
    <use x="58" y="181" xlink:href="#c"/>
    <use x="58" y="125" xlink:href="#c"/>
    <use x="58" y="68" xlink:href="#c"/>
  </g>
  <g font-size="10px">
    <g text-anchor="middle">
      <text x="72" y="322">0</text>
      <text x="138" y="322">10000</text>
      <text x="204" y="322">20000</text>
      <text x="270" y="322">30000</text>
      <text x="337" y="322">40000</text>
      <text x="403" y="322">50000</text>
      <text x="236" y="336">gdpPercap_2007</text>
    </g>
    <g text-anchor="end">
      <text x="51" y="297">40</text>
      <text x="51" y="241">50</text>
      <text x="51" y="185">60</text>
      <text x="51" y="128">70</text>
      <text x="51" y="72">80</text>
    </g>
    <text transform="rotate(-90 32 175)" x="32" y="175" text-anchor="middle">lifeExp_2007</text>
  </g>
  <g fill="none" stroke="#000" stroke-linecap="square">
    <rect x="58" y="41" width="357" height="267"/>
  </g>
</svg>
