<?xml version="1.0" encoding="utf-8" standalone="no"?>
<!DOCTYPE svg PUBLIC "-//W3C//DTD SVG 1.1//EN"
  "http://www.w3.org/Graphics/SVG/1.1/DTD/svg11.dtd">
<!-- Created with matplotlib (http://matplotlib.org/) -->
<svg height="345.6pt" version="1.1" viewBox="0 0 460.8 345.6" width="460.8pt" xmlns="http://www.w3.org/2000/svg" xmlns:xlink="http://www.w3.org/1999/xlink">
 <defs>
  <style type="text/css">
*{stroke-linecap:butt;stroke-linejoin:round;}
  </style>
 </defs>
 <g id="figure_1">
  <g id="patch_1">
   <path d="M 0 345.6 
L 460.8 345.6 
L 460.8 0 
L 0 0 
z
" style="fill:#ffffff;"/>
  </g>
  <g id="axes_1">
   <g id="patch_2">
    <path d="M 57.6 307.584 
L 414.72 307.584 
L 414.72 41.472 
L 57.6 41.472 
z
" style="fill:#ffffff;"/>
   </g>
   <g id="PathCollection_1">
    <path clip-path="url(#p1c070f91c5)" d="M 113.163463 114.491146 
C 113.929037 114.491146 114.663358 114.18698 115.204701 113.645637 
C 115.746044 113.104295 116.050209 112.369974 116.050209 111.604399 
C 116.050209 110.838825 115.746044 110.104504 115.204701 109.563162 
C 114.663358 109.021819 113.929037 108.717653 113.163463 108.717653 
C 112.397889 108.717653 111.663568 109.021819 111.122225 109.563162 
C 110.580883 110.104504 110.276717 110.838825 110.276717 111.604399 
C 110.276717 112.369974 110.580883 113.104295 111.122225 113.645637 
C 111.663568 114.18698 112.397889 114.491146 113.163463 114.491146 
z
" style="fill:#1f77b4;stroke:#1f77b4;"/>
    <path clip-path="url(#p1c070f91c5)" d="M 103.729785 279.70276 
C 104.197109 279.70276 104.645355 279.51709 104.975803 279.186643 
C 105.30625 278.856195 105.49192 278.407949 105.49192 277.940625 
C 105.49192 277.473301 105.30625 277.025055 104.975803 276.694608 
C 104.645355 276.36416 104.197109 276.17849 103.729785 276.17849 
C 103.262462 276.17849 102.814215 276.36416 102.483768 276.694608 
C 102.15332 277.025055 101.96765 277.473301 101.96765 277.940625 
C 101.96765 278.407949 102.15332 278.856195 102.483768 279.186643 
C 102.814215 279.51709 103.262462 279.70276 103.729785 279.70276 
z
" style="fill:#1f77b4;stroke:#1f77b4;"/>
    <path clip-path="url(#p1c070f91c5)" d="M 81.530701 200.626264 
C 81.907586 200.626264 82.269086 200.476526 82.535584 200.210028 
C 82.802082 199.94353 82.95182 199.58203 82.95182 199.205145 
C 82.95182 198.82826 82.802082 198.46676 82.535584 198.200262 
C 82.269086 197.933764 81.907586 197.784026 81.530701 197.784026 
C 81.153816 197.784026 80.792316 197.933764 80.525818 198.200262 
C 80.25932 198.46676 80.109582 198.82826 80.109582 199.205145 
C 80.109582 199.58203 80.25932 199.94353 80.525818 200.210028 
C 80.792316 200.476526 81.153816 200.626264 81.530701 200.626264 
z
" style="fill:#1f77b4;stroke:#1f77b4;"/>
    <path clip-path="url(#p1c070f91c5)" d="M 155.144509 233.596297 
C 155.314277 233.596297 155.477114 233.528848 155.597158 233.408804 
C 155.717202 233.28876 155.784652 233.125922 155.784652 232.956154 
C 155.784652 232.786387 155.717202 232.623549 155.597158 232.503505 
C 155.477114 232.383461 155.314277 232.316012 155.144509 232.316012 
C 154.974741 232.316012 154.811904 232.383461 154.69186 232.503505 
C 154.571816 232.623549 154.504366 232.786387 154.504366 232.956154 
C 154.504366 233.125922 154.571816 233.28876 154.69186 233.408804 
C 154.811904 233.528848 154.974741 233.596297 155.144509 233.596297 
z
" style="fill:#1f77b4;stroke:#1f77b4;"/>
    <path clip-path="url(#p1c070f91c5)" d="M 80.047308 226.034014 
C 80.549205 226.034014 81.030612 225.834609 81.385507 225.479714 
C 81.740401 225.12482 81.939807 224.643412 81.939807 224.141516 
C 81.939807 223.639619 81.740401 223.158212 81.385507 222.803317 
C 81.030612 222.448423 80.549205 222.249017 80.047308 222.249017 
C 79.545412 222.249017 79.064004 222.448423 78.70911 222.803317 
C 78.354215 223.158212 78.15481 223.639619 78.15481 224.141516 
C 78.15481 224.643412 78.354215 225.12482 78.70911 225.479714 
C 79.064004 225.834609 79.545412 226.034014 80.047308 226.034014 
z
" style="fill:#1f77b4;stroke:#1f77b4;"/>
    <path clip-path="url(#p1c070f91c5)" d="M 74.84167 240.862166 
C 75.225769 240.862166 75.594187 240.709562 75.865786 240.437963 
C 76.137385 240.166365 76.289989 239.797946 76.289989 239.413848 
C 76.289989 239.029749 76.137385 238.661331 75.865786 238.389732 
C 75.594187 238.118133 75.225769 237.965529 74.84167 237.965529 
C 74.457572 237.965529 74.089153 238.118133 73.817554 238.389732 
C 73.545956 238.661331 73.393352 239.029749 73.393352 239.413848 
C 73.393352 239.797946 73.545956 240.166365 73.817554 240.437963 
C 74.089153 240.709562 74.457572 240.862166 74.84167 240.862166 
z
" style="fill:#1f77b4;stroke:#1f77b4;"/>
    <path clip-path="url(#p1c070f91c5)" d="M 85.504972 236.735803 
C 86.062786 236.735803 86.597829 236.514181 86.992264 236.119746 
C 87.386698 235.725312 87.60832 235.190269 87.60832 234.632455 
C 87.60832 234.07464 87.386698 233.539597 86.992264 233.145163 
C 86.597829 232.750729 86.062786 232.529106 85.504972 232.529106 
C 84.947157 232.529106 84.412114 232.750729 84.01768 233.145163 
C 83.623246 233.539597 83.401624 234.07464 83.401624 234.632455 
C 83.401624 235.190269 83.623246 235.725312 84.01768 236.119746 
C 84.412114 236.514181 84.947157 236.735803 85.504972 236.735803 
z
" style="fill:#1f77b4;stroke:#1f77b4;"/>
    <path clip-path="url(#p1c070f91c5)" d="M 76.667011 267.679149 
C 76.944178 267.679149 77.21003 267.569029 77.406017 267.373043 
C 77.602003 267.177056 77.712123 266.911204 77.712123 266.634037 
C 77.712123 266.35687 77.602003 266.091018 77.406017 265.895031 
C 77.21003 265.699044 76.944178 265.588925 76.667011 265.588925 
C 76.389844 265.588925 76.123991 265.699044 75.928005 265.895031 
C 75.732018 266.091018 75.621899 266.35687 75.621899 266.634037 
C 75.621899 266.911204 75.732018 267.177056 75.928005 267.373043 
C 76.123991 267.569029 76.389844 267.679149 76.667011 267.679149 
z
" style="fill:#1f77b4;stroke:#1f77b4;"/>
    <path clip-path="url(#p1c070f91c5)" d="M 83.268944 234.989199 
C 83.693244 234.989199 84.100223 234.820623 84.400249 234.520597 
C 84.700274 234.220572 84.868851 233.813593 84.868851 233.389292 
C 84.868851 232.964992 84.700274 232.558013 84.400249 232.257987 
C 84.100223 231.957962 83.693244 231.789386 83.268944 231.789386 
C 82.844644 231.789386 82.437664 231.957962 82.137639 232.257987 
C 81.837613 232.558013 81.669037 232.964992 81.669037 233.389292 
C 81.669037 233.813593 81.837613 234.220572 82.137639 234.520597 
C 82.437664 234.820623 82.844644 234.989199 83.268944 234.989199 
z
" style="fill:#1f77b4;stroke:#1f77b4;"/>
    <path clip-path="url(#p1c070f91c5)" d="M 78.520038 152.24032 
C 78.631845 152.24032 78.739089 152.195898 78.818148 152.116838 
C 78.897208 152.037778 78.94163 151.930535 78.94163 151.818727 
C 78.94163 151.70692 78.897208 151.599677 78.818148 151.520617 
C 78.739089 151.441557 78.631845 151.397135 78.520038 151.397135 
C 78.40823 151.397135 78.300987 151.441557 78.221927 151.520617 
C 78.142867 151.599677 78.098445 151.70692 78.098445 151.818727 
C 78.098445 151.930535 78.142867 152.037778 78.221927 152.116838 
C 78.300987 152.195898 78.40823 152.24032 78.520038 152.24032 
z
" style="fill:#1f77b4;stroke:#1f77b4;"/>
    <path clip-path="url(#p1c070f91c5)" d="M 73.832781 260.972039 
C 74.89861 260.972039 75.920929 260.54858 76.674584 259.794925 
C 77.428239 259.04127 77.851697 258.018951 77.851697 256.953122 
C 77.851697 255.887293 77.428239 254.864974 76.674584 254.111319 
C 75.920929 253.357664 74.89861 252.934206 73.832781 252.934206 
C 72.766952 252.934206 71.744633 253.357664 70.990978 254.111319 
C 70.237323 254.864974 69.813864 255.887293 69.813864 256.953122 
C 69.813864 258.018951 70.237323 259.04127 70.990978 259.794925 
C 71.744633 260.54858 72.766952 260.972039 73.832781 260.972039 
z
" style="fill:#1f77b4;stroke:#1f77b4;"/>
    <path clip-path="url(#p1c070f91c5)" d="M 96.025644 208.088889 
C 96.284153 208.088889 96.532109 207.986182 96.714902 207.803389 
C 96.897695 207.620596 97.000402 207.37264 97.000402 207.114131 
C 97.000402 206.855623 96.897695 206.607667 96.714902 206.424874 
C 96.532109 206.24208 96.284153 206.139374 96.025644 206.139374 
C 95.767135 206.139374 95.51918 206.24208 95.336386 206.424874 
C 95.153593 206.607667 95.050886 206.855623 95.050886 207.114131 
C 95.050886 207.37264 95.153593 207.620596 95.336386 207.803389 
C 95.51918 207.986182 95.767135 208.088889 96.025644 208.088889 
z
" style="fill:#1f77b4;stroke:#1f77b4;"/>
    <path clip-path="url(#p1c070f91c5)" d="M 82.215108 248.578669 
C 82.777898 248.578669 83.317714 248.35507 83.715667 247.957117 
C 84.113619 247.559164 84.337218 247.019349 84.337218 246.456558 
C 84.337218 245.893768 84.113619 245.353952 83.715667 244.956 
C 83.317714 244.558047 82.777898 244.334448 82.215108 244.334448 
C 81.652318 244.334448 81.112502 244.558047 80.714549 244.956 
C 80.316597 245.353952 80.092998 245.893768 80.092998 246.456558 
C 80.092998 247.019349 80.316597 247.559164 80.714549 247.957117 
C 81.112502 248.35507 81.652318 248.578669 82.215108 248.578669 
z
" style="fill:#1f77b4;stroke:#1f77b4;"/>
    <path clip-path="url(#p1c070f91c5)" d="M 85.772121 210.453365 
C 85.865544 210.453365 85.955153 210.416248 86.021213 210.350188 
C 86.087273 210.284128 86.12439 210.194519 86.12439 210.101096 
C 86.12439 210.007673 86.087273 209.918064 86.021213 209.852004 
C 85.955153 209.785944 85.865544 209.748827 85.772121 209.748827 
C 85.678698 209.748827 85.589089 209.785944 85.523029 209.852004 
C 85.45697 209.918064 85.419852 210.007673 85.419852 210.101096 
C 85.419852 210.194519 85.45697 210.284128 85.523029 210.350188 
C 85.589089 210.416248 85.678698 210.453365 85.772121 210.453365 
z
" style="fill:#1f77b4;stroke:#1f77b4;"/>
    <path clip-path="url(#p1c070f91c5)" d="M 108.915496 121.500961 
C 110.103479 121.500961 111.242966 121.02897 112.082997 120.188938 
C 112.923029 119.348907 113.39502 118.20942 113.39502 117.021437 
C 113.39502 115.833453 112.923029 114.693966 112.082997 113.853935 
C 111.242966 113.013903 110.103479 112.541912 108.915496 112.541912 
C 107.727512 112.541912 106.588025 113.013903 105.747994 113.853935 
C 104.907962 114.693966 104.435971 115.833453 104.435971 117.021437 
C 104.435971 118.20942 104.907962 119.348907 105.747994 120.188938 
C 106.588025 121.02897 107.727512 121.500961 108.915496 121.500961 
z
" style="fill:#1f77b4;stroke:#1f77b4;"/>
    <path clip-path="url(#p1c070f91c5)" d="M 152.394305 228.540351 
C 152.492753 228.540351 152.587181 228.501237 152.656794 228.431625 
C 152.726406 228.362012 152.76552 228.267583 152.76552 228.169136 
C 152.76552 228.070689 152.726406 227.976261 152.656794 227.906648 
C 152.587181 227.837035 152.492753 227.797922 152.394305 227.797922 
C 152.295858 227.797922 152.20143 227.837035 152.131817 227.906648 
C 152.062204 227.976261 152.023091 228.070689 152.023091 228.169136 
C 152.023091 228.267583 152.062204 228.362012 152.131817 228.431625 
C 152.20143 228.501237 152.295858 228.540351 152.394305 228.540351 
z
" style="fill:#1f77b4;stroke:#1f77b4;"/>
    <path clip-path="url(#p1c070f91c5)" d="M 76.23938 192.932465 
C 76.533104 192.932465 76.814836 192.815767 77.02253 192.608074 
C 77.230224 192.40038 77.346921 192.118647 77.346921 191.824924 
C 77.346921 191.531201 77.230224 191.249468 77.02253 191.041775 
C 76.814836 190.834081 76.533104 190.717383 76.23938 190.717383 
C 75.945657 190.717383 75.663925 190.834081 75.456231 191.041775 
C 75.248537 191.249468 75.13184 191.531201 75.13184 191.824924 
C 75.13184 192.118647 75.248537 192.40038 75.456231 192.608074 
C 75.663925 192.815767 75.945657 192.932465 76.23938 192.932465 
z
" style="fill:#1f77b4;stroke:#1f77b4;"/>
    <path clip-path="url(#p1c070f91c5)" d="M 76.566392 224.84746 
C 77.726272 224.84746 78.838803 224.386635 79.658962 223.566476 
C 80.479121 222.746317 80.939946 221.633786 80.939946 220.473906 
C 80.939946 219.314026 80.479121 218.201496 79.658962 217.381337 
C 78.838803 216.561178 77.726272 216.100352 76.566392 216.100352 
C 75.406512 216.100352 74.293982 216.561178 73.473823 217.381337 
C 72.653664 218.201496 72.192839 219.314026 72.192839 220.473906 
C 72.192839 221.633786 72.653664 222.746317 73.473823 223.566476 
C 74.293982 224.386635 75.406512 224.84746 76.566392 224.84746 
z
" style="fill:#1f77b4;stroke:#1f77b4;"/>
    <path clip-path="url(#p1c070f91c5)" d="M 159.35574 199.768858 
C 159.515681 199.768858 159.669093 199.705313 159.782188 199.592217 
C 159.895284 199.479122 159.958829 199.32571 159.958829 199.165769 
C 159.958829 199.005828 159.895284 198.852416 159.782188 198.73932 
C 159.669093 198.626225 159.515681 198.562679 159.35574 198.562679 
C 159.195798 198.562679 159.042386 198.626225 158.929291 198.73932 
C 158.816195 198.852416 158.75265 199.005828 158.75265 199.165769 
C 158.75265 199.32571 158.816195 199.479122 158.929291 199.592217 
C 159.042386 199.705313 159.195798 199.768858 159.35574 199.768858 
z
" style="fill:#1f77b4;stroke:#1f77b4;"/>
    <path clip-path="url(#p1c070f91c5)" d="M 76.976144 184.554372 
C 77.148442 184.554372 77.313707 184.485917 77.43554 184.364083 
C 77.557373 184.24225 77.625828 184.076985 77.625828 183.904687 
C 77.625828 183.732389 77.557373 183.567124 77.43554 183.445291 
C 77.313707 183.323458 77.148442 183.255003 76.976144 183.255003 
C 76.803845 183.255003 76.638581 183.323458 76.516748 183.445291 
C 76.394914 183.567124 76.326459 183.732389 76.326459 183.904687 
C 76.326459 184.076985 76.394914 184.24225 76.516748 184.364083 
C 76.638581 184.485917 76.803845 184.554372 76.976144 184.554372 
z
" style="fill:#1f77b4;stroke:#1f77b4;"/>
    <path clip-path="url(#p1c070f91c5)" d="M 80.778751 183.067145 
C 81.412933 183.067145 82.021225 182.815182 82.469659 182.366748 
C 82.918093 181.918314 83.170055 181.310022 83.170055 180.675841 
C 83.170055 180.041659 82.918093 179.433367 82.469659 178.984933 
C 82.021225 178.5365 81.412933 178.284537 80.778751 178.284537 
C 80.14457 178.284537 79.536278 178.5365 79.087844 178.984933 
C 78.63941 179.433367 78.387448 180.041659 78.387448 180.675841 
C 78.387448 181.310022 78.63941 181.918314 79.087844 182.366748 
C 79.536278 182.815182 80.14457 183.067145 80.778751 183.067145 
z
" style="fill:#1f77b4;stroke:#1f77b4;"/>
    <path clip-path="url(#p1c070f91c5)" d="M 78.232334 204.837899 
C 78.650561 204.837899 79.051715 204.671735 79.347446 204.376004 
C 79.643178 204.080273 79.809341 203.679119 79.809341 203.260891 
C 79.809341 202.842664 79.643178 202.44151 79.347446 202.145778 
C 79.051715 201.850047 78.650561 201.683883 78.232334 201.683883 
C 77.814106 201.683883 77.412952 201.850047 77.117221 202.145778 
C 76.821489 202.44151 76.655326 202.842664 76.655326 203.260891 
C 76.655326 203.679119 76.821489 204.080273 77.117221 204.376004 
C 77.412952 204.671735 77.814106 204.837899 78.232334 204.837899 
z
" style="fill:#1f77b4;stroke:#1f77b4;"/>
    <path clip-path="url(#p1c070f91c5)" d="M 75.828348 257.976023 
C 75.989231 257.976023 76.143545 257.912104 76.257306 257.798343 
C 76.371067 257.684582 76.434987 257.530267 76.434987 257.369385 
C 76.434987 257.208502 76.371067 257.054188 76.257306 256.940427 
C 76.143545 256.826665 75.989231 256.762746 75.828348 256.762746 
C 75.667466 256.762746 75.513151 256.826665 75.39939 256.940427 
C 75.285629 257.054188 75.22171 257.208502 75.22171 257.369385 
C 75.22171 257.530267 75.285629 257.684582 75.39939 257.798343 
C 75.513151 257.912104 75.667466 257.976023 75.828348 257.976023 
z
" style="fill:#1f77b4;stroke:#1f77b4;"/>
    <path clip-path="url(#p1c070f91c5)" d="M 81.675992 216.915549 
C 82.467282 216.915549 83.22627 216.601166 83.785796 216.041639 
C 84.345323 215.482113 84.659705 214.723125 84.659705 213.931835 
C 84.659705 213.140545 84.345323 212.381558 83.785796 211.822032 
C 83.22627 211.262505 82.467282 210.948122 81.675992 210.948122 
C 80.884702 210.948122 80.125715 211.262505 79.566188 211.822032 
C 79.006662 212.381558 78.692279 213.140545 78.692279 213.931835 
C 78.692279 214.723125 79.006662 215.482113 79.566188 216.041639 
C 80.125715 216.601166 80.884702 216.915549 81.675992 216.915549 
z
" style="fill:#1f77b4;stroke:#1f77b4;"/>
    <path clip-path="url(#p1c070f91c5)" d="M 82.37771 279.431863 
C 82.565829 279.431863 82.746268 279.357122 82.879289 279.224102 
C 83.012309 279.091082 83.087049 278.910642 83.087049 278.722523 
C 83.087049 278.534404 83.012309 278.353965 82.879289 278.220945 
C 82.746268 278.087925 82.565829 278.013184 82.37771 278.013184 
C 82.189591 278.013184 82.009151 278.087925 81.876131 278.220945 
C 81.743111 278.353965 81.668371 278.534404 81.668371 278.722523 
C 81.668371 278.910642 81.743111 279.091082 81.876131 279.224102 
C 82.009151 279.357122 82.189591 279.431863 82.37771 279.431863 
z
" style="fill:#1f77b4;stroke:#1f77b4;"/>
    <path clip-path="url(#p1c070f91c5)" d="M 74.738721 262.256834 
C 74.975701 262.256834 75.203007 262.162681 75.370578 261.995111 
C 75.538148 261.82754 75.632301 261.600234 75.632301 261.363254 
C 75.632301 261.126274 75.538148 260.898968 75.370578 260.731398 
C 75.203007 260.563827 74.975701 260.469674 74.738721 260.469674 
C 74.501741 260.469674 74.274435 260.563827 74.106864 260.731398 
C 73.939294 260.898968 73.845141 261.126274 73.845141 261.363254 
C 73.845141 261.600234 73.939294 261.82754 74.106864 261.995111 
C 74.274435 262.162681 74.501741 262.256834 74.738721 262.256834 
z
" style="fill:#1f77b4;stroke:#1f77b4;"/>
    <path clip-path="url(#p1c070f91c5)" d="M 151.755374 103.545753 
C 152.081178 103.545753 152.393681 103.41631 152.624059 103.185932 
C 152.854437 102.955554 152.98388 102.64305 152.98388 102.317247 
C 152.98388 101.991443 152.854437 101.678939 152.624059 101.448561 
C 152.393681 101.218183 152.081178 101.08874 151.755374 101.08874 
C 151.42957 101.08874 151.117066 101.218183 150.886688 101.448561 
C 150.65631 101.678939 150.526867 101.991443 150.526867 102.317247 
C 150.526867 102.64305 150.65631 102.955554 150.886688 103.185932 
C 151.117066 103.41631 151.42957 103.545753 151.755374 103.545753 
z
" style="fill:#1f77b4;stroke:#1f77b4;"/>
    <path clip-path="url(#p1c070f91c5)" d="M 78.907815 186.121857 
C 79.488356 186.121857 80.045198 185.891206 80.455703 185.480701 
C 80.866208 185.070196 81.096859 184.513354 81.096859 183.932813 
C 81.096859 183.352272 80.866208 182.79543 80.455703 182.384925 
C 80.045198 181.974421 79.488356 181.743769 78.907815 181.743769 
C 78.327274 181.743769 77.770432 181.974421 77.359927 182.384925 
C 76.949423 182.79543 76.718771 183.352272 76.718771 183.932813 
C 76.718771 184.513354 76.949423 185.070196 77.359927 185.480701 
C 77.770432 185.891206 78.327274 186.121857 78.907815 186.121857 
z
" style="fill:#1f77b4;stroke:#1f77b4;"/>
    <path clip-path="url(#p1c070f91c5)" d="M 77.019803 248.422501 
C 77.503882 248.422501 77.968199 248.230175 78.310495 247.887879 
C 78.65279 247.545584 78.845117 247.081266 78.845117 246.597187 
C 78.845117 246.113109 78.65279 245.648791 78.310495 245.306496 
C 77.968199 244.9642 77.503882 244.771874 77.019803 244.771874 
C 76.535724 244.771874 76.071407 244.9642 75.729111 245.306496 
C 75.386816 245.648791 75.194489 246.113109 75.194489 246.597187 
C 75.194489 247.081266 75.386816 247.545584 75.729111 247.887879 
C 76.071407 248.230175 76.535724 248.422501 77.019803 248.422501 
z
" style="fill:#1f77b4;stroke:#1f77b4;"/>
    <path clip-path="url(#p1c070f91c5)" d="M 78.893338 213.657994 
C 79.353291 213.657994 79.794468 213.475253 80.119704 213.150017 
C 80.444941 212.82478 80.627682 212.383604 80.627682 211.92365 
C 80.627682 211.463697 80.444941 211.02252 80.119704 210.697284 
C 79.794468 210.372048 79.353291 210.189306 78.893338 210.189306 
C 78.433385 210.189306 77.992208 210.372048 77.666972 210.697284 
C 77.341736 211.02252 77.158994 211.463697 77.158994 211.92365 
C 77.158994 212.383604 77.341736 212.82478 77.666972 213.150017 
C 77.992208 213.475253 78.433385 213.657994 78.893338 213.657994 
z
" style="fill:#1f77b4;stroke:#1f77b4;"/>
    <path clip-path="url(#p1c070f91c5)" d="M 83.924395 158.28056 
C 84.164182 158.28056 84.394181 158.185291 84.563737 158.015736 
C 84.733292 157.84618 84.828561 157.616181 84.828561 157.376394 
C 84.828561 157.136606 84.733292 156.906607 84.563737 156.737052 
C 84.394181 156.567496 84.164182 156.472228 83.924395 156.472228 
C 83.684607 156.472228 83.454608 156.567496 83.285053 156.737052 
C 83.115497 156.906607 83.020229 157.136606 83.020229 157.376394 
C 83.020229 157.616181 83.115497 157.84618 83.285053 158.015736 
C 83.454608 158.185291 83.684607 158.28056 83.924395 158.28056 
z
" style="fill:#1f77b4;stroke:#1f77b4;"/>
    <path clip-path="url(#p1c070f91c5)" d="M 144.475677 109.35103 
C 144.623982 109.35103 144.766233 109.292107 144.871101 109.187239 
C 144.975968 109.082372 145.034891 108.940121 145.034891 108.791815 
C 145.034891 108.64351 144.975968 108.501259 144.871101 108.396391 
C 144.766233 108.291523 144.623982 108.232601 144.475677 108.232601 
C 144.327371 108.232601 144.18512 108.291523 144.080252 108.396391 
C 143.975385 108.501259 143.916462 108.64351 143.916462 108.791815 
C 143.916462 108.940121 143.975385 109.082372 144.080252 109.187239 
C 144.18512 109.292107 144.327371 109.35103 144.475677 109.35103 
z
" style="fill:#1f77b4;stroke:#1f77b4;"/>
    <path clip-path="url(#p1c070f91c5)" d="M 97.266705 120.905262 
C 98.037133 120.905262 98.776109 120.599168 99.320883 120.054394 
C 99.865658 119.509619 100.171752 118.770643 100.171752 118.000216 
C 100.171752 117.229789 99.865658 116.490812 99.320883 115.946038 
C 98.776109 115.401264 98.037133 115.09517 97.266705 115.09517 
C 96.496278 115.09517 95.757302 115.401264 95.212527 115.946038 
C 94.667753 116.490812 94.361659 117.229789 94.361659 118.000216 
C 94.361659 118.770643 94.667753 119.509619 95.212527 120.054394 
C 95.757302 120.599168 96.496278 120.905262 97.266705 120.905262 
z
" style="fill:#1f77b4;stroke:#1f77b4;"/>
    <path clip-path="url(#p1c070f91c5)" d="M 77.445374 283.824723 
C 78.037669 283.824723 78.605785 283.589402 79.024601 283.170586 
C 79.443417 282.75177 79.678738 282.183654 79.678738 281.591359 
C 79.678738 280.999064 79.443417 280.430948 79.024601 280.012133 
C 78.605785 279.593317 78.037669 279.357995 77.445374 279.357995 
C 76.853079 279.357995 76.284963 279.593317 75.866147 280.012133 
C 75.447332 280.430948 75.21201 280.999064 75.21201 281.591359 
C 75.21201 282.183654 75.447332 282.75177 75.866147 283.170586 
C 76.284963 283.589402 76.853079 283.824723 77.445374 283.824723 
z
" style="fill:#1f77b4;stroke:#1f77b4;"/>
    <path clip-path="url(#p1c070f91c5)" d="M 103.821263 221.421315 
C 104.011355 221.421315 104.193686 221.345791 104.328101 221.211376 
C 104.462516 221.076961 104.538041 220.89463 104.538041 220.704538 
C 104.538041 220.514446 104.462516 220.332115 104.328101 220.1977 
C 104.193686 220.063285 104.011355 219.98776 103.821263 219.98776 
C 103.631171 219.98776 103.44884 220.063285 103.314425 220.1977 
C 103.18001 220.332115 103.104485 220.514446 103.104485 220.704538 
C 103.104485 220.89463 103.18001 221.076961 103.314425 221.211376 
C 103.44884 221.345791 103.631171 221.421315 103.821263 221.421315 
z
" style="fill:#1f77b4;stroke:#1f77b4;"/>
    <path clip-path="url(#p1c070f91c5)" d="M 76.095887 200.218718 
C 76.572051 200.218718 77.028777 200.029535 77.365477 199.692836 
C 77.702176 199.356137 77.891358 198.899411 77.891358 198.423246 
C 77.891358 197.947082 77.702176 197.490356 77.365477 197.153657 
C 77.028777 196.816958 76.572051 196.627775 76.095887 196.627775 
C 75.619722 196.627775 75.162996 196.816958 74.826297 197.153657 
C 74.489598 197.490356 74.300416 197.947082 74.300416 198.423246 
C 74.300416 198.899411 74.489598 199.356137 74.826297 199.692836 
C 75.162996 200.029535 75.619722 200.218718 76.095887 200.218718 
z
" style="fill:#1f77b4;stroke:#1f77b4;"/>
    <path clip-path="url(#p1c070f91c5)" d="M 85.318976 260.530076 
C 86.859844 260.530076 88.337811 259.917882 89.427369 258.828324 
C 90.516928 257.738765 91.129121 256.260799 91.129121 254.71993 
C 91.129121 253.179062 90.516928 251.701096 89.427369 250.611537 
C 88.337811 249.521979 86.859844 248.909785 85.318976 248.909785 
C 83.778107 248.909785 82.300141 249.521979 81.210583 250.611537 
C 80.121024 251.701096 79.50883 253.179062 79.50883 254.71993 
C 79.50883 256.260799 80.121024 257.738765 81.210583 258.828324 
C 82.300141 259.917882 83.778107 260.530076 85.318976 260.530076 
z
" style="fill:#1f77b4;stroke:#1f77b4;"/>
    <path clip-path="url(#p1c070f91c5)" d="M 122.733532 88.757258 
C 122.851993 88.757258 122.965618 88.710193 123.049383 88.626429 
C 123.133147 88.542664 123.180213 88.429039 123.180213 88.310578 
C 123.180213 88.192117 123.133147 88.078491 123.049383 87.994727 
C 122.965618 87.910962 122.851993 87.863897 122.733532 87.863897 
C 122.615071 87.863897 122.501446 87.910962 122.417681 87.994727 
C 122.333917 88.078491 122.286851 88.192117 122.286851 88.310578 
C 122.286851 88.429039 122.333917 88.542664 122.417681 88.626429 
C 122.501446 88.710193 122.615071 88.757258 122.733532 88.757258 
z
" style="fill:#1f77b4;stroke:#1f77b4;"/>
    <path clip-path="url(#p1c070f91c5)" d="M 77.706018 259.678996 
C 78.10073 259.678996 78.479328 259.522176 78.758431 259.243072 
C 79.037534 258.963969 79.194355 258.585371 79.194355 258.190659 
C 79.194355 257.795948 79.037534 257.417349 78.758431 257.138246 
C 78.479328 256.859143 78.10073 256.702322 77.706018 256.702322 
C 77.311306 256.702322 76.932708 256.859143 76.653605 257.138246 
C 76.374502 257.417349 76.217681 257.795948 76.217681 258.190659 
C 76.217681 258.585371 76.374502 258.963969 76.653605 259.243072 
C 76.932708 259.522176 77.311306 259.678996 77.706018 259.678996 
z
" style="fill:#1f77b4;stroke:#1f77b4;"/>
    <path clip-path="url(#p1c070f91c5)" d="M 82.570226 149.927035 
C 82.629465 149.927035 82.686285 149.9035 82.728174 149.861612 
C 82.770062 149.819723 82.793597 149.762903 82.793597 149.703664 
C 82.793597 149.644425 82.770062 149.587605 82.728174 149.545717 
C 82.686285 149.503829 82.629465 149.480293 82.570226 149.480293 
C 82.510987 149.480293 82.454167 149.503829 82.412279 149.545717 
C 82.370391 149.587605 82.346855 149.644425 82.346855 149.703664 
C 82.346855 149.762903 82.370391 149.819723 82.412279 149.861612 
C 82.454167 149.9035 82.510987 149.927035 82.570226 149.927035 
z
" style="fill:#1f77b4;stroke:#1f77b4;"/>
    <path clip-path="url(#p1c070f91c5)" d="M 83.324564 165.326578 
C 83.789001 165.326578 84.234478 165.142055 84.562884 164.813649 
C 84.891291 164.485243 85.075813 164.039766 85.075813 163.575329 
C 85.075813 163.110892 84.891291 162.665415 84.562884 162.337009 
C 84.234478 162.008603 83.789001 161.82408 83.324564 161.82408 
C 82.860128 161.82408 82.41465 162.008603 82.086244 162.337009 
C 81.757838 162.665415 81.573315 163.110892 81.573315 163.575329 
C 81.573315 164.039766 81.757838 164.485243 82.086244 164.813649 
C 82.41465 165.142055 82.860128 165.326578 83.324564 165.326578 
z
" style="fill:#1f77b4;stroke:#1f77b4;"/>
    <path clip-path="url(#p1c070f91c5)" d="M 77.702395 280.096939 
C 78.031091 280.096939 78.346368 279.966347 78.578791 279.733924 
C 78.811214 279.501501 78.941806 279.186223 78.941806 278.857527 
C 78.941806 278.528832 78.811214 278.213554 78.578791 277.981131 
C 78.346368 277.748708 78.031091 277.618116 77.702395 277.618116 
C 77.373699 277.618116 77.058422 277.748708 76.825999 277.981131 
C 76.593576 278.213554 76.462984 278.528832 76.462984 278.857527 
C 76.462984 279.186223 76.593576 279.501501 76.825999 279.733924 
C 77.058422 279.966347 77.373699 280.096939 77.702395 280.096939 
z
" style="fill:#1f77b4;stroke:#1f77b4;"/>
    <path clip-path="url(#p1c070f91c5)" d="M 78.123102 248.917077 
C 78.523523 248.917077 78.907597 248.757988 79.190738 248.474848 
C 79.473878 248.191707 79.632967 247.807633 79.632967 247.407212 
C 79.632967 247.006791 79.473878 246.622716 79.190738 246.339576 
C 78.907597 246.056435 78.523523 245.897346 78.123102 245.897346 
C 77.722681 245.897346 77.338606 246.056435 77.055466 246.339576 
C 76.772325 246.622716 76.613236 247.006791 76.613236 247.407212 
C 76.613236 247.807633 76.772325 248.191707 77.055466 248.474848 
C 77.338606 248.757988 77.722681 248.917077 78.123102 248.917077 
z
" style="fill:#1f77b4;stroke:#1f77b4;"/>
    <path clip-path="url(#p1c070f91c5)" d="M 133.314219 244.086056 
C 134.193776 244.086056 135.037428 243.736604 135.659369 243.114663 
C 136.28131 242.492722 136.630762 241.649071 136.630762 240.769513 
C 136.630762 239.889956 136.28131 239.046304 135.659369 238.424363 
C 135.037428 237.802422 134.193776 237.45297 133.314219 237.45297 
C 132.434661 237.45297 131.59101 237.802422 130.969069 238.424363 
C 130.347128 239.046304 129.997676 239.889956 129.997676 240.769513 
C 129.997676 241.649071 130.347128 242.492722 130.969069 243.114663 
C 131.59101 243.736604 132.434661 244.086056 133.314219 244.086056 
z
" style="fill:#1f77b4;stroke:#1f77b4;"/>
    <path clip-path="url(#p1c070f91c5)" d="M 89.211271 192.173988 
C 90.073619 192.173988 90.900763 191.831374 91.510535 191.221602 
C 92.120307 190.61183 92.462922 189.784685 92.462922 188.922337 
C 92.462922 188.059989 92.120307 187.232845 91.510535 186.623073 
C 90.900763 186.013301 90.073619 185.670687 89.211271 185.670687 
C 88.348923 185.670687 87.521779 186.013301 86.912007 186.623073 
C 86.302235 187.232845 85.95962 188.059989 85.95962 188.922337 
C 85.95962 189.784685 86.302235 190.61183 86.912007 191.221602 
C 87.521779 191.831374 88.348923 192.173988 89.211271 192.173988 
z
" style="fill:#1f77b4;stroke:#1f77b4;"/>
    <path clip-path="url(#p1c070f91c5)" d="M 101.852817 296.012128 
C 101.993966 296.012128 102.129352 295.956049 102.229159 295.856242 
C 102.328966 295.756435 102.385045 295.621048 102.385045 295.4799 
C 102.385045 295.338751 102.328966 295.203365 102.229159 295.103558 
C 102.129352 295.003751 101.993966 294.947672 101.852817 294.947672 
C 101.711669 294.947672 101.576282 295.003751 101.476475 295.103558 
C 101.376668 295.203365 101.320589 295.338751 101.320589 295.4799 
C 101.320589 295.621048 101.376668 295.756435 101.476475 295.856242 
C 101.576282 295.956049 101.711669 296.012128 101.852817 296.012128 
z
" style="fill:#1f77b4;stroke:#1f77b4;"/>
    <path clip-path="url(#p1c070f91c5)" d="M 79.322646 225.980593 
C 80.141557 225.980593 80.927038 225.655236 81.506096 225.076179 
C 82.085154 224.497121 82.410511 223.71164 82.410511 222.892728 
C 82.410511 222.073817 82.085154 221.288336 81.506096 220.709278 
C 80.927038 220.13022 80.141557 219.804863 79.322646 219.804863 
C 78.503735 219.804863 77.718254 220.13022 77.139196 220.709278 
C 76.560138 221.288336 76.234781 222.073817 76.234781 222.892728 
C 76.234781 223.71164 76.560138 224.497121 77.139196 225.076179 
C 77.718254 225.655236 78.503735 225.980593 79.322646 225.980593 
z
" style="fill:#1f77b4;stroke:#1f77b4;"/>
    <path clip-path="url(#p1c070f91c5)" d="M 77.837531 190.881259 
C 78.154157 190.881259 78.457857 190.755462 78.681745 190.531574 
C 78.905633 190.307686 79.03143 190.003986 79.03143 189.68736 
C 79.03143 189.370734 78.905633 189.067034 78.681745 188.843146 
C 78.457857 188.619258 78.154157 188.493461 77.837531 188.493461 
C 77.520905 188.493461 77.217205 188.619258 76.993317 188.843146 
C 76.769429 189.067034 76.643632 189.370734 76.643632 189.68736 
C 76.643632 190.003986 76.769429 190.307686 76.993317 190.531574 
C 77.217205 190.755462 77.520905 190.881259 77.837531 190.881259 
z
" style="fill:#1f77b4;stroke:#1f77b4;"/>
    <path clip-path="url(#p1c070f91c5)" d="M 118.915443 104.083199 
C 119.340517 104.083199 119.748238 103.914315 120.04881 103.613743 
C 120.349382 103.313171 120.518266 102.90545 120.518266 102.480377 
C 120.518266 102.055303 120.349382 101.647582 120.04881 101.34701 
C 119.748238 101.046438 119.340517 100.877554 118.915443 100.877554 
C 118.49037 100.877554 118.082649 101.046438 117.782077 101.34701 
C 117.481504 101.647582 117.312621 102.055303 117.312621 102.480377 
C 117.312621 102.90545 117.481504 103.313171 117.782077 103.613743 
C 118.082649 103.914315 118.49037 104.083199 118.915443 104.083199 
z
" style="fill:#1f77b4;stroke:#1f77b4;"/>
    <path clip-path="url(#p1c070f91c5)" d="M 78.984614 231.077749 
C 79.70079 231.077749 80.387729 230.793209 80.894142 230.286796 
C 81.400555 229.780383 81.685095 229.093443 81.685095 228.377267 
C 81.685095 227.661091 81.400555 226.974152 80.894142 226.467739 
C 80.387729 225.961326 79.70079 225.676786 78.984614 225.676786 
C 78.268437 225.676786 77.581498 225.961326 77.075085 226.467739 
C 76.568672 226.974152 76.284132 227.661091 76.284132 228.377267 
C 76.284132 229.093443 76.568672 229.780383 77.075085 230.286796 
C 77.581498 230.793209 78.268437 231.077749 78.984614 231.077749 
z
" style="fill:#1f77b4;stroke:#1f77b4;"/>
    <path clip-path="url(#p1c070f91c5)" d="M 80.405692 281.606183 
C 80.86015 281.606183 81.296056 281.425625 81.617407 281.104274 
C 81.938758 280.782923 82.119316 280.347017 82.119316 279.892558 
C 82.119316 279.4381 81.938758 279.002194 81.617407 278.680843 
C 81.296056 278.359492 80.86015 278.178934 80.405692 278.178934 
C 79.951233 278.178934 79.515327 278.359492 79.193976 278.680843 
C 78.872625 279.002194 78.692067 279.4381 78.692067 279.892558 
C 78.692067 280.347017 78.872625 280.782923 79.193976 281.104274 
C 79.515327 281.425625 79.951233 281.606183 80.405692 281.606183 
z
" style="fill:#1f77b4;stroke:#1f77b4;"/>
    <path clip-path="url(#p1c070f91c5)" d="M 75.103874 275.44236 
C 75.569136 275.44236 76.015405 275.257509 76.344395 274.928519 
C 76.673385 274.599529 76.858236 274.15326 76.858236 273.687998 
C 76.858236 273.222736 76.673385 272.776467 76.344395 272.447477 
C 76.015405 272.118487 75.569136 271.933636 75.103874 271.933636 
C 74.638611 271.933636 74.192342 272.118487 73.863352 272.447477 
C 73.534362 272.776467 73.349512 273.222736 73.349512 273.687998 
C 73.349512 274.15326 73.534362 274.599529 73.863352 274.928519 
C 74.192342 275.257509 74.638611 275.44236 75.103874 275.44236 
z
" style="fill:#1f77b4;stroke:#1f77b4;"/>
    <path clip-path="url(#p1c070f91c5)" d="M 156.530505 97.796206 
C 157.37231 97.796206 158.17975 97.461754 158.774996 96.866508 
C 159.370242 96.271262 159.704694 95.463821 159.704694 94.622016 
C 159.704694 93.780211 159.370242 92.972771 158.774996 92.377525 
C 158.17975 91.782279 157.37231 91.447827 156.530505 91.447827 
C 155.6887 91.447827 154.881259 91.782279 154.286013 92.377525 
C 153.690767 92.972771 153.356315 93.780211 153.356315 94.622016 
C 153.356315 95.463821 153.690767 96.271262 154.286013 96.866508 
C 154.881259 97.461754 155.6887 97.796206 156.530505 97.796206 
z
" style="fill:#1f77b4;stroke:#1f77b4;"/>
    <path clip-path="url(#p1c070f91c5)" d="M 97.279683 151.067306 
C 97.680112 151.067306 98.064195 150.908214 98.347341 150.625068 
C 98.630487 150.341922 98.789579 149.957839 98.789579 149.55741 
C 98.789579 149.15698 98.630487 148.772898 98.347341 148.489752 
C 98.064195 148.206605 97.680112 148.047513 97.279683 148.047513 
C 96.879253 148.047513 96.495171 148.206605 96.212025 148.489752 
C 95.928878 148.772898 95.769786 149.15698 95.769786 149.55741 
C 95.769786 149.957839 95.928878 150.341922 96.212025 150.625068 
C 96.495171 150.908214 96.879253 151.067306 97.279683 151.067306 
z
" style="fill:#1f77b4;stroke:#1f77b4;"/>
    <path clip-path="url(#p1c070f91c5)" d="M 131.965735 117.995977 
C 133.793573 117.995977 135.546793 117.269769 136.839269 115.977293 
C 138.131745 114.684817 138.857953 112.931597 138.857953 111.103759 
C 138.857953 109.275922 138.131745 107.522702 136.839269 106.230226 
C 135.546793 104.93775 133.793573 104.211542 131.965735 104.211542 
C 130.137898 104.211542 128.384678 104.93775 127.092202 106.230226 
C 125.799725 107.522702 125.073518 109.275922 125.073518 111.103759 
C 125.073518 112.931597 125.799725 114.684817 127.092202 115.977293 
C 128.384678 117.269769 130.137898 117.995977 131.965735 117.995977 
z
" style="fill:#1f77b4;stroke:#1f77b4;"/>
    <path clip-path="url(#p1c070f91c5)" d="M 312.243132 67.512204 
C 313.00936 67.512204 313.744308 67.207779 314.286112 66.665974 
C 314.827917 66.12417 315.132342 65.389222 315.132342 64.622994 
C 315.132342 63.856767 314.827917 63.121819 314.286112 62.580014 
C 313.744308 62.038209 313.00936 61.733784 312.243132 61.733784 
C 311.476905 61.733784 310.741957 62.038209 310.200152 62.580014 
C 309.658347 63.121819 309.353922 63.856767 309.353922 64.622994 
C 309.353922 65.389222 309.658347 66.12417 310.200152 66.665974 
C 310.741957 67.207779 311.476905 67.512204 312.243132 67.512204 
z
" style="fill:#1f77b4;stroke:#1f77b4;"/>
    <path clip-path="url(#p1c070f91c5)" d="M 159.125241 78.453565 
C 159.660346 78.453565 160.173606 78.240966 160.551983 77.862589 
C 160.930359 77.484213 161.142958 76.970953 161.142958 76.435847 
C 161.142958 75.900742 160.930359 75.387482 160.551983 75.009106 
C 160.173606 74.630729 159.660346 74.41813 159.125241 74.41813 
C 158.590136 74.41813 158.076875 74.630729 157.698499 75.009106 
C 157.320122 75.387482 157.107523 75.900742 157.107523 76.435847 
C 157.107523 76.970953 157.320122 77.484213 157.698499 77.862589 
C 158.076875 78.240966 158.590136 78.453565 159.125241 78.453565 
z
" style="fill:#1f77b4;stroke:#1f77b4;"/>
    <path clip-path="url(#p1c070f91c5)" d="M 118.3443 111.62199 
C 119.22615 111.62199 120.072002 111.271627 120.695564 110.648065 
C 121.319127 110.024502 121.66949 109.178651 121.66949 108.296801 
C 121.66949 107.41495 121.319127 106.569099 120.695564 105.945536 
C 120.072002 105.321974 119.22615 104.971611 118.3443 104.971611 
C 117.462449 104.971611 116.616598 105.321974 115.993036 105.945536 
C 115.369473 106.569099 115.01911 107.41495 115.01911 108.296801 
C 115.01911 109.178651 115.369473 110.024502 115.993036 110.648065 
C 116.616598 111.271627 117.462449 111.62199 118.3443 111.62199 
z
" style="fill:#1f77b4;stroke:#1f77b4;"/>
    <path clip-path="url(#p1c070f91c5)" d="M 135.797458 76.164282 
C 136.067062 76.164282 136.325661 76.057167 136.516301 75.866527 
C 136.70694 75.675888 136.814055 75.417289 136.814055 75.147684 
C 136.814055 74.878079 136.70694 74.61948 136.516301 74.428841 
C 136.325661 74.238201 136.067062 74.131086 135.797458 74.131086 
C 135.527853 74.131086 135.269254 74.238201 135.078614 74.428841 
C 134.887975 74.61948 134.78086 74.878079 134.78086 75.147684 
C 134.78086 75.417289 134.887975 75.675888 135.078614 75.866527 
C 135.269254 76.057167 135.527853 76.164282 135.797458 76.164282 
z
" style="fill:#1f77b4;stroke:#1f77b4;"/>
    <path clip-path="url(#p1c070f91c5)" d="M 131.187181 79.700346 
C 131.635229 79.700346 132.064986 79.522335 132.381804 79.205517 
C 132.698622 78.8887 132.876633 78.458942 132.876633 78.010895 
C 132.876633 77.562847 132.698622 77.13309 132.381804 76.816272 
C 132.064986 76.499454 131.635229 76.321443 131.187181 76.321443 
C 130.739133 76.321443 130.309376 76.499454 129.992559 76.816272 
C 129.675741 77.13309 129.49773 77.562847 129.49773 78.010895 
C 129.49773 78.458942 129.675741 78.8887 129.992559 79.205517 
C 130.309376 79.522335 130.739133 79.700346 131.187181 79.700346 
z
" style="fill:#1f77b4;stroke:#1f77b4;"/>
    <path clip-path="url(#p1c070f91c5)" d="M 111.853771 113.502063 
C 112.258578 113.502063 112.646859 113.341232 112.933101 113.05499 
C 113.219342 112.768749 113.380174 112.380467 113.380174 111.975661 
C 113.380174 111.570854 113.219342 111.182572 112.933101 110.896331 
C 112.646859 110.610089 112.258578 110.449258 111.853771 110.449258 
C 111.448964 110.449258 111.060683 110.610089 110.774441 110.896331 
C 110.4882 111.182572 110.327368 111.570854 110.327368 111.975661 
C 110.327368 112.380467 110.4882 112.768749 110.774441 113.05499 
C 111.060683 113.341232 111.448964 113.502063 111.853771 113.502063 
z
" style="fill:#1f77b4;stroke:#1f77b4;"/>
    <path clip-path="url(#p1c070f91c5)" d="M 117.462421 98.310254 
C 117.954222 98.310254 118.425946 98.114859 118.773702 97.767103 
C 119.121458 97.419347 119.316853 96.947623 119.316853 96.455821 
C 119.316853 95.96402 119.121458 95.492296 118.773702 95.14454 
C 118.425946 94.796784 117.954222 94.601389 117.462421 94.601389 
C 116.970619 94.601389 116.498895 94.796784 116.151139 95.14454 
C 115.803383 95.492296 115.607988 95.96402 115.607988 96.455821 
C 115.607988 96.947623 115.803383 97.419347 116.151139 97.767103 
C 116.498895 98.114859 116.970619 98.310254 117.462421 98.310254 
z
" style="fill:#1f77b4;stroke:#1f77b4;"/>
    <path clip-path="url(#p1c070f91c5)" d="M 109.88902 115.30101 
C 110.238336 115.30101 110.573392 115.162225 110.820396 114.915222 
C 111.067399 114.668218 111.206184 114.333162 111.206184 113.983846 
C 111.206184 113.63453 111.067399 113.299474 110.820396 113.05247 
C 110.573392 112.805466 110.238336 112.666681 109.88902 112.666681 
C 109.539704 112.666681 109.204648 112.805466 108.957644 113.05247 
C 108.71064 113.299474 108.571855 113.63453 108.571855 113.983846 
C 108.571855 114.333162 108.71064 114.668218 108.957644 114.915222 
C 109.204648 115.162225 109.539704 115.30101 109.88902 115.30101 
z
" style="fill:#1f77b4;stroke:#1f77b4;"/>
    <path clip-path="url(#p1c070f91c5)" d="M 106.301763 124.863909 
C 106.771946 124.863909 107.222935 124.677104 107.555404 124.344634 
C 107.887874 124.012165 108.074679 123.561176 108.074679 123.090993 
C 108.074679 122.62081 107.887874 122.169821 107.555404 121.837352 
C 107.222935 121.504882 106.771946 121.318077 106.301763 121.318077 
C 105.83158 121.318077 105.380591 121.504882 105.048122 121.837352 
C 104.715652 122.169821 104.528847 122.62081 104.528847 123.090993 
C 104.528847 123.561176 104.715652 124.012165 105.048122 124.344634 
C 105.380591 124.677104 105.83158 124.863909 106.301763 124.863909 
z
" style="fill:#1f77b4;stroke:#1f77b4;"/>
    <path clip-path="url(#p1c070f91c5)" d="M 79.945467 177.104919 
C 80.332128 177.104919 80.703004 176.951298 80.976414 176.677887 
C 81.249824 176.404477 81.403446 176.033601 81.403446 175.64694 
C 81.403446 175.26028 81.249824 174.889403 80.976414 174.615993 
C 80.703004 174.342583 80.332128 174.188961 79.945467 174.188961 
C 79.558806 174.188961 79.18793 174.342583 78.91452 174.615993 
C 78.64111 174.889403 78.487488 175.26028 78.487488 175.64694 
C 78.487488 176.033601 78.64111 176.404477 78.91452 176.677887 
C 79.18793 176.951298 79.558806 177.104919 79.945467 177.104919 
z
" style="fill:#1f77b4;stroke:#1f77b4;"/>
    <path clip-path="url(#p1c070f91c5)" d="M 95.468495 124.801952 
C 95.831246 124.801952 96.179189 124.657829 96.435693 124.401326 
C 96.692196 124.144822 96.836319 123.796879 96.836319 123.434128 
C 96.836319 123.071377 96.692196 122.723435 96.435693 122.466931 
C 96.179189 122.210427 95.831246 122.066305 95.468495 122.066305 
C 95.105744 122.066305 94.757802 122.210427 94.501298 122.466931 
C 94.244795 122.723435 94.100672 123.071377 94.100672 123.434128 
C 94.100672 123.796879 94.244795 124.144822 94.501298 124.401326 
C 94.757802 124.657829 95.105744 124.801952 95.468495 124.801952 
z
" style="fill:#1f77b4;stroke:#1f77b4;"/>
    <path clip-path="url(#p1c070f91c5)" d="M 120.423346 110.941791 
C 120.644443 110.941791 120.856513 110.853949 121.012852 110.69761 
C 121.16919 110.541271 121.257033 110.329201 121.257033 110.108105 
C 121.257033 109.887008 121.16919 109.674938 121.012852 109.518599 
C 120.856513 109.362261 120.644443 109.274418 120.423346 109.274418 
C 120.20225 109.274418 119.99018 109.362261 119.833841 109.518599 
C 119.677502 109.674938 119.58966 109.887008 119.58966 110.108105 
C 119.58966 110.329201 119.677502 110.541271 119.833841 110.69761 
C 119.99018 110.853949 120.20225 110.941791 120.423346 110.941791 
z
" style="fill:#1f77b4;stroke:#1f77b4;"/>
    <path clip-path="url(#p1c070f91c5)" d="M 151.226686 94.91298 
C 152.609186 94.91298 153.935249 94.363707 154.912824 93.386132 
C 155.890399 92.408557 156.439672 91.082494 156.439672 89.699994 
C 156.439672 88.317494 155.890399 86.991432 154.912824 86.013857 
C 153.935249 85.036281 152.609186 84.487008 151.226686 84.487008 
C 149.844186 84.487008 148.518124 85.036281 147.540549 86.013857 
C 146.562973 86.991432 146.0137 88.317494 146.0137 89.699994 
C 146.0137 91.082494 146.562973 92.408557 147.540549 93.386132 
C 148.518124 94.363707 149.844186 94.91298 151.226686 94.91298 
z
" style="fill:#1f77b4;stroke:#1f77b4;"/>
    <path clip-path="url(#p1c070f91c5)" d="M 90.183164 109.431699 
C 90.499061 109.431699 90.802062 109.306192 91.025435 109.082819 
C 91.248808 108.859447 91.374315 108.556446 91.374315 108.240549 
C 91.374315 107.924652 91.248808 107.621651 91.025435 107.398278 
C 90.802062 107.174906 90.499061 107.049399 90.183164 107.049399 
C 89.867268 107.049399 89.564267 107.174906 89.340894 107.398278 
C 89.117521 107.621651 88.992014 107.924652 88.992014 108.240549 
C 88.992014 108.556446 89.117521 108.859447 89.340894 109.082819 
C 89.564267 109.306192 89.867268 109.431699 90.183164 109.431699 
z
" style="fill:#1f77b4;stroke:#1f77b4;"/>
    <path clip-path="url(#p1c070f91c5)" d="M 136.883115 94.301657 
C 137.121878 94.301657 137.350893 94.206795 137.519724 94.037964 
C 137.688555 93.869134 137.783417 93.640118 137.783417 93.401355 
C 137.783417 93.162592 137.688555 92.933576 137.519724 92.764745 
C 137.350893 92.595915 137.121878 92.501053 136.883115 92.501053 
C 136.644352 92.501053 136.415336 92.595915 136.246505 92.764745 
C 136.077674 92.933576 135.982813 93.162592 135.982813 93.401355 
C 135.982813 93.640118 136.077674 93.869134 136.246505 94.037964 
C 136.415336 94.206795 136.644352 94.301657 136.883115 94.301657 
z
" style="fill:#1f77b4;stroke:#1f77b4;"/>
    <path clip-path="url(#p1c070f91c5)" d="M 99.59952 115.983658 
C 99.941908 115.983658 100.270319 115.847626 100.512424 115.605521 
C 100.754529 115.363416 100.890561 115.035005 100.890561 114.692617 
C 100.890561 114.350229 100.754529 114.021818 100.512424 113.779713 
C 100.270319 113.537608 99.941908 113.401576 99.59952 113.401576 
C 99.257132 113.401576 98.928721 113.537608 98.686616 113.779713 
C 98.444511 114.021818 98.308479 114.350229 98.308479 114.692617 
C 98.308479 115.035005 98.444511 115.363416 98.686616 115.605521 
C 98.928721 115.847626 99.257132 115.983658 99.59952 115.983658 
z
" style="fill:#1f77b4;stroke:#1f77b4;"/>
    <path clip-path="url(#p1c070f91c5)" d="M 121.005621 119.231988 
C 121.715686 119.231988 122.396765 118.949876 122.898857 118.447784 
C 123.400949 117.945692 123.683061 117.264613 123.683061 116.554548 
C 123.683061 115.844482 123.400949 115.163403 122.898857 114.661311 
C 122.396765 114.159219 121.715686 113.877107 121.005621 113.877107 
C 120.295555 113.877107 119.614476 114.159219 119.112384 114.661311 
C 118.610292 115.163403 118.32818 115.844482 118.32818 116.554548 
C 118.32818 117.264613 118.610292 117.945692 119.112384 118.447784 
C 119.614476 118.949876 120.295555 119.231988 121.005621 119.231988 
z
" style="fill:#1f77b4;stroke:#1f77b4;"/>
    <path clip-path="url(#p1c070f91c5)" d="M 199.85334 76.342975 
C 200.11663 76.342975 200.369171 76.238369 200.555345 76.052195 
C 200.741519 75.866021 200.846126 75.61348 200.846126 75.35019 
C 200.846126 75.0869 200.741519 74.834359 200.555345 74.648185 
C 200.369171 74.462011 200.11663 74.357405 199.85334 74.357405 
C 199.59005 74.357405 199.337509 74.462011 199.151335 74.648185 
C 198.965161 74.834359 198.860555 75.0869 198.860555 75.35019 
C 198.860555 75.61348 198.965161 75.866021 199.151335 76.052195 
C 199.337509 76.238369 199.59005 76.342975 199.85334 76.342975 
z
" style="fill:#1f77b4;stroke:#1f77b4;"/>
    <path clip-path="url(#p1c070f91c5)" d="M 191.120416 126.080024 
C 191.256719 126.080024 191.387458 126.025871 191.483838 125.92949 
C 191.580219 125.833109 191.634373 125.70237 191.634373 125.566067 
C 191.634373 125.429764 191.580219 125.299025 191.483838 125.202644 
C 191.387458 125.106264 191.256719 125.05211 191.120416 125.05211 
C 190.984113 125.05211 190.853374 125.106264 190.756993 125.202644 
C 190.660612 125.299025 190.606459 125.429764 190.606459 125.566067 
C 190.606459 125.70237 190.660612 125.833109 190.756993 125.92949 
C 190.853374 126.025871 190.984113 126.080024 191.120416 126.080024 
z
" style="fill:#1f77b4;stroke:#1f77b4;"/>
    <path clip-path="url(#p1c070f91c5)" d="M 356.115587 86.861967 
C 358.416673 86.861967 360.623822 85.947736 362.250935 84.320623 
C 363.878048 82.693509 364.792279 80.48636 364.792279 78.185275 
C 364.792279 75.884189 363.878048 73.67704 362.250935 72.049927 
C 360.623822 70.422814 358.416673 69.508583 356.115587 69.508583 
C 353.814502 69.508583 351.607353 70.422814 349.980239 72.049927 
C 348.353126 73.67704 347.438895 75.884189 347.438895 78.185275 
C 347.438895 80.48636 348.353126 82.693509 349.980239 84.320623 
C 351.607353 85.947736 353.814502 86.861967 356.115587 86.861967 
z
" style="fill:#1f77b4;stroke:#1f77b4;"/>
    <path clip-path="url(#p1c070f91c5)" d="M 142.19006 89.565209 
C 142.436267 89.565209 142.672423 89.46739 142.846518 89.293295 
C 143.020612 89.119201 143.118431 88.883044 143.118431 88.636837 
C 143.118431 88.39063 143.020612 88.154474 142.846518 87.98038 
C 142.672423 87.806285 142.436267 87.708466 142.19006 87.708466 
C 141.943853 87.708466 141.707696 87.806285 141.533602 87.98038 
C 141.359507 88.154474 141.261688 88.39063 141.261688 88.636837 
C 141.261688 88.883044 141.359507 89.119201 141.533602 89.293295 
C 141.707696 89.46739 141.943853 89.565209 142.19006 89.565209 
z
" style="fill:#1f77b4;stroke:#1f77b4;"/>
    <path clip-path="url(#p1c070f91c5)" d="M 147.510666 106.024063 
C 148.187904 106.024063 148.837495 105.754994 149.316375 105.276115 
C 149.795254 104.797235 150.064324 104.147644 150.064324 103.470406 
C 150.064324 102.793168 149.795254 102.143577 149.316375 101.664698 
C 148.837495 101.185818 148.187904 100.916749 147.510666 100.916749 
C 146.833429 100.916749 146.183838 101.185818 145.704958 101.664698 
C 145.226079 102.143577 144.957009 102.793168 144.957009 103.470406 
C 144.957009 104.147644 145.226079 104.797235 145.704958 105.276115 
C 146.183838 105.754994 146.833429 106.024063 147.510666 106.024063 
z
" style="fill:#1f77b4;stroke:#1f77b4;"/>
    <path clip-path="url(#p1c070f91c5)" d="M 78.44352 274.593374 
C 79.192337 274.593374 79.910584 274.295866 80.440077 273.766373 
C 80.96957 273.236879 81.267078 272.518632 81.267078 271.769815 
C 81.267078 271.020999 80.96957 270.302751 80.440077 269.773258 
C 79.910584 269.243765 79.192337 268.946257 78.44352 268.946257 
C 77.694704 268.946257 76.976456 269.243765 76.446963 269.773258 
C 75.91747 270.302751 75.619962 271.020999 75.619962 271.769815 
C 75.619962 272.518632 75.91747 273.236879 76.446963 273.766373 
C 76.976456 274.295866 77.694704 274.593374 78.44352 274.593374 
z
" style="fill:#1f77b4;stroke:#1f77b4;"/>
    <path clip-path="url(#p1c070f91c5)" d="M 269.093227 93.270972 
C 269.204846 93.270972 269.311909 93.226625 269.390836 93.147698 
C 269.469763 93.068771 269.51411 92.961708 269.51411 92.850088 
C 269.51411 92.738469 269.469763 92.631406 269.390836 92.552479 
C 269.311909 92.473552 269.204846 92.429205 269.093227 92.429205 
C 268.981607 92.429205 268.874544 92.473552 268.795617 92.552479 
C 268.71669 92.631406 268.672343 92.738469 268.672343 92.850088 
C 268.672343 92.961708 268.71669 93.068771 268.795617 93.147698 
C 268.874544 93.226625 268.981607 93.270972 269.093227 93.270972 
z
" style="fill:#1f77b4;stroke:#1f77b4;"/>
    <path clip-path="url(#p1c070f91c5)" d="M 81.199753 164.08303 
C 82.826209 164.08303 84.386268 163.436832 85.536346 162.286754 
C 86.686424 161.136676 87.332622 159.576617 87.332622 157.950161 
C 87.332622 156.323705 86.686424 154.763645 85.536346 153.613567 
C 84.386268 152.463489 82.826209 151.817292 81.199753 151.817292 
C 79.573297 151.817292 78.013237 152.463489 76.863159 153.613567 
C 75.713081 154.763645 75.066884 156.323705 75.066884 157.950161 
C 75.066884 159.576617 75.713081 161.136676 76.863159 162.286754 
C 78.013237 163.436832 79.573297 164.08303 81.199753 164.08303 
z
" style="fill:#1f77b4;stroke:#1f77b4;"/>
    <path clip-path="url(#p1c070f91c5)" d="M 83.333207 184.237384 
C 83.831687 184.237384 84.309819 184.039336 84.662298 183.686857 
C 85.014777 183.334378 85.212825 182.856246 85.212825 182.357766 
C 85.212825 181.859285 85.014777 181.381154 84.662298 181.028675 
C 84.309819 180.676196 83.831687 180.478148 83.333207 180.478148 
C 82.834726 180.478148 82.356595 180.676196 82.004116 181.028675 
C 81.651637 181.381154 81.453589 181.859285 81.453589 182.357766 
C 81.453589 182.856246 81.651637 183.334378 82.004116 183.686857 
C 82.356595 184.039336 82.834726 184.237384 83.333207 184.237384 
z
" style="fill:#1f77b4;stroke:#1f77b4;"/>
    <path clip-path="url(#p1c070f91c5)" d="M 104.800621 126.048627 
C 109.615871 126.048627 114.234549 124.135508 117.639444 120.730612 
C 121.04434 117.325716 122.957459 112.707038 122.957459 107.891788 
C 122.957459 103.076539 121.04434 98.457861 117.639444 95.052965 
C 114.234549 91.648069 109.615871 89.73495 104.800621 89.73495 
C 99.985371 89.73495 95.366693 91.648069 91.961797 95.052965 
C 88.556902 98.457861 86.643783 103.076539 86.643783 107.891788 
C 86.643783 112.707038 88.556902 117.325716 91.961797 120.730612 
C 95.366693 124.135508 99.985371 126.048627 104.800621 126.048627 
z
" style="fill:#1f77b4;stroke:#1f77b4;"/>
    <path clip-path="url(#p1c070f91c5)" d="M 334.771618 57.196881 
C 335.121957 57.196881 335.457995 57.05769 335.705723 56.809962 
C 335.95345 56.562235 336.092641 56.226197 336.092641 55.875857 
C 336.092641 55.525518 335.95345 55.18948 335.705723 54.941753 
C 335.457995 54.694025 335.121957 54.554834 334.771618 54.554834 
C 334.421278 54.554834 334.085241 54.694025 333.837513 54.941753 
C 333.589786 55.18948 333.450594 55.525518 333.450594 55.875857 
C 333.450594 56.226197 333.589786 56.562235 333.837513 56.809962 
C 334.085241 57.05769 334.421278 57.196881 334.771618 57.196881 
z
" style="fill:#1f77b4;stroke:#1f77b4;"/>
    <path clip-path="url(#p1c070f91c5)" d="M 88.217822 171.033859 
C 92.636452 171.033859 96.874701 169.278319 99.999144 166.153876 
C 103.123587 163.029432 104.879127 158.791184 104.879127 154.372554 
C 104.879127 149.953924 103.123587 145.715675 99.999144 142.591232 
C 96.874701 139.466789 92.636452 137.711249 88.217822 137.711249 
C 83.799193 137.711249 79.560944 139.466789 76.436501 142.591232 
C 73.312058 145.715675 71.556517 149.953924 71.556517 154.372554 
C 71.556517 158.791184 73.312058 163.029432 76.436501 166.153876 
C 79.560944 169.278319 83.799193 171.033859 88.217822 171.033859 
z
" style="fill:#1f77b4;stroke:#1f77b4;"/>
    <path clip-path="url(#p1c070f91c5)" d="M 95.417698 128.367296 
C 97.400289 128.367296 99.301944 127.579605 100.703847 126.177702 
C 102.105751 124.775798 102.893442 122.874143 102.893442 120.891552 
C 102.893442 118.908962 102.105751 117.007306 100.703847 115.605403 
C 99.301944 114.2035 97.400289 113.415808 95.417698 113.415808 
C 93.435108 113.415808 91.533452 114.2035 90.131549 115.605403 
C 88.729646 117.007306 87.941954 118.908962 87.941954 120.891552 
C 87.941954 122.874143 88.729646 124.775798 90.131549 126.177702 
C 91.533452 127.579605 93.435108 128.367296 95.417698 128.367296 
z
" style="fill:#1f77b4;stroke:#1f77b4;"/>
    <path clip-path="url(#p1c070f91c5)" d="M 148.766885 123.29219 
C 149.87197 123.29219 150.931943 122.853135 151.713357 122.071721 
C 152.49477 121.290308 152.933825 120.230335 152.933825 119.125249 
C 152.933825 118.020164 152.49477 116.960191 151.713357 116.178778 
C 150.931943 115.397364 149.87197 114.958309 148.766885 114.958309 
C 147.661799 114.958309 146.601826 115.397364 145.820413 116.178778 
C 145.039 116.960191 144.599944 118.020164 144.599944 119.125249 
C 144.599944 120.230335 145.039 121.290308 145.820413 122.071721 
C 146.601826 122.853135 147.661799 123.29219 148.766885 123.29219 
z
" style="fill:#1f77b4;stroke:#1f77b4;"/>
    <path clip-path="url(#p1c070f91c5)" d="M 101.572224 185.981051 
C 102.267587 185.981051 102.934564 185.70478 103.426261 185.213083 
C 103.917957 184.721387 104.194228 184.05441 104.194228 183.359046 
C 104.194228 182.663682 103.917957 181.996705 103.426261 181.505008 
C 102.934564 181.013312 102.267587 180.737041 101.572224 180.737041 
C 100.87686 180.737041 100.209883 181.013312 99.718186 181.505008 
C 99.22649 181.996705 98.950219 182.663682 98.950219 183.359046 
C 98.950219 184.05441 99.22649 184.721387 99.718186 185.213083 
C 100.209883 185.70478 100.87686 185.981051 101.572224 185.981051 
z
" style="fill:#1f77b4;stroke:#1f77b4;"/>
    <path clip-path="url(#p1c070f91c5)" d="M 240.829483 65.373023 
C 241.16564 65.373023 241.488074 65.239467 241.725772 65.001768 
C 241.963471 64.764069 242.097028 64.441635 242.097028 64.105479 
C 242.097028 63.769322 241.963471 63.446888 241.725772 63.209189 
C 241.488074 62.97149 241.16564 62.837934 240.829483 62.837934 
C 240.493326 62.837934 240.170892 62.97149 239.933193 63.209189 
C 239.695495 63.446888 239.561938 63.769322 239.561938 64.105479 
C 239.561938 64.441635 239.695495 64.764069 239.933193 65.001768 
C 240.170892 65.239467 240.493326 65.373023 240.829483 65.373023 
z
" style="fill:#1f77b4;stroke:#1f77b4;"/>
    <path clip-path="url(#p1c070f91c5)" d="M 281.396979 59.299002 
C 282.894073 59.299002 284.330052 58.7042 285.388658 57.645594 
C 286.447263 56.586989 287.042065 55.15101 287.042065 53.653916 
C 287.042065 52.156822 286.447263 50.720843 285.388658 49.662238 
C 284.330052 48.603632 282.894073 48.00883 281.396979 48.00883 
C 279.899885 48.00883 278.463906 48.603632 277.405301 49.662238 
C 276.346695 50.720843 275.751894 52.156822 275.751894 53.653916 
C 275.751894 55.15101 276.346695 56.586989 277.405301 57.645594 
C 278.463906 58.7042 279.899885 59.299002 281.396979 59.299002 
z
" style="fill:#1f77b4;stroke:#1f77b4;"/>
    <path clip-path="url(#p1c070f91c5)" d="M 101.892377 111.518272 
C 102.21862 111.518272 102.531545 111.388654 102.762233 111.157966 
C 102.992922 110.927277 103.122539 110.614353 103.122539 110.28811 
C 103.122539 109.961867 102.992922 109.648943 102.762233 109.418254 
C 102.531545 109.187566 102.21862 109.057948 101.892377 109.057948 
C 101.566135 109.057948 101.25321 109.187566 101.022522 109.418254 
C 100.791833 109.648943 100.662216 109.961867 100.662216 110.28811 
C 100.662216 110.614353 100.791833 110.927277 101.022522 111.157966 
C 101.25321 111.388654 101.566135 111.518272 101.892377 111.518272 
z
" style="fill:#1f77b4;stroke:#1f77b4;"/>
    <path clip-path="url(#p1c070f91c5)" d="M 82.534707 142.166334 
C 83.174799 142.166334 83.788761 141.912023 84.241375 141.459409 
C 84.693989 141.006796 84.9483 140.392834 84.9483 139.752741 
C 84.9483 139.112649 84.693989 138.498687 84.241375 138.046073 
C 83.788761 137.59346 83.174799 137.339148 82.534707 137.339148 
C 81.894615 137.339148 81.280653 137.59346 80.828039 138.046073 
C 80.375425 138.498687 80.121114 139.112649 80.121114 139.752741 
C 80.121114 140.392834 80.375425 141.006796 80.828039 141.459409 
C 81.280653 141.912023 81.894615 142.166334 82.534707 142.166334 
z
" style="fill:#1f77b4;stroke:#1f77b4;"/>
    <path clip-path="url(#p1c070f91c5)" d="M 226.441274 79.543685 
C 227.369909 79.543685 228.260635 79.174734 228.917279 78.51809 
C 229.573923 77.861446 229.942873 76.970721 229.942873 76.042086 
C 229.942873 75.113451 229.573923 74.222725 228.917279 73.566081 
C 228.260635 72.909437 227.369909 72.540486 226.441274 72.540486 
C 225.512639 72.540486 224.621914 72.909437 223.96527 73.566081 
C 223.308625 74.222725 222.939675 75.113451 222.939675 76.042086 
C 222.939675 76.970721 223.308625 77.861446 223.96527 78.51809 
C 224.621914 79.174734 225.512639 79.543685 226.441274 79.543685 
z
" style="fill:#1f77b4;stroke:#1f77b4;"/>
    <path clip-path="url(#p1c070f91c5)" d="M 384.925489 82.655583 
C 385.135383 82.655583 385.336709 82.572191 385.485127 82.423773 
C 385.633545 82.275355 385.716937 82.074029 385.716937 81.864135 
C 385.716937 81.65424 385.633545 81.452914 385.485127 81.304497 
C 385.336709 81.156079 385.135383 81.072687 384.925489 81.072687 
C 384.715595 81.072687 384.514269 81.156079 384.365851 81.304497 
C 384.217433 81.452914 384.134041 81.65424 384.134041 81.864135 
C 384.134041 82.074029 384.217433 82.275355 384.365851 82.423773 
C 384.514269 82.572191 384.715595 82.655583 384.925489 82.655583 
z
" style="fill:#1f77b4;stroke:#1f77b4;"/>
    <path clip-path="url(#p1c070f91c5)" d="M 141.195158 114.327062 
C 141.457738 114.327062 141.709599 114.222738 141.895272 114.037065 
C 142.080944 113.851393 142.185268 113.599532 142.185268 113.336951 
C 142.185268 113.074371 142.080944 112.82251 141.895272 112.636837 
C 141.709599 112.451165 141.457738 112.34684 141.195158 112.34684 
C 140.932577 112.34684 140.680716 112.451165 140.495044 112.636837 
C 140.309371 112.82251 140.205047 113.074371 140.205047 113.336951 
C 140.205047 113.599532 140.309371 113.851393 140.495044 114.037065 
C 140.680716 114.222738 140.932577 114.327062 141.195158 114.327062 
z
" style="fill:#1f77b4;stroke:#1f77b4;"/>
    <path clip-path="url(#p1c070f91c5)" d="M 154.36266 103.182621 
C 155.023294 103.182621 155.656959 102.920149 156.124097 102.45301 
C 156.591236 101.985872 156.853709 101.352207 156.853709 100.691573 
C 156.853709 100.030939 156.591236 99.397274 156.124097 98.930136 
C 155.656959 98.462997 155.023294 98.200525 154.36266 98.200525 
C 153.702027 98.200525 153.068362 98.462997 152.601223 98.930136 
C 152.134085 99.397274 151.871612 100.030939 151.871612 100.691573 
C 151.871612 101.352207 152.134085 101.985872 152.601223 102.45301 
C 153.068362 102.920149 153.702027 103.182621 154.36266 103.182621 
z
" style="fill:#1f77b4;stroke:#1f77b4;"/>
    <path clip-path="url(#p1c070f91c5)" d="M 92.474888 143.379237 
C 92.699691 143.379237 92.915316 143.289922 93.074276 143.130963 
C 93.233235 142.972003 93.322551 142.756377 93.322551 142.531575 
C 93.322551 142.306772 93.233235 142.091146 93.074276 141.932187 
C 92.915316 141.773227 92.699691 141.683912 92.474888 141.683912 
C 92.250085 141.683912 92.03446 141.773227 91.8755 141.932187 
C 91.716541 142.091146 91.627225 142.306772 91.627225 142.531575 
C 91.627225 142.756377 91.716541 142.972003 91.8755 143.130963 
C 92.03446 143.289922 92.250085 143.379237 92.474888 143.379237 
z
" style="fill:#1f77b4;stroke:#1f77b4;"/>
    <path clip-path="url(#p1c070f91c5)" d="M 78.241236 172.616623 
C 79.157646 172.616623 80.036645 172.25253 80.684645 171.60453 
C 81.332644 170.956531 81.696738 170.077531 81.696738 169.161121 
C 81.696738 168.244711 81.332644 167.365712 80.684645 166.717712 
C 80.036645 166.069713 79.157646 165.705619 78.241236 165.705619 
C 77.324826 165.705619 76.445826 166.069713 75.797827 166.717712 
C 75.149827 167.365712 74.785734 168.244711 74.785734 169.161121 
C 74.785734 170.077531 75.149827 170.956531 75.797827 171.60453 
C 76.445826 172.25253 77.324826 172.616623 78.241236 172.616623 
z
" style="fill:#1f77b4;stroke:#1f77b4;"/>
    <path clip-path="url(#p1c070f91c5)" d="M 79.215999 162.196352 
C 79.92887 162.196352 80.612639 161.913125 81.116715 161.409049 
C 81.620791 160.904973 81.904018 160.221203 81.904018 159.508332 
C 81.904018 158.795461 81.620791 158.111692 81.116715 157.607616 
C 80.612639 157.10354 79.92887 156.820313 79.215999 156.820313 
C 78.503128 156.820313 77.819358 157.10354 77.315282 157.607616 
C 76.811206 158.111692 76.527979 158.795461 76.527979 159.508332 
C 76.527979 160.221203 76.811206 160.904973 77.315282 161.409049 
C 77.819358 161.913125 78.503128 162.196352 79.215999 162.196352 
z
" style="fill:#1f77b4;stroke:#1f77b4;"/>
    <path clip-path="url(#p1c070f91c5)" d="M 219.6151 93.717074 
C 219.852486 93.717074 220.080182 93.622759 220.248039 93.454902 
C 220.415896 93.287044 220.510211 93.059349 220.510211 92.821963 
C 220.510211 92.584576 220.415896 92.356881 220.248039 92.189023 
C 220.080182 92.021166 219.852486 91.926851 219.6151 91.926851 
C 219.377713 91.926851 219.150018 92.021166 218.98216 92.189023 
C 218.814303 92.356881 218.719988 92.584576 218.719988 92.821963 
C 218.719988 93.059349 218.814303 93.287044 218.98216 93.454902 
C 219.150018 93.622759 219.377713 93.717074 219.6151 93.717074 
z
" style="fill:#1f77b4;stroke:#1f77b4;"/>
    <path clip-path="url(#p1c070f91c5)" d="M 89.234771 156.461999 
C 90.959971 156.461999 92.614743 155.77657 93.834643 154.556669 
C 95.054544 153.336769 95.739973 151.681996 95.739973 149.956797 
C 95.739973 148.231597 95.054544 146.576825 93.834643 145.356924 
C 92.614743 144.137024 90.959971 143.451595 89.234771 143.451595 
C 87.509571 143.451595 85.854799 144.137024 84.634898 145.356924 
C 83.414998 146.576825 82.729569 148.231597 82.729569 149.956797 
C 82.729569 151.681996 83.414998 153.336769 84.634898 154.556669 
C 85.854799 155.77657 87.509571 156.461999 89.234771 156.461999 
z
" style="fill:#1f77b4;stroke:#1f77b4;"/>
    <path clip-path="url(#p1c070f91c5)" d="M 93.101372 119.824349 
C 94.366847 119.824349 95.580662 119.32157 96.475489 118.426744 
C 97.370315 117.531918 97.873093 116.318103 97.873093 115.052628 
C 97.873093 113.787152 97.370315 112.573337 96.475489 111.678511 
C 95.580662 110.783685 94.366847 110.280907 93.101372 110.280907 
C 91.835897 110.280907 90.622082 110.783685 89.727256 111.678511 
C 88.83243 112.573337 88.329651 113.787152 88.329651 115.052628 
C 88.329651 116.318103 88.83243 117.531918 89.727256 118.426744 
C 90.622082 119.32157 91.835897 119.824349 93.101372 119.824349 
z
" style="fill:#1f77b4;stroke:#1f77b4;"/>
    <path clip-path="url(#p1c070f91c5)" d="M 215.240296 111.553654 
C 215.936941 111.553654 216.605146 111.276874 217.097748 110.784272 
C 217.590351 110.29167 217.86713 109.623464 217.86713 108.926819 
C 217.86713 108.230175 217.590351 107.561969 217.097748 107.069367 
C 216.605146 106.576765 215.936941 106.299985 215.240296 106.299985 
C 214.543651 106.299985 213.875446 106.576765 213.382843 107.069367 
C 212.890241 107.561969 212.613461 108.230175 212.613461 108.926819 
C 212.613461 109.623464 212.890241 110.29167 213.382843 110.784272 
C 213.875446 111.276874 214.543651 111.553654 215.240296 111.553654 
z
" style="fill:#1f77b4;stroke:#1f77b4;"/>
    <path clip-path="url(#p1c070f91c5)" d="M 383.841909 69.520623 
C 384.124852 69.520623 384.396243 69.408209 384.596314 69.208138 
C 384.796384 69.008068 384.908798 68.736676 384.908798 68.453734 
C 384.908798 68.170791 384.796384 67.8994 384.596314 67.699329 
C 384.396243 67.499259 384.124852 67.386845 383.841909 67.386845 
C 383.558967 67.386845 383.287575 67.499259 383.087505 67.699329 
C 382.887434 67.8994 382.77502 68.170791 382.77502 68.453734 
C 382.77502 68.736676 382.887434 69.008068 383.087505 69.208138 
C 383.287575 69.408209 383.558967 69.520623 383.841909 69.520623 
z
" style="fill:#1f77b4;stroke:#1f77b4;"/>
    <path clip-path="url(#p1c070f91c5)" d="M 98.258405 113.327122 
C 98.856998 113.327122 99.431156 113.089298 99.854425 112.666028 
C 100.277694 112.242759 100.515518 111.668602 100.515518 111.070008 
C 100.515518 110.471415 100.277694 109.897258 99.854425 109.473988 
C 99.431156 109.050719 98.856998 108.812895 98.258405 108.812895 
C 97.659812 108.812895 97.085654 109.050719 96.662385 109.473988 
C 96.239116 109.897258 96.001292 110.471415 96.001292 111.070008 
C 96.001292 111.668602 96.239116 112.242759 96.662385 112.666028 
C 97.085654 113.089298 97.659812 113.327122 98.258405 113.327122 
z
" style="fill:#1f77b4;stroke:#1f77b4;"/>
    <path clip-path="url(#p1c070f91c5)" d="M 99.676977 103.440267 
C 100.259742 103.440267 100.818716 103.208732 101.230793 102.796655 
C 101.64287 102.384579 101.874405 101.825604 101.874405 101.24284 
C 101.874405 100.660075 101.64287 100.101101 101.230793 99.689024 
C 100.818716 99.276947 100.259742 99.045412 99.676977 99.045412 
C 99.094213 99.045412 98.535238 99.276947 98.123162 99.689024 
C 97.711085 100.101101 97.47955 100.660075 97.47955 101.24284 
C 97.47955 101.825604 97.711085 102.384579 98.123162 102.796655 
C 98.535238 103.208732 99.094213 103.440267 99.676977 103.440267 
z
" style="fill:#1f77b4;stroke:#1f77b4;"/>
    <path clip-path="url(#p1c070f91c5)" d="M 261.963929 79.703483 
C 262.602269 79.703483 263.21455 79.449867 263.665924 78.998493 
C 264.117298 78.547119 264.370913 77.934838 264.370913 77.296498 
C 264.370913 76.658159 264.117298 76.045878 263.665924 75.594503 
C 263.21455 75.143129 262.602269 74.889514 261.963929 74.889514 
C 261.325589 74.889514 260.713308 75.143129 260.261934 75.594503 
C 259.81056 76.045878 259.556945 76.658159 259.556945 77.296498 
C 259.556945 77.934838 259.81056 78.547119 260.261934 78.998493 
C 260.713308 79.449867 261.325589 79.703483 261.963929 79.703483 
z
" style="fill:#1f77b4;stroke:#1f77b4;"/>
    <path clip-path="url(#p1c070f91c5)" d="M 121.332995 125.11605 
C 122.402623 125.11605 123.428586 124.691082 124.184927 123.93474 
C 124.941268 123.178399 125.366236 122.152436 125.366236 121.082808 
C 125.366236 120.01318 124.941268 118.987217 124.184927 118.230876 
C 123.428586 117.474534 122.402623 117.049566 121.332995 117.049566 
C 120.263366 117.049566 119.237403 117.474534 118.481062 118.230876 
C 117.724721 118.987217 117.299753 120.01318 117.299753 121.082808 
C 117.299753 122.152436 117.724721 123.178399 118.481062 123.93474 
C 119.237403 124.691082 120.263366 125.11605 121.332995 125.11605 
z
" style="fill:#1f77b4;stroke:#1f77b4;"/>
    <path clip-path="url(#p1c070f91c5)" d="M 88.14748 105.263453 
C 89.371891 105.263453 90.546318 104.776989 91.412108 103.911199 
C 92.277897 103.04541 92.764361 101.870983 92.764361 100.646572 
C 92.764361 99.422161 92.277897 98.247733 91.412108 97.381944 
C 90.546318 96.516155 89.371891 96.029691 88.14748 96.029691 
C 86.923069 96.029691 85.748642 96.516155 84.882852 97.381944 
C 84.017063 98.247733 83.530599 99.422161 83.530599 100.646572 
C 83.530599 101.870983 84.017063 103.04541 84.882852 103.911199 
C 85.748642 104.776989 86.923069 105.263453 88.14748 105.263453 
z
" style="fill:#1f77b4;stroke:#1f77b4;"/>
    <path clip-path="url(#p1c070f91c5)" d="M 92.009054 106.300875 
C 92.274864 106.300875 92.529823 106.195267 92.717779 106.007311 
C 92.905735 105.819355 93.011343 105.564396 93.011343 105.298586 
C 93.011343 105.032776 92.905735 104.777817 92.717779 104.589861 
C 92.529823 104.401904 92.274864 104.296297 92.009054 104.296297 
C 91.743244 104.296297 91.488285 104.401904 91.300329 104.589861 
C 91.112372 104.777817 91.006765 105.032776 91.006765 105.298586 
C 91.006765 105.564396 91.112372 105.819355 91.300329 106.007311 
C 91.488285 106.195267 91.743244 106.300875 92.009054 106.300875 
z
" style="fill:#1f77b4;stroke:#1f77b4;"/>
    <path clip-path="url(#p1c070f91c5)" d="M 87.083769 167.979357 
C 87.708711 167.979357 88.308142 167.731065 88.750043 167.289164 
C 89.191944 166.847263 89.440236 166.247833 89.440236 165.62289 
C 89.440236 164.997948 89.191944 164.398518 88.750043 163.956617 
C 88.308142 163.514716 87.708711 163.266424 87.083769 163.266424 
C 86.458827 163.266424 85.859396 163.514716 85.417495 163.956617 
C 84.975594 164.398518 84.727302 164.997948 84.727302 165.62289 
C 84.727302 166.247833 84.975594 166.847263 85.417495 167.289164 
C 85.859396 167.731065 86.458827 167.979357 87.083769 167.979357 
z
" style="fill:#1f77b4;stroke:#1f77b4;"/>
    <path clip-path="url(#p1c070f91c5)" d="M 111.26938 89.366208 
C 111.520992 89.366208 111.762333 89.266242 111.94025 89.088325 
C 112.118166 88.910408 112.218133 88.669068 112.218133 88.417456 
C 112.218133 88.165844 112.118166 87.924503 111.94025 87.746587 
C 111.762333 87.56867 111.520992 87.468704 111.26938 87.468704 
C 111.017768 87.468704 110.776428 87.56867 110.598511 87.746587 
C 110.420595 87.924503 110.320628 88.165844 110.320628 88.417456 
C 110.320628 88.669068 110.420595 88.910408 110.598511 89.088325 
C 110.776428 89.266242 111.017768 89.366208 111.26938 89.366208 
z
" style="fill:#1f77b4;stroke:#1f77b4;"/>
    <path clip-path="url(#p1c070f91c5)" d="M 310.968171 70.689896 
C 311.347879 70.689896 311.712086 70.539036 311.98058 70.270542 
C 312.249074 70.002048 312.399934 69.637841 312.399934 69.258133 
C 312.399934 68.878425 312.249074 68.514217 311.98058 68.245723 
C 311.712086 67.977229 311.347879 67.82637 310.968171 67.82637 
C 310.588463 67.82637 310.224255 67.977229 309.955761 68.245723 
C 309.687267 68.514217 309.536407 68.878425 309.536407 69.258133 
C 309.536407 69.637841 309.687267 70.002048 309.955761 70.270542 
C 310.224255 70.539036 310.588463 70.689896 310.968171 70.689896 
z
" style="fill:#1f77b4;stroke:#1f77b4;"/>
    <path clip-path="url(#p1c070f91c5)" d="M 294.868367 73.052547 
C 295.295835 73.052547 295.705852 72.882712 296.008117 72.580447 
C 296.310382 72.278182 296.480216 71.868165 296.480216 71.440698 
C 296.480216 71.013231 296.310382 70.603214 296.008117 70.300949 
C 295.705852 69.998684 295.295835 69.828849 294.868367 69.828849 
C 294.4409 69.828849 294.030883 69.998684 293.728618 70.300949 
C 293.426353 70.603214 293.256519 71.013231 293.256519 71.440698 
C 293.256519 71.868165 293.426353 72.278182 293.728618 72.580447 
C 294.030883 72.882712 294.4409 73.052547 294.868367 73.052547 
z
" style="fill:#1f77b4;stroke:#1f77b4;"/>
    <path clip-path="url(#p1c070f91c5)" d="M 121.252971 98.321389 
C 121.535888 98.321389 121.807256 98.208985 122.007309 98.008933 
C 122.207361 97.80888 122.319765 97.537512 122.319765 97.254595 
C 122.319765 96.971678 122.207361 96.700311 122.007309 96.500258 
C 121.807256 96.300205 121.535888 96.187801 121.252971 96.187801 
C 120.970054 96.187801 120.698687 96.300205 120.498634 96.500258 
C 120.298581 96.700311 120.186177 96.971678 120.186177 97.254595 
C 120.186177 97.537512 120.298581 97.80888 120.498634 98.008933 
C 120.698687 98.208985 120.970054 98.321389 121.252971 98.321389 
z
" style="fill:#1f77b4;stroke:#1f77b4;"/>
    <path clip-path="url(#p1c070f91c5)" d="M 142.648666 108.99732 
C 143.007496 108.99732 143.351678 108.854755 143.605409 108.601024 
C 143.85914 108.347293 144.001705 108.003111 144.001705 107.644281 
C 144.001705 107.285451 143.85914 106.941269 143.605409 106.687538 
C 143.351678 106.433807 143.007496 106.291242 142.648666 106.291242 
C 142.289836 106.291242 141.945654 106.433807 141.691923 106.687538 
C 141.438192 106.941269 141.295627 107.285451 141.295627 107.644281 
C 141.295627 108.003111 141.438192 108.347293 141.691923 108.601024 
C 141.945654 108.854755 142.289836 108.99732 142.648666 108.99732 
z
" style="fill:#1f77b4;stroke:#1f77b4;"/>
    <path clip-path="url(#p1c070f91c5)" d="M 168.700792 93.274316 
C 168.981873 93.274316 169.25148 93.162641 169.450234 92.963887 
C 169.648989 92.765132 169.760663 92.495526 169.760663 92.214444 
C 169.760663 91.933363 169.648989 91.663756 169.450234 91.465002 
C 169.25148 91.266248 168.981873 91.154573 168.700792 91.154573 
C 168.41971 91.154573 168.150104 91.266248 167.951349 91.465002 
C 167.752595 91.663756 167.64092 91.933363 167.64092 92.214444 
C 167.64092 92.495526 167.752595 92.765132 167.951349 92.963887 
C 168.150104 93.162641 168.41971 93.274316 168.700792 93.274316 
z
" style="fill:#1f77b4;stroke:#1f77b4;"/>
    <path clip-path="url(#p1c070f91c5)" d="M 223.035742 89.662191 
C 223.459834 89.662191 223.866613 89.493697 224.166491 89.193819 
C 224.466369 88.893941 224.634863 88.487162 224.634863 88.06307 
C 224.634863 87.638979 224.466369 87.2322 224.166491 86.932321 
C 223.866613 86.632443 223.459834 86.46395 223.035742 86.46395 
C 222.611651 86.46395 222.204872 86.632443 221.904994 86.932321 
C 221.605116 87.2322 221.436622 87.638979 221.436622 88.06307 
C 221.436622 88.487162 221.605116 88.893941 221.904994 89.193819 
C 222.204872 89.493697 222.611651 89.662191 223.035742 89.662191 
z
" style="fill:#1f77b4;stroke:#1f77b4;"/>
    <path clip-path="url(#p1c070f91c5)" d="M 305.358288 78.84821 
C 305.668364 78.84821 305.965781 78.725016 306.185038 78.505759 
C 306.404294 78.286503 306.527489 77.989085 306.527489 77.67901 
C 306.527489 77.368934 306.404294 77.071517 306.185038 76.85226 
C 305.965781 76.633003 305.668364 76.509809 305.358288 76.509809 
C 305.048212 76.509809 304.750795 76.633003 304.531538 76.85226 
C 304.312282 77.071517 304.189087 77.368934 304.189087 77.67901 
C 304.189087 77.989085 304.312282 78.286503 304.531538 78.505759 
C 304.750795 78.725016 305.048212 78.84821 305.358288 78.84821 
z
" style="fill:#1f77b4;stroke:#1f77b4;"/>
    <path clip-path="url(#p1c070f91c5)" d="M 291.656721 73.305104 
C 291.960215 73.305104 292.25132 73.184524 292.465922 72.969921 
C 292.680525 72.755319 292.801105 72.464214 292.801105 72.16072 
C 292.801105 71.857225 292.680525 71.566121 292.465922 71.351518 
C 292.25132 71.136915 291.960215 71.016335 291.656721 71.016335 
C 291.353226 71.016335 291.062122 71.136915 290.847519 71.351518 
C 290.632916 71.566121 290.512337 71.857225 290.512337 72.16072 
C 290.512337 72.464214 290.632916 72.755319 290.847519 72.969921 
C 291.062122 73.184524 291.353226 73.305104 291.656721 73.305104 
z
" style="fill:#1f77b4;stroke:#1f77b4;"/>
    <path clip-path="url(#p1c070f91c5)" d="M 273.551427 68.508303 
C 274.58779 68.508303 275.581846 68.096552 276.314666 67.363732 
C 277.047485 66.630913 277.459237 65.636857 277.459237 64.600493 
C 277.459237 63.56413 277.047485 62.570074 276.314666 61.837255 
C 275.581846 61.104435 274.58779 60.692683 273.551427 60.692683 
C 272.515063 60.692683 271.521007 61.104435 270.788188 61.837255 
C 270.055368 62.570074 269.643617 63.56413 269.643617 64.600493 
C 269.643617 65.636857 270.055368 66.630913 270.788188 67.363732 
C 271.521007 68.096552 272.515063 68.508303 273.551427 68.508303 
z
" style="fill:#1f77b4;stroke:#1f77b4;"/>
    <path clip-path="url(#p1c070f91c5)" d="M 284.799039 76.176329 
C 286.002729 76.176329 287.157282 75.698097 288.00842 74.84696 
C 288.859557 73.995822 289.337789 72.841269 289.337789 71.637579 
C 289.337789 70.433888 288.859557 69.279336 288.00842 68.428198 
C 287.157282 67.577061 286.002729 67.098829 284.799039 67.098829 
C 283.595349 67.098829 282.440796 67.577061 281.589658 68.428198 
C 280.738521 69.279336 280.260289 70.433888 280.260289 71.637579 
C 280.260289 72.841269 280.738521 73.995822 281.589658 74.84696 
C 282.440796 75.698097 283.595349 76.176329 284.799039 76.176329 
z
" style="fill:#1f77b4;stroke:#1f77b4;"/>
    <path clip-path="url(#p1c070f91c5)" d="M 254.159299 72.840464 
C 254.593177 72.840464 255.009343 72.668083 255.316142 72.361284 
C 255.62294 72.054486 255.795322 71.638319 255.795322 71.204441 
C 255.795322 70.770563 255.62294 70.354396 255.316142 70.047598 
C 255.009343 69.740799 254.593177 69.568418 254.159299 69.568418 
C 253.72542 69.568418 253.309254 69.740799 253.002455 70.047598 
C 252.695657 70.354396 252.523275 70.770563 252.523275 71.204441 
C 252.523275 71.638319 252.695657 72.054486 253.002455 72.361284 
C 253.309254 72.668083 253.72542 72.840464 254.159299 72.840464 
z
" style="fill:#1f77b4;stroke:#1f77b4;"/>
    <path clip-path="url(#p1c070f91c5)" d="M 191.123295 107.348765 
C 191.541696 107.348765 191.943018 107.182532 192.238872 106.886678 
C 192.534727 106.590823 192.70096 106.189502 192.70096 105.7711 
C 192.70096 105.352698 192.534727 104.951377 192.238872 104.655522 
C 191.943018 104.359668 191.541696 104.193435 191.123295 104.193435 
C 190.704893 104.193435 190.303572 104.359668 190.007717 104.655522 
C 189.711862 104.951377 189.54563 105.352698 189.54563 105.7711 
C 189.54563 106.189502 189.711862 106.590823 190.007717 106.886678 
C 190.303572 107.182532 190.704893 107.348765 191.123295 107.348765 
z
" style="fill:#1f77b4;stroke:#1f77b4;"/>
    <path clip-path="url(#p1c070f91c5)" d="M 311.327334 58.68755 
C 311.400196 58.68755 311.470084 58.658601 311.521605 58.60708 
C 311.573127 58.555558 311.602075 58.485671 311.602075 58.412808 
C 311.602075 58.339946 311.573127 58.270058 311.521605 58.218537 
C 311.470084 58.167016 311.400196 58.138067 311.327334 58.138067 
C 311.254472 58.138067 311.184584 58.167016 311.133062 58.218537 
C 311.081541 58.270058 311.052593 58.339946 311.052593 58.412808 
C 311.052593 58.485671 311.081541 58.555558 311.133062 58.60708 
C 311.184584 58.658601 311.254472 58.68755 311.327334 58.68755 
z
" style="fill:#1f77b4;stroke:#1f77b4;"/>
    <path clip-path="url(#p1c070f91c5)" d="M 341.062458 75.581836 
C 341.331253 75.581836 341.589075 75.475042 341.779142 75.284975 
C 341.969208 75.094909 342.076002 74.837087 342.076002 74.568292 
C 342.076002 74.299497 341.969208 74.041675 341.779142 73.851608 
C 341.589075 73.661541 341.331253 73.554748 341.062458 73.554748 
C 340.793663 73.554748 340.535841 73.661541 340.345774 73.851608 
C 340.155707 74.041675 340.048914 74.299497 340.048914 74.568292 
C 340.048914 74.837087 340.155707 75.094909 340.345774 75.284975 
C 340.535841 75.475042 340.793663 75.581836 341.062458 75.581836 
z
" style="fill:#1f77b4;stroke:#1f77b4;"/>
    <path clip-path="url(#p1c070f91c5)" d="M 260.981246 69.03762 
C 261.992394 69.03762 262.962265 68.635887 263.677255 67.920897 
C 264.392245 67.205906 264.793979 66.236036 264.793979 65.224887 
C 264.793979 64.213739 264.392245 63.243868 263.677255 62.528878 
C 262.962265 61.813888 261.992394 61.412154 260.981246 61.412154 
C 259.970097 61.412154 259.000226 61.813888 258.285236 62.528878 
C 257.570246 63.243868 257.168513 64.213739 257.168513 65.224887 
C 257.168513 66.236036 257.570246 67.205906 258.285236 67.920897 
C 259.000226 68.635887 259.970097 69.03762 260.981246 69.03762 
z
" style="fill:#1f77b4;stroke:#1f77b4;"/>
    <path clip-path="url(#p1c070f91c5)" d="M 133.209958 99.406516 
C 133.319684 99.406516 133.42493 99.362921 133.502519 99.285333 
C 133.580107 99.207745 133.623701 99.102498 133.623701 98.992772 
C 133.623701 98.883046 133.580107 98.777799 133.502519 98.700211 
C 133.42493 98.622623 133.319684 98.579028 133.209958 98.579028 
C 133.100231 98.579028 132.994985 98.622623 132.917396 98.700211 
C 132.839808 98.777799 132.796214 98.883046 132.796214 98.992772 
C 132.796214 99.102498 132.839808 99.207745 132.917396 99.285333 
C 132.994985 99.362921 133.100231 99.406516 133.209958 99.406516 
z
" style="fill:#1f77b4;stroke:#1f77b4;"/>
    <path clip-path="url(#p1c070f91c5)" d="M 315.40965 71.67037 
C 315.949431 71.67037 316.467177 71.455913 316.84886 71.074229 
C 317.230543 70.692546 317.445001 70.1748 317.445001 69.635019 
C 317.445001 69.095238 317.230543 68.577492 316.84886 68.195809 
C 316.467177 67.814126 315.949431 67.599668 315.40965 67.599668 
C 314.869869 67.599668 314.352123 67.814126 313.97044 68.195809 
C 313.588757 68.577492 313.374299 69.095238 313.374299 69.635019 
C 313.374299 70.1748 313.588757 70.692546 313.97044 71.074229 
C 314.352123 71.455913 314.869869 71.67037 315.40965 71.67037 
z
" style="fill:#1f77b4;stroke:#1f77b4;"/>
    <path clip-path="url(#p1c070f91c5)" d="M 398.487258 68.269327 
C 398.772519 68.269327 399.046134 68.155992 399.247844 67.954282 
C 399.449554 67.752572 399.562889 67.478957 399.562889 67.193696 
C 399.562889 66.908435 399.449554 66.63482 399.247844 66.43311 
C 399.046134 66.231401 398.772519 66.118065 398.487258 66.118065 
C 398.201998 66.118065 397.928382 66.231401 397.726673 66.43311 
C 397.524963 66.63482 397.411628 66.908435 397.411628 67.193696 
C 397.411628 67.478957 397.524963 67.752572 397.726673 67.954282 
C 397.928382 68.155992 398.201998 68.269327 398.487258 68.269327 
z
" style="fill:#1f77b4;stroke:#1f77b4;"/>
    <path clip-path="url(#p1c070f91c5)" d="M 173.79887 96.358254 
C 174.621836 96.358254 175.411206 96.031286 175.993131 95.449361 
C 176.575056 94.867437 176.902023 94.078066 176.902023 93.255101 
C 176.902023 92.432135 176.575056 91.642765 175.993131 91.06084 
C 175.411206 90.478915 174.621836 90.151947 173.79887 90.151947 
C 172.975904 90.151947 172.186534 90.478915 171.604609 91.06084 
C 171.022685 91.642765 170.695717 92.432135 170.695717 93.255101 
C 170.695717 94.078066 171.022685 94.867437 171.604609 95.449361 
C 172.186534 96.031286 172.975904 96.358254 173.79887 96.358254 
z
" style="fill:#1f77b4;stroke:#1f77b4;"/>
    <path clip-path="url(#p1c070f91c5)" d="M 207.665074 80.626467 
C 208.097665 80.626467 208.512596 80.454597 208.818484 80.148709 
C 209.124372 79.842821 209.296242 79.42789 209.296242 78.995299 
C 209.296242 78.562708 209.124372 78.147777 208.818484 77.841889 
C 208.512596 77.536001 208.097665 77.364131 207.665074 77.364131 
C 207.232483 77.364131 206.817552 77.536001 206.511664 77.841889 
C 206.205776 78.147777 206.033906 78.562708 206.033906 78.995299 
C 206.033906 79.42789 206.205776 79.842821 206.511664 80.148709 
C 206.817552 80.454597 207.232483 80.626467 207.665074 80.626467 
z
" style="fill:#1f77b4;stroke:#1f77b4;"/>
    <path clip-path="url(#p1c070f91c5)" d="M 143.493269 112.979871 
C 144.119115 112.979871 144.719413 112.731219 145.161953 112.288679 
C 145.604493 111.846139 145.853145 111.245841 145.853145 110.619995 
C 145.853145 109.994149 145.604493 109.393851 145.161953 108.951311 
C 144.719413 108.508771 144.119115 108.260119 143.493269 108.260119 
C 142.867422 108.260119 142.267125 108.508771 141.824585 108.951311 
C 141.382044 109.393851 141.133393 109.994149 141.133393 110.619995 
C 141.133393 111.245841 141.382044 111.846139 141.824585 112.288679 
C 142.267125 112.731219 142.867422 112.979871 143.493269 112.979871 
z
" style="fill:#1f77b4;stroke:#1f77b4;"/>
    <path clip-path="url(#p1c070f91c5)" d="M 136.733282 103.628962 
C 137.155744 103.628962 137.56096 103.461116 137.859685 103.162391 
C 138.158411 102.863665 138.326256 102.45845 138.326256 102.035988 
C 138.326256 101.613527 138.158411 101.208311 137.859685 100.909586 
C 137.56096 100.61086 137.155744 100.443014 136.733282 100.443014 
C 136.310821 100.443014 135.905605 100.61086 135.60688 100.909586 
C 135.308154 101.208311 135.140308 101.613527 135.140308 102.035988 
C 135.140308 102.45845 135.308154 102.863665 135.60688 103.162391 
C 135.905605 103.461116 136.310821 103.628962 136.733282 103.628962 
z
" style="fill:#1f77b4;stroke:#1f77b4;"/>
    <path clip-path="url(#p1c070f91c5)" d="M 195.551077 99.484746 
C 195.860567 99.484746 196.157423 99.361784 196.376266 99.142942 
C 196.595109 98.924099 196.718071 98.627243 196.718071 98.317752 
C 196.718071 98.008262 196.595109 97.711405 196.376266 97.492563 
C 196.157423 97.27372 195.860567 97.150758 195.551077 97.150758 
C 195.241586 97.150758 194.94473 97.27372 194.725887 97.492563 
C 194.507044 97.711405 194.384082 98.008262 194.384082 98.317752 
C 194.384082 98.627243 194.507044 98.924099 194.725887 99.142942 
C 194.94473 99.361784 195.241586 99.484746 195.551077 99.484746 
z
" style="fill:#1f77b4;stroke:#1f77b4;"/>
    <path clip-path="url(#p1c070f91c5)" d="M 242.449992 80.671567 
C 242.637952 80.671567 242.818239 80.59689 242.951147 80.463982 
C 243.084054 80.331075 243.158732 80.150788 243.158732 79.962828 
C 243.158732 79.774868 243.084054 79.594581 242.951147 79.461674 
C 242.818239 79.328766 242.637952 79.254089 242.449992 79.254089 
C 242.262032 79.254089 242.081746 79.328766 241.948838 79.461674 
C 241.81593 79.594581 241.741253 79.774868 241.741253 79.962828 
C 241.741253 80.150788 241.81593 80.331075 241.948838 80.463982 
C 242.081746 80.59689 242.262032 80.671567 242.449992 80.671567 
z
" style="fill:#1f77b4;stroke:#1f77b4;"/>
    <path clip-path="url(#p1c070f91c5)" d="M 262.643849 66.18289 
C 263.48718 66.18289 264.296084 65.847831 264.892409 65.251506 
C 265.488734 64.655181 265.823793 63.846277 265.823793 63.002946 
C 265.823793 62.159614 265.488734 61.35071 264.892409 60.754385 
C 264.296084 60.15806 263.48718 59.823001 262.643849 59.823001 
C 261.800518 59.823001 260.991614 60.15806 260.395288 60.754385 
C 259.798963 61.35071 259.463904 62.159614 259.463904 63.002946 
C 259.463904 63.846277 259.798963 64.655181 260.395288 65.251506 
C 260.991614 65.847831 261.800518 66.18289 262.643849 66.18289 
z
" style="fill:#1f77b4;stroke:#1f77b4;"/>
    <path clip-path="url(#p1c070f91c5)" d="M 295.973995 64.826169 
C 296.372486 64.826169 296.75471 64.667846 297.036486 64.386071 
C 297.318261 64.104295 297.476584 63.722071 297.476584 63.32358 
C 297.476584 62.925089 297.318261 62.542866 297.036486 62.26109 
C 296.75471 61.979314 296.372486 61.820992 295.973995 61.820992 
C 295.575504 61.820992 295.193281 61.979314 294.911505 62.26109 
C 294.629729 62.542866 294.471407 62.925089 294.471407 63.32358 
C 294.471407 63.722071 294.629729 64.104295 294.911505 64.386071 
C 295.193281 64.667846 295.575504 64.826169 295.973995 64.826169 
z
" style="fill:#1f77b4;stroke:#1f77b4;"/>
    <path clip-path="url(#p1c070f91c5)" d="M 320.096177 60.102105 
C 320.460643 60.102105 320.810229 59.957301 321.067945 59.699586 
C 321.325661 59.44187 321.470465 59.092283 321.470465 58.727818 
C 321.470465 58.363353 321.325661 58.013766 321.067945 57.75605 
C 320.810229 57.498334 320.460643 57.353531 320.096177 57.353531 
C 319.731712 57.353531 319.382125 57.498334 319.12441 57.75605 
C 318.866694 58.013766 318.72189 58.363353 318.72189 58.727818 
C 318.72189 59.092283 318.866694 59.44187 319.12441 59.699586 
C 319.382125 59.957301 319.731712 60.102105 320.096177 60.102105 
z
" style="fill:#1f77b4;stroke:#1f77b4;"/>
    <path clip-path="url(#p1c070f91c5)" d="M 127.947052 118.769767 
C 129.06562 118.769767 130.138525 118.325355 130.929472 117.534408 
C 131.720419 116.743461 132.164831 115.670556 132.164831 114.551988 
C 132.164831 113.43342 131.720419 112.360514 130.929472 111.569567 
C 130.138525 110.77862 129.06562 110.334208 127.947052 110.334208 
C 126.828484 110.334208 125.755579 110.77862 124.964632 111.569567 
C 124.173684 112.360514 123.729273 113.43342 123.729273 114.551988 
C 123.729273 115.670556 124.173684 116.743461 124.964632 117.534408 
C 125.755579 118.325355 126.828484 118.769767 127.947052 118.769767 
z
" style="fill:#1f77b4;stroke:#1f77b4;"/>
    <path clip-path="url(#p1c070f91c5)" d="M 291.631431 75.428657 
C 292.665181 75.428657 293.656731 75.017943 294.387702 74.286972 
C 295.118674 73.556 295.529387 72.564451 295.529387 71.530701 
C 295.529387 70.496951 295.118674 69.505401 294.387702 68.77443 
C 293.656731 68.043458 292.665181 67.632745 291.631431 67.632745 
C 290.597681 67.632745 289.606132 68.043458 288.87516 68.77443 
C 288.144189 69.505401 287.733476 70.496951 287.733476 71.530701 
C 287.733476 72.564451 288.144189 73.556 288.87516 74.286972 
C 289.606132 75.017943 290.597681 75.428657 291.631431 75.428657 
z
" style="fill:#1f77b4;stroke:#1f77b4;"/>
    <path clip-path="url(#p1c070f91c5)" d="M 299.78163 63.609355 
C 300.381044 63.609355 300.955989 63.371205 301.379839 62.947355 
C 301.803689 62.523505 302.041838 61.948561 302.041838 61.349146 
C 302.041838 60.749732 301.803689 60.174787 301.379839 59.750937 
C 300.955989 59.327087 300.381044 59.088937 299.78163 59.088937 
C 299.182215 59.088937 298.607271 59.327087 298.183421 59.750937 
C 297.759571 60.174787 297.521421 60.749732 297.521421 61.349146 
C 297.521421 61.948561 297.759571 62.523505 298.183421 62.947355 
C 298.607271 63.371205 299.182215 63.609355 299.78163 63.609355 
z
" style="fill:#1f77b4;stroke:#1f77b4;"/>
    <path clip-path="url(#p1c070f91c5)" d="M 238.591891 68.163063 
C 238.860904 68.163063 239.118936 68.056183 239.309157 67.865961 
C 239.499379 67.67574 239.606259 67.417708 239.606259 67.148695 
C 239.606259 66.879681 239.499379 66.621649 239.309157 66.431428 
C 239.118936 66.241207 238.860904 66.134327 238.591891 66.134327 
C 238.322877 66.134327 238.064845 66.241207 237.874624 66.431428 
C 237.684403 66.621649 237.577523 66.879681 237.577523 67.148695 
C 237.577523 67.417708 237.684403 67.67574 237.874624 67.865961 
C 238.064845 68.056183 238.322877 68.163063 238.591891 68.163063 
z
" style="fill:#1f77b4;stroke:#1f77b4;"/>
   </g>
   <g id="matplotlib.axis_1">
    <g id="xtick_1">
     <g id="line2d_1">
      <defs>
       <path d="M 0 0 
L 0 3.5 
" id="m9c1d1182f8" style="stroke:#000000;stroke-width:0.8;"/>
      </defs>
      <g>
       <use style="stroke:#000000;stroke-width:0.8;" x="71.996817" xlink:href="#m9c1d1182f8" y="307.584"/>
      </g>
     </g>
     <g id="text_1">
      <text style="font-family:DejaVu Sans;font-size:10px;font-style:normal;font-weight:normal;text-anchor:middle;" transform="rotate(-0, 71.996817, 322.182437)" x="71.996817" y="322.182437">0</text>
     </g>
    </g>
    <g id="xtick_2">
     <g id="line2d_2">
      <g>
       <use style="stroke:#000000;stroke-width:0.8;" x="138.145323" xlink:href="#m9c1d1182f8" y="307.584"/>
      </g>
     </g>
     <g id="text_2">
      <text style="font-family:DejaVu Sans;font-size:10px;font-style:normal;font-weight:normal;text-anchor:middle;" transform="rotate(-0, 138.145323, 322.182437)" x="138.145323" y="322.182437">10000</text>
     </g>
    </g>
    <g id="xtick_3">
     <g id="line2d_3">
      <g>
       <use style="stroke:#000000;stroke-width:0.8;" x="204.29383" xlink:href="#m9c1d1182f8" y="307.584"/>
      </g>
     </g>
     <g id="text_3">
      <text style="font-family:DejaVu Sans;font-size:10px;font-style:normal;font-weight:normal;text-anchor:middle;" transform="rotate(-0, 204.29383, 322.182437)" x="204.29383" y="322.182437">20000</text>
     </g>
    </g>
    <g id="xtick_4">
     <g id="line2d_4">
      <g>
       <use style="stroke:#000000;stroke-width:0.8;" x="270.442336" xlink:href="#m9c1d1182f8" y="307.584"/>
      </g>
     </g>
     <g id="text_4">
      <text style="font-family:DejaVu Sans;font-size:10px;font-style:normal;font-weight:normal;text-anchor:middle;" transform="rotate(-0, 270.442336, 322.182437)" x="270.442336" y="322.182437">30000</text>
     </g>
    </g>
    <g id="xtick_5">
     <g id="line2d_5">
      <g>
       <use style="stroke:#000000;stroke-width:0.8;" x="336.590843" xlink:href="#m9c1d1182f8" y="307.584"/>
      </g>
     </g>
     <g id="text_5">
      <text style="font-family:DejaVu Sans;font-size:10px;font-style:normal;font-weight:normal;text-anchor:middle;" transform="rotate(-0, 336.590843, 322.182437)" x="336.590843" y="322.182437">40000</text>
     </g>
    </g>
    <g id="xtick_6">
     <g id="line2d_6">
      <g>
       <use style="stroke:#000000;stroke-width:0.8;" x="402.739349" xlink:href="#m9c1d1182f8" y="307.584"/>
      </g>
     </g>
     <g id="text_6">
      <text style="font-family:DejaVu Sans;font-size:10px;font-style:normal;font-weight:normal;text-anchor:middle;" transform="rotate(-0, 402.739349, 322.182437)" x="402.739349" y="322.182437">50000</text>
     </g>
    </g>
    <g id="text_7">
     <text style="font-family:DejaVu Sans;font-size:10px;font-style:normal;font-weight:normal;text-anchor:middle;" transform="rotate(-0, 236.16, 335.860562)" x="236.16" y="335.860562">gdpPercap_2007</text>
    </g>
   </g>
   <g id="matplotlib.axis_2">
    <g id="ytick_1">
     <g id="line2d_7">
      <defs>
       <path d="M 0 0 
L -3.5 0 
" id="m3659e958e4" style="stroke:#000000;stroke-width:0.8;"/>
      </defs>
      <g>
       <use style="stroke:#000000;stroke-width:0.8;" x="57.6" xlink:href="#m3659e958e4" y="293.30296"/>
      </g>
     </g>
     <g id="text_8">
      <text style="font-family:DejaVu Sans;font-size:10px;font-style:normal;font-weight:normal;text-anchor:end;" transform="rotate(-0, 50.6, 297.102178)" x="50.6" y="297.102178">40</text>
     </g>
    </g>
    <g id="ytick_2">
     <g id="line2d_8">
      <g>
       <use style="stroke:#000000;stroke-width:0.8;" x="57.6" xlink:href="#m3659e958e4" y="237.051277"/>
      </g>
     </g>
     <g id="text_9">
      <text style="font-family:DejaVu Sans;font-size:10px;font-style:normal;font-weight:normal;text-anchor:end;" transform="rotate(-0, 50.6, 240.850496)" x="50.6" y="240.850496">50</text>
     </g>
    </g>
    <g id="ytick_3">
     <g id="line2d_9">
      <g>
       <use style="stroke:#000000;stroke-width:0.8;" x="57.6" xlink:href="#m3659e958e4" y="180.799594"/>
      </g>
     </g>
     <g id="text_10">
      <text style="font-family:DejaVu Sans;font-size:10px;font-style:normal;font-weight:normal;text-anchor:end;" transform="rotate(-0, 50.6, 184.598813)" x="50.6" y="184.598813">60</text>
     </g>
    </g>
    <g id="ytick_4">
     <g id="line2d_10">
      <g>
       <use style="stroke:#000000;stroke-width:0.8;" x="57.6" xlink:href="#m3659e958e4" y="124.547912"/>
      </g>
     </g>
     <g id="text_11">
      <text style="font-family:DejaVu Sans;font-size:10px;font-style:normal;font-weight:normal;text-anchor:end;" transform="rotate(-0, 50.6, 128.34713)" x="50.6" y="128.34713">70</text>
     </g>
    </g>
    <g id="ytick_5">
     <g id="line2d_11">
      <g>
       <use style="stroke:#000000;stroke-width:0.8;" x="57.6" xlink:href="#m3659e958e4" y="68.296229"/>
      </g>
     </g>
     <g id="text_12">
      <text style="font-family:DejaVu Sans;font-size:10px;font-style:normal;font-weight:normal;text-anchor:end;" transform="rotate(-0, 50.6, 72.095448)" x="50.6" y="72.095448">80</text>
     </g>
    </g>
    <g id="text_13">
     <text style="font-family:DejaVu Sans;font-size:10px;font-style:normal;font-weight:normal;text-anchor:middle;" transform="rotate(-90, 31.517187, 174.528)" x="31.517187" y="174.528">lifeExp_2007</text>
    </g>
   </g>
   <g id="patch_3">
    <path d="M 57.6 307.584 
L 57.6 41.472 
" style="fill:none;stroke:#000000;stroke-linecap:square;stroke-linejoin:miter;stroke-width:0.8;"/>
   </g>
   <g id="patch_4">
    <path d="M 414.72 307.584 
L 414.72 41.472 
" style="fill:none;stroke:#000000;stroke-linecap:square;stroke-linejoin:miter;stroke-width:0.8;"/>
   </g>
   <g id="patch_5">
    <path d="M 57.6 307.584 
L 414.72 307.584 
" style="fill:none;stroke:#000000;stroke-linecap:square;stroke-linejoin:miter;stroke-width:0.8;"/>
   </g>
   <g id="patch_6">
    <path d="M 57.6 41.472 
L 414.72 41.472 
" style="fill:none;stroke:#000000;stroke-linecap:square;stroke-linejoin:miter;stroke-width:0.8;"/>
   </g>
  </g>
 </g>
 <defs>
  <clipPath id="p1c070f91c5">
   <rect height="266.112" width="357.12" x="57.6" y="41.472"/>
  </clipPath>
 </defs>
</svg>
