<?xml version="1.0" encoding="UTF-8"?>
<!DOCTYPE svg  PUBLIC '-//W3C//DTD SVG 1.1//EN'  'http://www.w3.org/Graphics/SVG/1.1/DTD/svg11.dtd'>
<svg width="461pt" height="346pt" version="1.1" viewBox="0 0 461 346" xmlns="http://www.w3.org/2000/svg" xmlns:xlink="http://www.w3.org/1999/xlink">
  <path d="m0 346h461v-346h-461z" fill="#ffffff"/>
  <path d="m58 308h357v-266h-357z" fill="#ffffff"/>
  <defs>
    <path id="b" d="m0 0v4" stroke="#000" stroke-width=".8"/>
    <path id="a" d="m0 0h-4" stroke="#000" stroke-width=".8"/>
    <clipPath id="c">
      <rect x="58" y="41" width="357" height="266"/>
    </clipPath>
  </defs>
  <use x="73.832727" y="307.584" stroke="#000" stroke-width=".8" xlink:href="#b"/>
  <text x="73.832727" y="322.182437" font-family="DejaVu Sans" font-size="10px" text-anchor="middle">0.0</text>
  <use x="127.941818" y="307.584" stroke="#000" stroke-width=".8" xlink:href="#b"/>
  <text x="127.941818" y="322.182437" font-family="DejaVu Sans" font-size="10px" text-anchor="middle">0.5</text>
  <use x="182.050909" y="307.584" stroke="#000" stroke-width=".8" xlink:href="#b"/>
  <text x="182.050909" y="322.182437" font-family="DejaVu Sans" font-size="10px" text-anchor="middle">1.0</text>
  <use x="236.16" y="307.584" stroke="#000" stroke-width=".8" xlink:href="#b"/>
  <text x="236.16" y="322.182437" font-family="DejaVu Sans" font-size="10px" text-anchor="middle">1.5</text>
  <use x="290.269091" y="307.584" stroke="#000" stroke-width=".8" xlink:href="#b"/>
  <text x="290.269091" y="322.182437" font-family="DejaVu Sans" font-size="10px" text-anchor="middle">2.0</text>
  <use x="344.378182" y="307.584" stroke="#000" stroke-width=".8" xlink:href="#b"/>
  <text x="344.378182" y="322.182437" font-family="DejaVu Sans" font-size="10px" text-anchor="middle">2.5</text>
  <use x="398.487273" y="307.584" stroke="#000" stroke-width=".8" xlink:href="#b"/>
  <text x="398.487273" y="322.182437" font-family="DejaVu Sans" font-size="10px" text-anchor="middle">3.0</text>
  <text x="236.16" y="335.860562" font-family="DejaVu Sans" font-size="10px" text-anchor="middle">Time (hr)</text>

  <use x="57.6" y="295.488" stroke="#000" stroke-width=".8" xlink:href="#a"/>
  <text x="50.6" y="299.287219" font-family="DejaVu Sans" font-size="10px" text-anchor="end">0</text>
  <use x="57.6" y="255.168" stroke="#000" stroke-width=".8" xlink:href="#a"/>
  <text x="50.6" y="258.967219" font-family="DejaVu Sans" font-size="10px" text-anchor="end">50</text>
  <use x="57.6" y="214.848" stroke="#000" stroke-width=".8" xlink:href="#a"/>
  <text x="50.6" y="218.647219" font-family="DejaVu Sans" font-size="10px" text-anchor="end">100</text>
  <use x="57.6" y="174.528" stroke="#000" stroke-width=".8" xlink:href="#a"/>
  <text x="50.6" y="178.327219" font-family="DejaVu Sans" font-size="10px" text-anchor="end">150</text>
  <use x="57.6" y="134.208" stroke="#000" stroke-width=".8" xlink:href="#a"/>
  <text x="50.6" y="138.007219" font-family="DejaVu Sans" font-size="10px" text-anchor="end">200</text>
  <use x="57.6" y="93.888" stroke="#000" stroke-width=".8" xlink:href="#a"/>
  <text x="50.6" y="97.687219" font-family="DejaVu Sans" font-size="10px" text-anchor="end">250</text>
  <use x="57.6" y="53.568" stroke="#000" stroke-width=".8" xlink:href="#a"/>
  <text x="50.6" y="57.367219" font-family="DejaVu Sans" font-size="10px" text-anchor="end">300</text>
  <text transform="rotate(-90 25 175)" x="25.432813" y="174.528" font-family="DejaVu Sans" font-size="10px" text-anchor="middle">Position (km)</text>
  <path d="m74 295 325-242" clip-path="url(#c)" fill="none" stroke="#1f77b4" stroke-linecap="square" stroke-width="2"/>
  <path d="m58 308v-266" fill="none" stroke="#000" stroke-linecap="square" stroke-width=".8"/>
  <path d="m415 308v-266" fill="none" stroke="#000" stroke-linecap="square" stroke-width=".8"/>
  <path d="m58 308h357" fill="none" stroke="#000" stroke-linecap="square" stroke-width=".8"/>
  <path d="m58 41h357" fill="none" stroke="#000" stroke-linecap="square" stroke-width=".8"/>
</svg>
