<svg xmlns="http://www.w3.org/2000/svg" viewBox="0 0 533 191"><defs><style>.cls-1{fill:#b3ef54;}.cls-2{fill:#93278f;}</style></defs><title>indexing</title><g id="Layer_1" data-name="Layer 1"><rect class="cls-1" x="25" y="69" width="65" height="102"/></g><g id="Layer_2" data-name="Layer 2"><path class="cls-2" d="M39.82,32.66a15.77,15.77,0,0,1-.88,5.49A10.83,10.83,0,0,1,36.51,42a10,10,0,0,1-3.65,2.32,13.32,13.32,0,0,1-4.57.77A20.87,20.87,0,0,1,26.05,45a16.45,16.45,0,0,1-2.26-.39v9.84H19.71V21.32h3.63l.26,3.94a10.49,10.49,0,0,1,3.75-3.39,9.66,9.66,0,0,1,4.31-1,7.24,7.24,0,0,1,3.54.84,7.33,7.33,0,0,1,2.55,2.38,11.12,11.12,0,0,1,1.55,3.7A21.19,21.19,0,0,1,39.82,32.66Zm-4.18.19a21,21,0,0,0-.26-3.4,9,9,0,0,0-.86-2.65A4.76,4.76,0,0,0,33,25.08a3.83,3.83,0,0,0-2.18-.62,5.1,5.1,0,0,0-1.57.25,6,6,0,0,0-1.65.82,12.69,12.69,0,0,0-1.81,1.52,22.76,22.76,0,0,0-2,2.36V40.82a13.81,13.81,0,0,0,2.36.74,11.47,11.47,0,0,0,2.44.27,6.4,6.4,0,0,0,5.18-2.24Q35.65,37.36,35.64,32.85Z"/><path class="cls-2" d="M47.06,21.32h3.73l.11,4.34A14.9,14.9,0,0,1,55,22a8.33,8.33,0,0,1,4.09-1.12,6.69,6.69,0,0,1,5.54,2.36q1.89,2.37,1.74,7H62.27a7.66,7.66,0,0,0-.9-4.49,3.26,3.26,0,0,0-2.85-1.4,4.8,4.8,0,0,0-1.65.3,6.3,6.3,0,0,0-1.71.93,14.8,14.8,0,0,0-1.87,1.66,31.83,31.83,0,0,0-2.11,2.43V44.85H47.06Z"/><path class="cls-2" d="M80.5,24.69h-7V21.32H84.63V41.45h7v3.4H72.77v-3.4H80.5Zm1.43-13.24a3.13,3.13,0,0,1,1.27.25,3,3,0,0,1,1,.69,3.5,3.5,0,0,1,.68,1,3.2,3.2,0,0,1,.24,1.25,3.31,3.31,0,0,1-.24,1.25,3.42,3.42,0,0,1-.68,1,3.23,3.23,0,0,1-4.57,0,3.24,3.24,0,0,1-.68-1,3.14,3.14,0,0,1-.25-1.25A3,3,0,0,1,79,13.41a3.31,3.31,0,0,1,.68-1,3,3,0,0,1,1-.69A3.12,3.12,0,0,1,81.93,11.45Z"/><path class="cls-2" d="M98.88,21.32h3.63l.17,3.8a16.06,16.06,0,0,1,2-2,11.19,11.19,0,0,1,1.88-1.3,7,7,0,0,1,1.89-.69,9.33,9.33,0,0,1,2-.2,6.88,6.88,0,0,1,5.5,2.14q1.86,2.14,1.86,6.46V44.85h-4.08v-15a6.6,6.6,0,0,0-1-4.09,3.63,3.63,0,0,0-3.07-1.33,4.84,4.84,0,0,0-1.46.23,5.06,5.06,0,0,0-1.49.77A12.41,12.41,0,0,0,105,26.9c-.6.62-1.27,1.4-2,2.34V44.85H98.88Z"/><path class="cls-2" d="M144.23,44.52a20.08,20.08,0,0,1-2.86.51,29.54,29.54,0,0,1-3,.15c-3,0-5.16-.67-6.61-2s-2.18-3.38-2.18-6.15V24.74H123V21.32h6.58V14.85l4.08-1v7.52h10.57v3.42H133.66v12A4.94,4.94,0,0,0,135,40.48a5.61,5.61,0,0,0,4,1.25,20.23,20.23,0,0,0,2.46-.17,24.05,24.05,0,0,0,2.79-.55Z"/><path d="M165.75,54.69q-10.81-10-10.81-22.12a27.81,27.81,0,0,1,.58-5.66,26.72,26.72,0,0,1,1.85-5.66,30.73,30.73,0,0,1,3.37-5.67,41.41,41.41,0,0,1,5.1-5.63l2.37,2.42q-9.11,9-9.1,19.89a24.89,24.89,0,0,0,2.3,10.46,32.36,32.36,0,0,0,6.8,9.47Z"/><path d="M193.17,44.85l-.1-3.16a12.78,12.78,0,0,1-3.9,2.74,10.56,10.56,0,0,1-4.16.84,10.26,10.26,0,0,1-3.44-.51,6.55,6.55,0,0,1-2.36-1.42,5.48,5.48,0,0,1-1.36-2.12,7.84,7.84,0,0,1-.43-2.65A6.57,6.57,0,0,1,180.05,33q2.64-2,7.8-2h4.87V29a4.37,4.37,0,0,0-1.33-3.34,5.76,5.76,0,0,0-4.08-1.25,17.28,17.28,0,0,0-3.93.44,27.34,27.34,0,0,0-4,1.27V22.4c.51-.19,1.09-.37,1.72-.55s1.3-.34,2-.48,1.44-.26,2.21-.34a19.8,19.8,0,0,1,2.32-.13,14.22,14.22,0,0,1,3.84.47,7.8,7.8,0,0,1,2.9,1.43,6.32,6.32,0,0,1,1.81,2.41,8.56,8.56,0,0,1,.63,3.42V44.85Zm-.45-10.71h-5.18a10,10,0,0,0-2.62.3,5.17,5.17,0,0,0-1.81.87,3.56,3.56,0,0,0-1,1.35,4.33,4.33,0,0,0-.34,1.77,4,4,0,0,0,.21,1.3,2.94,2.94,0,0,0,.68,1.1,3.18,3.18,0,0,0,1.22.76,5.18,5.18,0,0,0,1.83.28,7.69,7.69,0,0,0,3.22-.85,15.54,15.54,0,0,0,3.83-2.71Z"/><path d="M223.4,44.52a20.08,20.08,0,0,1-2.86.51,29.54,29.54,0,0,1-3,.15q-4.42,0-6.61-2T208.75,37V24.74h-6.58V21.32h6.58V14.85l4.08-1v7.52H223.4v3.42H212.83v12a4.94,4.94,0,0,0,1.35,3.79,5.61,5.61,0,0,0,4,1.25,20.23,20.23,0,0,0,2.46-.17A24.05,24.05,0,0,0,223.4,41Z"/><path d="M251.32,32.9a15.41,15.41,0,0,1-.78,5,11.07,11.07,0,0,1-2.22,3.92,10.06,10.06,0,0,1-3.54,2.53,11.85,11.85,0,0,1-4.74.9,12.4,12.4,0,0,1-4.53-.78,9.09,9.09,0,0,1-3.4-2.31A10.2,10.2,0,0,1,230,38.41a16.4,16.4,0,0,1-.74-5.18,15.58,15.58,0,0,1,.77-5,11.29,11.29,0,0,1,2.23-3.89,10.06,10.06,0,0,1,3.54-2.53,11.84,11.84,0,0,1,4.73-.9,12.46,12.46,0,0,1,4.54.78,9.15,9.15,0,0,1,3.4,2.3,10.07,10.07,0,0,1,2.13,3.76A16.6,16.6,0,0,1,251.32,32.9Zm-4.18.18a13.45,13.45,0,0,0-.48-3.8,7.48,7.48,0,0,0-1.37-2.72,5.51,5.51,0,0,0-2.16-1.64,7.14,7.14,0,0,0-2.85-.55,6.38,6.38,0,0,0-3.13.71A6.12,6.12,0,0,0,235,27a8,8,0,0,0-1.22,2.78,14.9,14.9,0,0,0,.09,7.14,7.78,7.78,0,0,0,1.37,2.73,5.78,5.78,0,0,0,2.16,1.64,7.19,7.19,0,0,0,2.86.55,6.38,6.38,0,0,0,3.13-.72,6.2,6.2,0,0,0,2.13-1.91,8.28,8.28,0,0,0,1.22-2.78A13.84,13.84,0,0,0,247.14,33.08Z"/><path d="M274,44.85V28a15,15,0,0,0-.08-1.8,3.94,3.94,0,0,0-.26-1.12,1.15,1.15,0,0,0-.44-.57,1.26,1.26,0,0,0-.67-.16,1.48,1.48,0,0,0-.87.28,3.81,3.81,0,0,0-.85.91,13.66,13.66,0,0,0-1,1.68c-.37.69-.8,1.55-1.3,2.56V44.85h-3.73V28.4a19.83,19.83,0,0,0-.08-2.09,4.57,4.57,0,0,0-.26-1.24,1.15,1.15,0,0,0-.45-.61,1.34,1.34,0,0,0-.68-.16,1.46,1.46,0,0,0-.8.23,3.46,3.46,0,0,0-.83.84,12,12,0,0,0-1,1.67c-.38.7-.82,1.6-1.34,2.69V44.85h-3.75V21.32h3.12l.19,4.48a21.51,21.51,0,0,1,1.18-2.28A7.48,7.48,0,0,1,261.25,22a4.12,4.12,0,0,1,1.3-.84,4.26,4.26,0,0,1,1.54-.27A3.43,3.43,0,0,1,267,22.14,6.13,6.13,0,0,1,268,26c.37-.81.74-1.53,1.1-2.16a7.59,7.59,0,0,1,1.16-1.6,4.28,4.28,0,0,1,1.37-1,4.11,4.11,0,0,1,1.73-.34c3,0,4.43,2.27,4.43,6.82V44.85Z"/><path d="M306.25,54.46H279.86V51.08h26.39Z"/><path d="M310,21.32h3.64l.16,3.8a16.77,16.77,0,0,1,2-2,10.86,10.86,0,0,1,1.89-1.3,7,7,0,0,1,1.89-.69,9.27,9.27,0,0,1,2-.2A6.87,6.87,0,0,1,327.05,23q1.88,2.14,1.87,6.46V44.85h-4.08v-15a6.6,6.6,0,0,0-1-4.09,3.64,3.64,0,0,0-3.07-1.33,4.91,4.91,0,0,0-1.47.23,5,5,0,0,0-1.48.77,11.84,11.84,0,0,0-1.68,1.49c-.6.62-1.28,1.4-2,2.34V44.85H310Z"/><path d="M351.51,44.85l-.09-3.16a12.78,12.78,0,0,1-3.9,2.74,10.56,10.56,0,0,1-4.16.84,10.29,10.29,0,0,1-3.45-.51,6.64,6.64,0,0,1-2.36-1.42,5.46,5.46,0,0,1-1.35-2.12,7.84,7.84,0,0,1-.44-2.65A6.56,6.56,0,0,1,338.4,33c1.76-1.34,4.35-2,7.79-2h4.88V29a4.38,4.38,0,0,0-1.34-3.34,5.76,5.76,0,0,0-4.08-1.25,17.2,17.2,0,0,0-3.92.44,27.84,27.84,0,0,0-4,1.27V22.4c.52-.19,1.09-.37,1.72-.55s1.3-.34,2-.48,1.43-.26,2.2-.34A19.92,19.92,0,0,1,346,20.9a14.22,14.22,0,0,1,3.84.47,7.8,7.8,0,0,1,2.9,1.43,6.34,6.34,0,0,1,1.82,2.41,8.56,8.56,0,0,1,.63,3.42V44.85Zm-.44-10.71h-5.18a10.13,10.13,0,0,0-2.63.3,5.21,5.21,0,0,0-1.8.87,3.59,3.59,0,0,0-1,1.35,4.5,4.5,0,0,0-.34,1.77,3.78,3.78,0,0,0,.22,1.3,2.92,2.92,0,0,0,.67,1.1,3.25,3.25,0,0,0,1.22.76,5.18,5.18,0,0,0,1.83.28,7.69,7.69,0,0,0,3.22-.85,15.58,15.58,0,0,0,3.84-2.71Z"/><path d="M379.57,44.85V28a14.69,14.69,0,0,0-.09-1.8,4.36,4.36,0,0,0-.25-1.12,1.22,1.22,0,0,0-.45-.57,1.26,1.26,0,0,0-.67-.16,1.43,1.43,0,0,0-.86.28,3.82,3.82,0,0,0-.86.91,15,15,0,0,0-1,1.68c-.36.69-.8,1.55-1.3,2.56V44.85h-3.72V28.4a19.42,19.42,0,0,0-.09-2.09,5.05,5.05,0,0,0-.25-1.24,1.16,1.16,0,0,0-.46-.61,1.34,1.34,0,0,0-.68-.16,1.46,1.46,0,0,0-.8.23,3.46,3.46,0,0,0-.83.84,14.32,14.32,0,0,0-1,1.67c-.37.7-.82,1.6-1.34,2.69V44.85h-3.75V21.32h3.12l.19,4.48a23.55,23.55,0,0,1,1.18-2.28A7.5,7.5,0,0,1,366.82,22a4,4,0,0,1,1.3-.84,4.17,4.17,0,0,1,1.53-.27,3.46,3.46,0,0,1,2.89,1.24,6.2,6.2,0,0,1,1,3.84c.37-.81.74-1.53,1.1-2.16a8,8,0,0,1,1.16-1.6,4.39,4.39,0,0,1,1.37-1,4.13,4.13,0,0,1,1.74-.34q4.42,0,4.43,6.82V44.85Z"/><path d="M409.05,31.84c0,.58,0,1.07,0,1.46s0,.75-.07,1.1H392.43a7.34,7.34,0,0,0,2,5.54,8.05,8.05,0,0,0,5.81,1.93c.69,0,1.38,0,2.06-.08s1.36-.13,2-.22,1.25-.2,1.84-.32,1.13-.24,1.63-.38v3.35A29.81,29.81,0,0,1,404,45a32.06,32.06,0,0,1-4.34.29,14.76,14.76,0,0,1-5.21-.82,8.84,8.84,0,0,1-3.57-2.38,9.71,9.71,0,0,1-2.06-3.82,17.85,17.85,0,0,1-.67-5.12,15.45,15.45,0,0,1,.71-4.7A11.85,11.85,0,0,1,391,24.54a10,10,0,0,1,3.36-2.66,10.19,10.19,0,0,1,4.53-1,11.52,11.52,0,0,1,4.35.77,8.77,8.77,0,0,1,3.2,2.19,9.3,9.3,0,0,1,2,3.45A14.28,14.28,0,0,1,409.05,31.84Zm-4.24-.58a8.76,8.76,0,0,0-.31-2.87,5.9,5.9,0,0,0-1.16-2.24,5.3,5.3,0,0,0-1.95-1.47,6.6,6.6,0,0,0-2.72-.52,5.73,5.73,0,0,0-2.44.51,5.6,5.6,0,0,0-1.9,1.45A7.7,7.7,0,0,0,393,28.37a10.44,10.44,0,0,0-.61,2.89Z"/><path d="M431.46,54.46H419.9V10.91h11.56v3.28h-7.67v37h7.67Z"/><path d="M462.54,29.55a27.11,27.11,0,0,1-.71,6.41,14.85,14.85,0,0,1-2.13,5,10,10,0,0,1-3.55,3.22,10.51,10.51,0,0,1-5,1.13,10.75,10.75,0,0,1-4.48-.92,8.93,8.93,0,0,1-3.44-2.85A14.05,14.05,0,0,1,441,36.6a28.56,28.56,0,0,1-.77-7,27.29,27.29,0,0,1,.71-6.43,15.28,15.28,0,0,1,2.14-5,9.91,9.91,0,0,1,3.55-3.21,10.38,10.38,0,0,1,5-1.13,10.51,10.51,0,0,1,4.47.92,8.82,8.82,0,0,1,3.45,2.86,14.19,14.19,0,0,1,2.2,4.91A28.14,28.14,0,0,1,462.54,29.55Zm-18.15-.14c0,.48,0,1,0,1.45a12.7,12.7,0,0,0,.08,1.4l13-9.58a11.29,11.29,0,0,0-.89-2.18,6.93,6.93,0,0,0-1.29-1.7,5.36,5.36,0,0,0-1.71-1.11,5.51,5.51,0,0,0-2.16-.4,5.6,5.6,0,0,0-2.89.77,6.5,6.5,0,0,0-2.22,2.31,12.41,12.41,0,0,0-1.4,3.8A24.59,24.59,0,0,0,444.39,29.41Zm14,.28q0-.8-.06-1.59c0-.52-.08-1-.13-1.53l-13,9.63a12.56,12.56,0,0,0,.89,2.25,7,7,0,0,0,1.3,1.77,5.61,5.61,0,0,0,1.74,1.15A6,6,0,0,0,454.3,41a6.53,6.53,0,0,0,2.21-2.3,12.61,12.61,0,0,0,1.41-3.79A24.61,24.61,0,0,0,458.41,29.69Z"/><path d="M482.9,54.46H471.35V51.18H479v-37h-7.61V10.91H482.9Z"/><path d="M499.54,10q10.81,10,10.81,22.27a27.62,27.62,0,0,1-.52,5.25A25.65,25.65,0,0,1,508.07,43a31.18,31.18,0,0,1-3.34,5.78,38.82,38.82,0,0,1-5.28,5.88l-2.37-2.41a32.2,32.2,0,0,0,6.82-9.45,24.49,24.49,0,0,0,2.25-10.31q0-11.16-9.07-20.06Z"/><path d="M62.76,91.2a13.76,13.76,0,0,1-.35,3.2,7.44,7.44,0,0,1-1.07,2.49,5.1,5.1,0,0,1-1.77,1.6,5.7,5.7,0,0,1-4.73.11,4.45,4.45,0,0,1-1.73-1.43A7.15,7.15,0,0,1,52,94.73a14.13,14.13,0,0,1-.38-3.53A13.91,13.91,0,0,1,52,88a7.65,7.65,0,0,1,1.07-2.49,4.9,4.9,0,0,1,1.78-1.61,5.16,5.16,0,0,1,2.48-.57,5.28,5.28,0,0,1,2.24.47,4.34,4.34,0,0,1,1.72,1.43,7,7,0,0,1,1.1,2.45A14,14,0,0,1,62.76,91.2Zm-9.07-.07v.72c0,.25,0,.48.05.71l6.48-4.8a5.93,5.93,0,0,0-.45-1.09,3.39,3.39,0,0,0-.64-.84,2.72,2.72,0,0,0-.86-.56,2.85,2.85,0,0,0-1.08-.2,2.73,2.73,0,0,0-1.44.39,3.07,3.07,0,0,0-1.11,1.15,6.28,6.28,0,0,0-.71,1.9A12.71,12.71,0,0,0,53.69,91.13Zm7,.14c0-.27,0-.53,0-.79s0-.52-.07-.77l-6.48,4.82a6.23,6.23,0,0,0,.45,1.12,3.3,3.3,0,0,0,.65.89,2.93,2.93,0,0,0,.86.57,2.82,2.82,0,0,0,1.11.21,2.76,2.76,0,0,0,1.45-.39,3.32,3.32,0,0,0,1.11-1.15,6.32,6.32,0,0,0,.7-1.89A12.73,12.73,0,0,0,60.7,91.27Z"/><path d="M112.84,98.85h-9.63V97h3.94V85.77l-3.67,2L102.73,86l4.88-2.57h1.8V97h3.43Z"/><path d="M165.75,98.85H155.66V97l4-3.94c.65-.64,1.17-1.19,1.58-1.66a9.27,9.27,0,0,0,1-1.28,3.86,3.86,0,0,0,.46-1.1,5.49,5.49,0,0,0,.11-1.11,3.74,3.74,0,0,0-.15-1.07,2.58,2.58,0,0,0-.47-.9,2.13,2.13,0,0,0-.82-.61,2.94,2.94,0,0,0-1.21-.22,3.68,3.68,0,0,0-1.77.43,6.23,6.23,0,0,0-1.46,1.13l-1.13-1.35a7,7,0,0,1,2-1.47,6.06,6.06,0,0,1,2.63-.55,5.26,5.26,0,0,1,1.86.31,4,4,0,0,1,1.45.88,3.93,3.93,0,0,1,.94,1.4,5.08,5.08,0,0,1,.34,1.88,5.35,5.35,0,0,1-.24,1.63,5.78,5.78,0,0,1-.71,1.49,10.86,10.86,0,0,1-1.19,1.54c-.48.53-1,1.12-1.71,1.75l-2.78,2.71h7.45Z"/><path d="M218.23,94.2a4.34,4.34,0,0,1-.41,1.89,4.23,4.23,0,0,1-1.23,1.55,6,6,0,0,1-2.06,1,10,10,0,0,1-2.89.38c-.61,0-1.16,0-1.64-.06s-.94-.09-1.36-.15V97c.48.09,1,.15,1.53.2s1.09.07,1.65.07a8.6,8.6,0,0,0,2-.2,4,4,0,0,0,1.33-.59,2.41,2.41,0,0,0,.75-.94,3.26,3.26,0,0,0,.23-1.24,2.11,2.11,0,0,0-.28-1.11,2.36,2.36,0,0,0-.79-.78,4.09,4.09,0,0,0-1.22-.48,7.48,7.48,0,0,0-1.55-.15h-1.75V90.12h1.77a4.17,4.17,0,0,0,1.26-.18,2.9,2.9,0,0,0,1-.52,2.25,2.25,0,0,0,.62-.84,2.71,2.71,0,0,0,.22-1.13,2.08,2.08,0,0,0-.75-1.79,3.59,3.59,0,0,0-2.2-.57,8.11,8.11,0,0,0-1.6.16,14.14,14.14,0,0,0-1.75.45V83.92a8.59,8.59,0,0,1,.85-.25c.3-.08.6-.14.9-.19s.6-.09.9-.12.58,0,.85,0a7.75,7.75,0,0,1,2.15.27,4.26,4.26,0,0,1,1.54.75,3.12,3.12,0,0,1,.94,1.2,3.81,3.81,0,0,1,.32,1.58,3.52,3.52,0,0,1-.68,2.2A4.58,4.58,0,0,1,215,90.74a3.91,3.91,0,0,1,1.17.38,3.77,3.77,0,0,1,1,.72,3.5,3.5,0,0,1,.75,1A3,3,0,0,1,218.23,94.2Z"/><path d="M272.07,95.46h-2.61v3.39h-2.09V95.46H260V93.67l6.53-10.14h2.93V93.67h2.61Zm-4.7-10L262,93.67h5.33Z"/><path d="M323.7,94a4.4,4.4,0,0,1-.49,2.08,5.07,5.07,0,0,1-1.35,1.61,6.45,6.45,0,0,1-2,1,8.23,8.23,0,0,1-2.53.37c-.22,0-.47,0-.73,0l-.78,0-.75-.07-.67-.08V97a10.86,10.86,0,0,0,1.45.22c.54,0,1.09.07,1.65.07a5.84,5.84,0,0,0,1.68-.22,3.75,3.75,0,0,0,1.28-.64,2.83,2.83,0,0,0,.81-1,3,3,0,0,0,.28-1.33,2.29,2.29,0,0,0-1-2.08,5.59,5.59,0,0,0-2.95-.65h-2.91V83.53h8.25v1.79h-6.33v4.3h1.34a10.89,10.89,0,0,1,2.15.2,5.46,5.46,0,0,1,1.85.69,3.85,3.85,0,0,1,1.32,1.34A4.08,4.08,0,0,1,323.7,94Z"/><path d="M59.81,156.45V140.93c0-2.6-1-3.91-2.91-3.91a4.13,4.13,0,0,0-2.77,1.17,20.32,20.32,0,0,0-2.81,3.19v15.07H45.61V123.33h5.71v8.16L51,135.8a17.16,17.16,0,0,1,1.48-1.56,8.28,8.28,0,0,1,1.62-1.16,7.62,7.62,0,0,1,1.87-.71,9.12,9.12,0,0,1,2.23-.25,7.86,7.86,0,0,1,3.19.6,6.18,6.18,0,0,1,2.27,1.69A7.11,7.11,0,0,1,65.07,137a11.88,11.88,0,0,1,.46,3.44v16Z"/><path d="M119.13,142.72c0,.39,0,.89,0,1.52s0,1.21-.1,1.76H103.33a7.35,7.35,0,0,0,.48,2.76,5.5,5.5,0,0,0,1.36,2,5.9,5.9,0,0,0,2.11,1.23,8.41,8.41,0,0,0,2.73.42,27.61,27.61,0,0,0,3.72-.27,28.89,28.89,0,0,0,4.11-.88v4.55c-.61.17-1.27.33-2,.47s-1.46.26-2.21.37-1.5.19-2.27.25-1.51.08-2.23.08a14.51,14.51,0,0,1-4.87-.77,9.69,9.69,0,0,1-3.66-2.29,10,10,0,0,1-2.29-3.74,15.26,15.26,0,0,1-.8-5.15,16.64,16.64,0,0,1,.8-5.29,12.21,12.21,0,0,1,2.25-4.08,9.94,9.94,0,0,1,3.52-2.62,11.23,11.23,0,0,1,4.63-.93,11.78,11.78,0,0,1,4.48.79,8.93,8.93,0,0,1,3.26,2.19,9.39,9.39,0,0,1,2,3.35A13,13,0,0,1,119.13,142.72Zm-5.81-.82a7,7,0,0,0-.36-2.45,4.88,4.88,0,0,0-1-1.73,4,4,0,0,0-1.5-1,5.09,5.09,0,0,0-1.84-.33,4.69,4.69,0,0,0-3.54,1.44,6.57,6.57,0,0,0-1.64,4.07Z"/><path d="M158.86,127.79h-6.73v-4.46h12.58V152h6.87v4.45H151.31V152h7.55Z"/><path d="M211.64,137.09h-6.73v-4.45H217.5V152h6.86v4.45H204.09V152h7.55Zm6.32-11a3.76,3.76,0,0,1-.28,1.46,3.62,3.62,0,0,1-.78,1.18,4,4,0,0,1-1.19.8,3.74,3.74,0,0,1-1.47.29,3.88,3.88,0,0,1-1.49-.29,4,4,0,0,1-1.2-.8,3.7,3.7,0,0,1-1.06-2.64,3.71,3.71,0,0,1,.28-1.45,4,4,0,0,1,.78-1.2,3.66,3.66,0,0,1,1.2-.8,3.71,3.71,0,0,1,1.49-.3,3.58,3.58,0,0,1,1.47.3,3.62,3.62,0,0,1,1.19.8,3.82,3.82,0,0,1,.78,1.2A3.71,3.71,0,0,1,218,126.12Z"/><path d="M262.4,132.64v15.51a4.9,4.9,0,0,0,.73,2.94,2.53,2.53,0,0,0,2.2,1,4.11,4.11,0,0,0,2.76-1.18,21.46,21.46,0,0,0,2.8-3.2V132.64h5.72v23.81h-4.95l-.14-3.52A20.87,20.87,0,0,1,270,154.6a9.33,9.33,0,0,1-1.68,1.28,8.43,8.43,0,0,1-2,.82A9.06,9.06,0,0,1,264,157a7.91,7.91,0,0,1-3.2-.6,6,6,0,0,1-2.29-1.7,7.4,7.4,0,0,1-1.37-2.63,12.24,12.24,0,0,1-.46-3.44v-16Z"/><path d="M326.32,156.45V140.23c0-.59,0-1.11-.05-1.56a4.55,4.55,0,0,0-.19-1.11,1.35,1.35,0,0,0-.41-.67,1.11,1.11,0,0,0-.74-.22,1.91,1.91,0,0,0-1.43,1,16.33,16.33,0,0,0-1.59,3.35v15.45H317V140.23c0-.59,0-1.11-.05-1.56a5.14,5.14,0,0,0-.18-1.11,1.43,1.43,0,0,0-.42-.67,1.17,1.17,0,0,0-.75-.22c-.41,0-.86.33-1.36,1a14.79,14.79,0,0,0-1.67,3.35v15.45h-4.94V132.64h4.24l.09,3.47a15.14,15.14,0,0,1,1-1.81,5.82,5.82,0,0,1,1.11-1.23,3.68,3.68,0,0,1,1.25-.69,5,5,0,0,1,1.51-.21,4.15,4.15,0,0,1,3,1,4.43,4.43,0,0,1,1.18,2.9,14.8,14.8,0,0,1,1.11-1.81,6.54,6.54,0,0,1,1.15-1.23,3.85,3.85,0,0,1,1.29-.69,5.26,5.26,0,0,1,1.54-.21A4.32,4.32,0,0,1,330,134a9.52,9.52,0,0,1,1.24,5.37v17.09Z"/></g></svg>